<svg width="24" height="24" viewBox="0 0 24 24" fill="none" xmlns="http://www.w3.org/2000/svg">
<path d="M3.7529 14.1504C3.99624 14.3185 4.61371 14.7133 4.85657 14.8862L11.1297 19.0646C11.3864 19.2362 11.6882 19.3278 11.9969 19.3278C12.3057 19.3278 12.6075 19.2362 12.8641 19.0646L19.1373 14.8862C19.3829 14.7138 19.9957 14.3181 20.241 14.1504C20.4327 14.0198 20.5931 13.8485 20.7109 13.6487C20.8287 13.4489 20.901 13.2255 20.9225 12.9946C20.944 12.7637 20.9143 12.5308 20.8354 12.3127C20.7565 12.0946 20.6305 11.8965 20.4662 11.7328L13.2808 16.5155C12.9007 16.7691 12.4539 16.9043 11.9969 16.9043C11.54 16.9043 11.0932 16.769 10.713 16.5155L3.52763 11.729C3.36333 11.8931 3.23725 12.0915 3.15836 12.3099C3.07948 12.5283 3.04973 12.7614 3.07124 12.9927C3.09276 13.2239 3.165 13.4475 3.28282 13.6476C3.40064 13.8478 3.56114 14.0194 3.7529 14.1504Z" fill="#C9FFCC"/>
<path d="M13.2807 19.6876C12.8998 19.9411 12.4524 20.0764 11.9949 20.0764C11.5373 20.0764 11.09 19.9411 10.7091 19.6876L3.52748 14.9048C3.36325 15.0686 3.2372 15.2666 3.15834 15.4847C3.07947 15.7028 3.04973 15.9357 3.07125 16.1666C3.09276 16.3976 3.16499 16.6209 3.28279 16.8207C3.40058 17.0205 3.56104 17.1918 3.75269 17.3225L11.1296 22.2366C11.3862 22.4082 11.688 22.4998 11.9968 22.4998C12.3055 22.4998 12.6073 22.4082 12.864 22.2366L20.2409 17.3225C20.4342 17.1931 20.5962 17.0223 20.7152 16.8225C20.8341 16.6226 20.9071 16.3988 20.9286 16.1672C20.9502 15.9356 20.9199 15.7022 20.8399 15.4838C20.7599 15.2654 20.6322 15.0676 20.4661 14.9048L13.2807 19.6876Z" fill="#C9FFCC"/>
<path d="M11.9975 10.4751C12.5959 10.4732 13.1881 10.3523 13.7393 10.1192C14.2906 9.88612 14.7899 9.54562 15.2082 9.11756C15.6265 8.68949 15.9554 8.18242 16.1756 7.62593C16.3959 7.06943 16.5032 6.47465 16.4911 5.87627C16.1328 -0.0212367 7.73681 0.0719512 7.5 5.9739C7.50304 7.16611 7.97773 8.30867 8.82041 9.15204C9.66308 9.9954 10.8052 10.471 11.9975 10.4751ZM13.7131 4.35963L15.1735 5.69983C15.2109 5.73537 15.2407 5.77816 15.2611 5.8256C15.2815 5.87304 15.292 5.92413 15.292 5.97576C15.292 6.02739 15.2815 6.07848 15.2611 6.12592C15.2407 6.17336 15.2109 6.21615 15.1735 6.25168L13.7131 7.59191C13.6423 7.65377 13.5518 7.68838 13.4578 7.68952C13.3828 7.68792 13.31 7.66413 13.2484 7.62116C13.1869 7.57819 13.1395 7.51797 13.1122 7.44808C13.0849 7.3782 13.0789 7.3018 13.095 7.22851C13.1111 7.15523 13.1485 7.08835 13.2026 7.03631L14.3626 5.97388L13.2025 4.91521C13.1315 4.84685 13.09 4.75341 13.087 4.65487C13.084 4.55634 13.1197 4.46053 13.1864 4.38795C13.2531 4.31536 13.3455 4.27176 13.444 4.26647C13.5424 4.26118 13.639 4.29461 13.7131 4.35963ZM11.8135 4.58484C11.8294 4.4875 11.8828 4.40024 11.9622 4.34176C12.0416 4.28328 12.1408 4.25824 12.2385 4.27199C12.3361 4.28573 12.4245 4.33718 12.4848 4.41531C12.545 4.49344 12.5722 4.59204 12.5606 4.68999L12.1814 7.36668C12.1654 7.46394 12.112 7.55108 12.0326 7.60948C11.9532 7.66787 11.8541 7.69287 11.7565 7.67913C11.6589 7.66539 11.5705 7.61401 11.5103 7.53597C11.4501 7.45792 11.4228 7.35942 11.4343 7.26153L11.8135 4.58484ZM8.82144 5.69983L10.2818 4.35961C10.3559 4.29456 10.4525 4.26109 10.551 4.26638C10.6494 4.27166 10.7419 4.31527 10.8086 4.38787C10.8754 4.46048 10.911 4.55631 10.908 4.65486C10.9049 4.75342 10.8634 4.84687 10.7923 4.91521L9.63235 5.97388L10.7924 7.03631C10.8631 7.10474 10.9043 7.19809 10.9071 7.29646C10.91 7.39482 10.8744 7.49042 10.8078 7.56287C10.7412 7.63533 10.6489 7.67891 10.5507 7.68432C10.4524 7.68974 10.3559 7.65657 10.2818 7.59187L8.82144 6.25167C8.78398 6.21614 8.75415 6.17335 8.73377 6.12591C8.71338 6.07847 8.70287 6.02738 8.70287 5.97575C8.70287 5.92412 8.71338 5.87303 8.73377 5.82559C8.75415 5.77816 8.78398 5.73537 8.82144 5.69983Z" fill="#C9FFCC"/>
<path d="M3.75573 10.9783C4.36 11.3667 10.372 15.3967 11.1288 15.8924C11.3855 16.064 11.6873 16.1557 11.996 16.1557C12.3048 16.1557 12.6066 16.0641 12.8632 15.8924L19.1364 11.7141C19.8734 11.1896 20.9726 10.7451 20.9346 9.67559C20.9344 9.41777 20.8705 9.16401 20.7487 8.93678C20.6269 8.70955 20.4509 8.51587 20.2364 8.37291L17.2293 6.36816C17.1309 7.68883 16.5369 8.92348 15.5663 9.82448C14.5957 10.7255 13.3204 11.2262 11.996 11.2262C10.6717 11.2262 9.39635 10.7255 8.42576 9.8245C7.45517 8.92351 6.86112 7.68886 6.76276 6.36819L3.75198 8.37292C3.54029 8.51808 3.36722 8.71269 3.24775 8.93986C3.12829 9.16704 3.06604 9.41993 3.06641 9.6766C3.06678 9.93327 3.12975 10.186 3.24987 10.4128C3.36999 10.6396 3.54363 10.8337 3.75573 10.9783Z" fill="#C9FFCC"/>
</svg>
