<svg width="105" height="105" viewBox="0 0 105 105" fill="none" xmlns="http://www.w3.org/2000/svg">
<path d="M90.1913 32.4961H62.7716C60.1876 32.4961 58.0859 34.5977 58.0859 37.1817V59.8109C58.0859 62.3948 60.1876 64.4965 62.7716 64.4965H67.4834C67.4834 64.4965 67.4884 64.4965 67.4916 64.4965C67.4949 64.4965 67.4966 64.4965 67.4998 64.4965H85.4614C85.4614 64.4965 85.4663 64.4965 85.4696 64.4965C85.4729 64.4965 85.4745 64.4965 85.4778 64.4965H90.1913C92.7737 64.4965 94.8753 62.3948 94.8753 59.8109V37.1817C94.8753 34.5977 92.7737 32.4961 90.1913 32.4961ZM69.2734 61.2169C69.9263 57.7945 72.9057 55.2007 76.4823 55.2007C78.4379 55.2007 80.282 55.9734 81.6814 57.3844C82.7347 58.436 83.4238 59.7649 83.6945 61.2185L69.2734 61.2169ZM91.5957 59.8125C91.5957 60.5869 90.9657 61.2169 90.193 61.2169H87.0118C86.7116 58.8839 85.678 56.7347 84.0078 55.0662C81.9931 53.0367 79.3222 51.9178 76.4839 51.9178C71.0961 51.9178 66.6418 55.9767 65.956 61.2152H62.7748C61.9988 61.2152 61.3705 60.5852 61.3705 59.8109V37.1817C61.3705 36.4073 62.0005 35.7773 62.7748 35.7773H90.1946C90.969 35.7773 91.5973 36.4073 91.5973 37.1817V59.8109L91.5957 59.8125Z" fill="white"/>
<path d="M76.4785 37.5C72.8839 37.5 69.957 40.4252 69.957 44.0198C69.957 47.6145 72.8823 50.5397 76.4785 50.5397C80.0748 50.5397 82.9984 47.6145 82.9984 44.0198C82.9984 40.4252 80.0748 37.5 76.4785 37.5ZM76.4785 47.2584C74.6919 47.2584 73.2383 45.8048 73.2383 44.0198C73.2383 42.2348 74.6919 40.7812 76.4785 40.7812C78.2652 40.7812 79.7171 42.2348 79.7171 44.0198C79.7171 45.8048 78.2635 47.2584 76.4785 47.2584Z" fill="white"/>
<path d="M91.77 11.5352H13.23C7.74375 11.5352 3.28125 15.9993 3.28125 21.4839V83.511C3.28125 88.9973 7.74539 93.4598 13.23 93.4598H91.7684C97.2546 93.4598 101.717 88.9956 101.717 83.511V21.4855C101.717 15.9993 97.253 11.5368 91.7684 11.5368L91.77 11.5352ZM13.2316 14.8164H91.77C95.4466 14.8164 98.4375 17.8073 98.4375 21.4839V24.2631H6.5625V21.4839C6.5625 17.8073 9.555 14.8164 13.2316 14.8164ZM91.77 90.1802H13.23C9.55336 90.1802 6.5625 87.1893 6.5625 83.5127V27.546H98.4375V83.5127C98.4375 87.1893 95.4466 90.1802 91.77 90.1802Z" fill="white"/>
<path d="M13.209 21.7568C13.6355 21.7568 14.0621 21.5764 14.3574 21.2646C14.6675 20.9693 14.8496 20.5428 14.8496 20.1162C14.8496 19.6732 14.6691 19.2631 14.3574 18.9514C13.7668 18.3443 12.6512 18.3443 12.0441 18.9514C11.7488 19.2631 11.5684 19.6732 11.5684 20.1162C11.5684 20.5428 11.7488 20.9693 12.0441 21.2646C12.3559 21.5764 12.766 21.7568 13.209 21.7568Z" fill="white"/>
<path d="M21.7372 21.4771C21.8192 21.5428 21.916 21.592 22.0161 21.6248C22.1145 21.674 22.2294 21.7068 22.3262 21.7232C22.441 21.7396 22.5411 21.7561 22.6543 21.7561C22.7544 21.7561 22.8676 21.7396 22.966 21.7232C23.0645 21.7068 23.1793 21.674 23.2761 21.6248C23.3762 21.592 23.473 21.5428 23.555 21.4771C23.6551 21.4115 23.7355 21.3459 23.8011 21.2803C24.1128 20.9686 24.2933 20.542 24.2933 20.1154C24.2933 19.6725 24.1145 19.2623 23.8011 18.9506C23.7355 18.885 23.6534 18.8029 23.555 18.7537C23.473 18.6881 23.3762 18.6389 23.2761 18.6061C23.1777 18.5568 23.0628 18.524 22.966 18.5076C22.7527 18.4584 22.5395 18.4584 22.3245 18.5076C22.2261 18.524 22.1112 18.5568 22.0145 18.6061C21.9144 18.6389 21.8176 18.6881 21.7355 18.7537C21.6535 18.8029 21.5551 18.885 21.4895 18.9506C21.1794 19.2623 21.0137 19.6725 21.0137 20.1154C21.0137 20.542 21.1794 20.9686 21.4895 21.2803C21.5551 21.3459 21.6552 21.4115 21.7355 21.4771H21.7372Z" fill="white"/>
<path d="M30.9395 21.2796C31.2364 21.5749 31.6613 21.7554 32.0879 21.7554C32.2027 21.7554 32.3012 21.7389 32.416 21.7225C32.5145 21.7061 32.6293 21.6733 32.7277 21.6241C32.8262 21.5913 32.9066 21.5421 33.0066 21.4764L33.2511 21.2796C33.3987 21.1155 33.53 20.935 33.6137 20.7382C33.6957 20.5413 33.7269 20.328 33.7269 20.1147C33.7269 19.6718 33.5628 19.2616 33.2511 18.9499C33.1691 18.8843 33.087 18.8022 33.0066 18.753C32.9066 18.6874 32.8262 18.6382 32.7277 18.6054C32.6277 18.5561 32.5128 18.5233 32.416 18.5069C31.8746 18.3921 31.3168 18.5725 30.9395 18.9499C30.6294 19.2616 30.4473 19.6718 30.4473 20.1147C30.4473 20.328 30.4965 20.5413 30.5785 20.7382C30.6605 20.935 30.7754 21.1155 30.9395 21.2796Z" fill="white"/>
<path d="M28.0184 67.6789C36.4759 67.6789 43.3583 60.8047 43.3583 52.3555C43.3583 51.4498 42.6249 50.7148 41.7177 50.7148H29.6591V38.6562C29.6591 37.7506 28.9257 37.0156 28.0184 37.0156C19.5692 37.0156 12.6934 43.8964 12.6934 52.3555C12.6934 60.8145 19.5676 67.6789 28.0184 67.6789ZM26.3778 40.4068V52.3538C26.3778 53.2595 27.1112 53.9945 28.0184 53.9945H39.9638C39.1616 59.8613 34.1101 64.396 28.0184 64.396C21.3772 64.396 15.9746 58.9934 15.9746 52.3538C15.9746 46.2622 20.5109 41.2107 26.3778 40.4068Z" fill="white"/>
<path d="M34.7695 30.2617C33.8623 30.2617 33.1289 30.9967 33.1289 31.9023V45.6016C33.1289 46.5072 33.8623 47.2422 34.7695 47.2422H48.4687C49.376 47.2422 50.1094 46.5072 50.1094 45.6016C50.1094 37.1425 43.2286 30.2617 34.7695 30.2617ZM36.4102 43.9609V33.6545C41.7487 34.383 45.9865 38.6223 46.7166 43.9609H36.4102Z" fill="white"/>
<path d="M48.0523 72.1875H15.1348C14.2275 72.1875 13.4941 72.9225 13.4941 73.8281C13.4941 74.7337 14.2275 75.4688 15.1348 75.4688H48.0523C48.9595 75.4688 49.6929 74.7337 49.6929 73.8281C49.6929 72.9225 48.9595 72.1875 48.0523 72.1875Z" fill="white"/>
<path d="M48.0523 78.9609H15.1348C14.2275 78.9609 13.4941 79.6959 13.4941 80.6016C13.4941 81.5072 14.2275 82.2422 15.1348 82.2422H48.0523C48.9595 82.2422 49.6929 81.5072 49.6929 80.6016C49.6929 79.6959 48.9595 78.9609 48.0523 78.9609Z" fill="white"/>
<path d="M89.8648 72.1875H56.9473C56.04 72.1875 55.3066 72.9225 55.3066 73.8281C55.3066 74.7337 56.04 75.4688 56.9473 75.4688H89.8648C90.772 75.4688 91.5054 74.7337 91.5054 73.8281C91.5054 72.9225 90.772 72.1875 89.8648 72.1875Z" fill="white"/>
<path d="M89.8648 78.9609H56.9473C56.04 78.9609 55.3066 79.6959 55.3066 80.6016C55.3066 81.5072 56.04 82.2422 56.9473 82.2422H89.8648C90.772 82.2422 91.5054 81.5072 91.5054 80.6016C91.5054 79.6959 90.772 78.9609 89.8648 78.9609Z" fill="white"/>
</svg>
