<svg width="24" height="24" viewBox="0 0 24 24" fill="none" xmlns="http://www.w3.org/2000/svg">
<g clip-path="url(#clip0_5053_851)">
<path d="M12.2793 -0.25C13.2327 -0.25 14.0077 0.525188 14.0078 1.47852V1.63086H17.3867C18.1627 1.63093 18.7939 2.26196 18.7939 3.03809V3.39844C19.0893 3.52381 19.3713 3.67942 19.6367 3.86328L19.9531 3.54883C20.2185 3.28322 20.5729 3.13672 20.9482 3.13672C21.3234 3.13683 21.678 3.28329 21.9434 3.54883C22.2086 3.81431 22.3555 4.16877 22.3555 4.54395C22.3554 4.91881 22.2085 5.27271 21.9434 5.53809L17.7314 9.75C17.4661 10.0152 17.1118 10.1621 16.7363 10.1621C16.3609 10.1621 16.0065 10.0153 15.7412 9.75L13.7695 7.7793C13.6349 7.64469 13.5309 7.48696 13.4609 7.31543C13.4437 7.45627 13.4346 7.59971 13.4346 7.74512C13.4346 9.68487 15.0134 11.2637 16.9531 11.2637C17.311 11.2636 17.6554 11.2107 17.9795 11.1133V11.1143C17.9986 11.1071 18.0171 11.1005 18.0352 11.0957L18.2891 11.0039C19.5351 10.4975 20.4205 9.30005 20.4697 7.86816C20.4814 7.53507 20.7619 7.27615 21.0918 7.28711C21.4241 7.29869 21.6839 7.57727 21.6729 7.90918V7.91016C21.6306 9.13665 21.12 10.284 20.2373 11.1387C19.8133 11.549 19.3235 11.8686 18.7939 12.0928V22.8428C18.7939 23.6187 18.1627 24.2499 17.3867 24.25H3.12598C2.34997 24.25 1.71875 23.6188 1.71875 22.8428V3.03809L1.72559 2.89355C1.79794 2.18487 2.39858 1.63086 3.12598 1.63086H5.4668C5.7991 1.63106 6.06826 1.9001 6.06836 2.23242C6.06836 2.56483 5.79916 2.83476 5.4668 2.83496H3.12598C3.01442 2.83496 2.92285 2.92627 2.92285 3.03809V22.8428C2.92285 22.9545 3.01429 23.0459 3.12598 23.0459H17.3867C17.4984 23.0457 17.5898 22.9542 17.5898 22.8428V12.4229C17.3803 12.4512 17.1679 12.4678 16.9531 12.4678C14.3488 12.4678 12.2305 10.3494 12.2305 7.74512C12.2305 5.1408 14.3488 3.02246 16.9531 3.02246C17.1677 3.02248 17.3802 3.03854 17.5898 3.06738V3.03809C17.5898 2.9265 17.4983 2.83513 17.3867 2.83496H14.0078V3.14941C14.0078 3.74049 13.5276 4.22168 12.9365 4.22168H7.57617C6.9851 4.22168 6.50391 3.74049 6.50391 3.14941V1.47852C6.50404 0.525188 7.28004 -0.25 8.2334 -0.25H12.2793ZM20.9482 4.34082C20.9075 4.34082 20.8687 4.35205 20.8359 4.37402L20.8047 4.40039L17.1621 8.04297C16.927 8.278 16.5457 8.27786 16.3105 8.04297L14.9082 6.64062C14.8695 6.60196 14.819 6.58105 14.7646 6.58105C14.7237 6.5811 14.6853 6.59298 14.6523 6.61523L14.6211 6.64062C14.5825 6.67913 14.5615 6.72939 14.5615 6.78418C14.5616 6.83895 14.5826 6.8892 14.6211 6.92773L16.5928 8.89844C16.6315 8.93718 16.6818 8.95801 16.7363 8.95801C16.7908 8.95793 16.8412 8.93711 16.8799 8.89844L21.0918 4.6875C21.1706 4.60872 21.1704 4.4793 21.0918 4.40039C21.0529 4.36153 21.0026 4.34093 20.9482 4.34082ZM16.9531 4.22656C15.8826 4.22656 14.9223 4.70783 14.2764 5.46484C14.4308 5.40771 14.5954 5.37698 14.7646 5.37695C15.1401 5.37695 15.4943 5.52385 15.7598 5.78906L16.7354 6.76465L18.7686 4.73242C18.2243 4.40395 17.5984 4.22662 16.9531 4.22656ZM8.2334 0.954102C7.94437 0.954102 7.70814 1.18951 7.70801 1.47852V3.0166H12.8037V1.47852C12.8036 1.18955 12.5682 0.954102 12.2793 0.954102H8.2334Z" fill="white" stroke="black" stroke-width="0.5"/>
<path d="M11.5505 8.83789H7.26013C7.06567 8.83789 6.9082 8.99554 6.9082 9.19C6.9082 9.38428 7.06567 9.54193 7.26013 9.54193H11.5505C11.7449 9.54193 11.9026 9.38428 11.9026 9.19C11.9026 8.99554 11.7449 8.83789 11.5505 8.83789Z" fill="white"/>
<path d="M6.5885 5.20312H4.2193C4.02484 5.20312 3.86719 5.36078 3.86719 5.55524C3.86719 5.74969 4.02484 5.90735 4.2193 5.90735H6.5885C6.78296 5.90735 6.94061 5.74969 6.94061 5.55524C6.94061 5.36078 6.78296 5.20312 6.5885 5.20312Z" fill="white"/>
<path d="M7.26013 11.1747H11.5505C11.7449 11.1747 11.9026 11.0171 11.9026 10.8226C11.9026 10.6284 11.7449 10.4707 11.5505 10.4707H7.26013C7.06567 10.4707 6.9082 10.6284 6.9082 10.8226C6.9082 11.0171 7.06567 11.1747 7.26013 11.1747Z" fill="white"/>
<path d="M13.0325 13.1074H7.26013C7.06567 13.1074 6.9082 13.2651 6.9082 13.4595C6.9082 13.654 7.06567 13.8116 7.26013 13.8116H13.0325C13.227 13.8116 13.3846 13.654 13.3846 13.4595C13.3846 13.2651 13.227 13.1074 13.0325 13.1074Z" fill="white"/>
<path d="M7.26013 15.4464H10.1464C10.3409 15.4464 10.4984 15.2888 10.4984 15.0943C10.4984 14.8998 10.3409 14.7422 10.1464 14.7422H7.26013C7.06567 14.7422 6.9082 14.8998 6.9082 15.0943C6.9082 15.2888 7.06567 15.4464 7.26013 15.4464Z" fill="white"/>
<path d="M7.26013 18.087H11.5505C11.7449 18.087 11.9026 17.9294 11.9026 17.7349C11.9026 17.5405 11.7449 17.3828 11.5505 17.3828H7.26013C7.06567 17.3828 6.9082 17.5405 6.9082 17.7349C6.9082 17.9294 7.06567 18.087 7.26013 18.087Z" fill="white"/>
<path d="M7.26013 19.7197H13.0325C13.227 19.7197 13.3846 19.562 13.3846 19.3676C13.3846 19.1733 13.227 19.0156 13.0325 19.0156H7.26013C7.06567 19.0156 6.9082 19.1733 6.9082 19.3676C6.9082 19.562 7.06567 19.7197 7.26013 19.7197Z" fill="white"/>
<path d="M4.9671 8.5332C4.18286 8.5332 3.54492 9.17114 3.54492 9.95538C3.54492 10.7396 4.18286 11.3776 4.9671 11.3776C5.75134 11.3776 6.38928 10.7396 6.38928 9.95538C6.38928 9.17114 5.75134 8.5332 4.9671 8.5332ZM4.9671 10.6733C4.57123 10.6733 4.24915 10.3513 4.24915 9.95538C4.24915 9.55951 4.57123 9.23743 4.9671 9.23743C5.36298 9.23743 5.68506 9.55951 5.68506 9.95538C5.68506 10.3513 5.36298 10.6733 4.9671 10.6733Z" fill="white"/>
<path d="M4.9671 12.8535C4.18286 12.8535 3.54492 13.4916 3.54492 14.2757C3.54492 15.0599 4.18286 15.6979 4.9671 15.6979C5.75134 15.6979 6.38928 15.0599 6.38928 14.2757C6.38928 13.4916 5.75134 12.8535 4.9671 12.8535ZM4.9671 14.9938C4.57123 14.9938 4.24915 14.6718 4.24915 14.2759C4.24915 13.8798 4.57123 13.5577 4.9671 13.5577C5.36298 13.5577 5.68506 13.8798 5.68506 14.2759C5.68506 14.6718 5.36298 14.9938 4.9671 14.9938Z" fill="white"/>
<path d="M4.9671 17.1289C4.18286 17.1289 3.54492 17.7668 3.54492 18.5511C3.54492 19.3353 4.18286 19.9733 4.9671 19.9733C5.75134 19.9733 6.38928 19.3353 6.38928 18.5511C6.38928 17.7668 5.75134 17.1289 4.9671 17.1289ZM4.9671 19.269C4.57123 19.269 4.24915 18.947 4.24915 18.5511C4.24915 18.1552 4.57123 17.8331 4.9671 17.8331C5.36298 17.8331 5.68506 18.1552 5.68506 18.5511C5.68506 18.947 5.36298 19.269 4.9671 19.269Z" fill="white"/>
</g>
<defs>
<clipPath id="clip0_5053_851">
<rect width="24" height="24" fill="white"/>
</clipPath>
</defs>
</svg>
