<svg width="105" height="105" viewBox="0 0 105 105" fill="none" xmlns="http://www.w3.org/2000/svg">
<path d="M72.261 43.056V58.8692H54.9289V25.1483H36.3016V43.056H53.7297V46.7175H32.6242V21.4868H58.5903V55.2077H68.5995V46.7175H59.7895V43.056H72.261Z" fill="black"/>
<path d="M72.2584 43.4211H68.597V58.8825H72.2584V43.4211Z" fill="url(#paint0_linear_5331_1030)"/>
<path d="M36.2857 21.4868H32.6242V43.4398H36.2857V21.4868Z" fill="url(#paint1_linear_5331_1030)"/>
<path d="M72.2782 55.2053H56.7688V58.8668H72.2782V55.2053Z" fill="url(#paint2_linear_5331_1030)"/>
<path d="M53.7297 43.0549H32.6242V46.7164H53.7297V43.0549Z" fill="url(#paint3_linear_5331_1030)"/>
<path d="M58.5744 21.4868H32.6242V25.1643H58.5744V21.4868Z" fill="url(#paint4_linear_5331_1030)"/>
<path d="M72.2772 43.0549H59.7897V46.7164H72.2772V43.0549Z" fill="url(#paint5_linear_5331_1030)"/>
<path d="M58.5927 21.4868H54.9312V58.8852H58.5927V21.4868Z" fill="url(#paint6_linear_5331_1030)"/>
<path d="M9 72.2746H10.7548V73.7689H10.9056C11.0152 73.5769 11.166 73.3576 11.358 73.1108C11.5499 72.8641 11.8241 72.6447 12.1668 72.4528C12.5095 72.2609 12.9756 72.1649 13.5514 72.1649C14.278 72.1649 14.936 72.3568 15.5118 72.727C16.0876 73.0971 16.54 73.6318 16.869 74.3447C17.198 75.0438 17.3625 75.8938 17.3625 76.8945C17.3625 77.8953 17.198 78.7178 16.869 79.4307C16.54 80.1436 16.0876 80.6782 15.5118 81.0621C14.936 81.446 14.278 81.6242 13.5377 81.6242C12.9893 81.6242 12.5369 81.5282 12.1805 81.3363C11.8241 81.1444 11.5499 80.925 11.358 80.6782C11.1523 80.4315 11.0015 80.1984 10.8919 80.0065H10.7959V84.8595H9V72.2746ZM13.1401 80.0613C13.6611 80.0613 14.0998 79.9242 14.4562 79.6364C14.8126 79.3485 15.0731 78.9646 15.2513 78.4848C15.4296 78.005 15.5118 77.4566 15.5118 76.8534C15.5118 76.2502 15.4296 75.7156 15.2513 75.2357C15.0731 74.7559 14.8126 74.3858 14.4562 74.0979C14.0998 73.8237 13.6611 73.6866 13.1401 73.6866C12.6192 73.6866 12.1942 73.8237 11.8378 74.0842C11.4813 74.3447 11.2209 74.7148 11.0427 75.1946C10.8644 75.6607 10.7685 76.2228 10.7685 76.8534C10.7685 77.484 10.8644 78.0461 11.0427 78.5259C11.2209 79.0057 11.4951 79.3896 11.8515 79.6638C12.2079 79.938 12.6329 80.075 13.1401 80.075V80.0613Z" fill="white"/>
<path d="M22.0774 81.6109C21.5016 81.6109 20.9807 81.5012 20.5009 81.2819C20.0347 81.0625 19.6646 80.7472 19.3904 80.336C19.1162 79.9247 18.9792 79.4175 18.9792 78.8143C18.9792 78.2933 19.0751 77.8683 19.2807 77.5393C19.4864 77.2103 19.7469 76.9361 20.0896 76.7442C20.4323 76.5523 20.8025 76.4015 21.2274 76.3055C21.6387 76.2095 22.0637 76.1273 22.5024 76.0861C23.037 76.0176 23.4757 75.9628 23.8185 75.9216C24.1612 75.8805 24.4079 75.812 24.5725 75.716C24.737 75.62 24.8192 75.4692 24.8192 75.2499V75.1951C24.8192 74.8523 24.7507 74.5644 24.6273 74.3314C24.4902 74.0983 24.2983 73.9201 24.0378 73.783C23.7773 73.6596 23.462 73.5911 23.0645 73.5911C22.6669 73.5911 22.3242 73.6459 22.0363 73.7693C21.7484 73.8927 21.5153 74.0435 21.3371 74.2354C21.1589 74.4273 21.0218 74.6193 20.9395 74.8386L19.2533 74.3999C19.459 73.8516 19.7606 73.4129 20.1444 73.0839C20.5283 72.7548 20.9807 72.5081 21.4742 72.3573C21.9814 72.2065 22.4887 72.1242 23.0233 72.1242C23.3935 72.1242 23.791 72.1653 24.2023 72.2613C24.6136 72.3573 25.0111 72.5081 25.3676 72.7411C25.7377 72.9742 26.0256 73.2895 26.2587 73.7008C26.4917 74.112 26.6014 74.6604 26.6014 75.3184V81.3916H24.8603V80.144H24.7644C24.641 80.3771 24.4628 80.6101 24.2297 80.8295C23.9967 81.0488 23.6951 81.2408 23.3386 81.3778C22.9822 81.5287 22.5572 81.5972 22.0637 81.5972L22.0774 81.6109ZM22.475 80.1714C22.9685 80.1714 23.3798 80.0755 23.7362 79.8836C24.0926 79.6916 24.3531 79.4449 24.5313 79.1296C24.7095 78.8142 24.8055 78.4715 24.8055 78.1288V76.9635C24.8055 76.9635 24.6136 77.0869 24.4354 77.1417C24.2571 77.1966 24.0378 77.2377 23.8047 77.2788C23.5717 77.32 23.3386 77.3474 23.1193 77.3748C22.8999 77.4022 22.7217 77.4296 22.5846 77.4433C22.2419 77.4845 21.9403 77.5667 21.6524 77.6627C21.3645 77.7724 21.1452 77.9094 20.9807 78.1014C20.8162 78.2933 20.7339 78.5401 20.7339 78.8691C20.7339 79.157 20.8025 79.4037 20.9533 79.5957C21.1041 79.7876 21.3097 79.9384 21.5565 80.0344C21.8169 80.1303 22.1048 80.1852 22.4475 80.1852L22.475 80.1714Z" fill="white"/>
<path d="M29.9327 70.8617C29.6174 70.8617 29.3569 70.7521 29.1376 70.5464C28.9182 70.3408 28.8086 70.0803 28.8086 69.7924C28.8086 69.5045 28.9182 69.2441 29.1376 69.0247C29.3569 68.8191 29.6174 68.7094 29.9327 68.7094C30.248 68.7094 30.5085 68.8191 30.7278 69.0247C30.9472 69.2303 31.0568 69.4908 31.0568 69.7924C31.0568 70.094 30.9472 70.3408 30.7278 70.5464C30.5085 70.7521 30.2343 70.8617 29.9327 70.8617ZM29.0279 81.404V72.2601H30.8238V81.404H29.0279Z" fill="white"/>
<path d="M36.528 81.5963C35.87 81.5963 35.2805 81.5003 34.7595 81.3084C34.2386 81.1164 33.8273 80.8423 33.4983 80.4584C33.1693 80.0883 32.9499 79.6221 32.8403 79.0875L34.5402 78.7311C34.6636 79.2109 34.8966 79.5536 35.2393 79.7867C35.5821 80.0197 36.0208 80.1294 36.5417 80.1294C37.1175 80.1294 37.5836 80.006 37.9263 79.7592C38.2691 79.5125 38.4473 79.2246 38.4473 78.8819C38.4473 78.594 38.3376 78.3472 38.132 78.1553C37.9263 77.9633 37.5973 77.8263 37.1586 77.7303L35.6232 77.3739C34.7732 77.1819 34.1426 76.8803 33.7314 76.4553C33.3201 76.0304 33.1144 75.4957 33.1144 74.8377C33.1144 74.2893 33.2652 73.8095 33.5668 73.4119C33.8684 73.0007 34.2934 72.6854 34.8144 72.4523C35.349 72.233 35.9522 72.1096 36.6514 72.1096C37.3505 72.1096 37.8715 72.2055 38.3376 72.3975C38.8037 72.5894 39.1876 72.8499 39.4755 73.1926C39.7633 73.5353 39.9827 73.9329 40.1061 74.3853L38.4884 74.7417C38.3787 74.4264 38.1731 74.1385 37.8852 73.8918C37.5973 73.645 37.186 73.5216 36.6514 73.5216C36.1579 73.5216 35.7466 73.6313 35.4039 73.8506C35.0748 74.07 34.9103 74.3579 34.9103 74.7006C34.9103 75.0022 35.02 75.2489 35.2393 75.4409C35.4587 75.6328 35.8151 75.7836 36.3224 75.8933L37.7892 76.2223C38.6392 76.4142 39.2561 76.7158 39.6674 77.1271C40.0787 77.5384 40.2843 78.0593 40.2843 78.7036C40.2843 79.2657 40.1198 79.7455 39.8045 80.1842C39.4892 80.6092 39.0505 80.9519 38.4747 81.185C37.9126 81.4317 37.2546 81.5551 36.5143 81.5551L36.528 81.5963Z" fill="white"/>
<path d="M44.8353 81.6109C44.2595 81.6109 43.7385 81.5012 43.2587 81.2819C42.7926 81.0625 42.4225 80.7472 42.1483 80.336C41.8741 79.9247 41.737 79.4175 41.737 78.8143C41.737 78.2933 41.833 77.8683 42.0386 77.5393C42.2443 77.2103 42.5047 76.9361 42.8475 76.7442C43.1902 76.5523 43.574 76.4015 43.9853 76.3055C44.3966 76.2095 44.8216 76.1273 45.2603 76.0861C45.7949 76.0176 46.2336 75.9628 46.5763 75.9216C46.919 75.8805 47.1658 75.812 47.3303 75.716C47.4948 75.62 47.5771 75.4692 47.5771 75.2499V75.1951C47.5771 74.8523 47.5085 74.5644 47.3852 74.3314C47.2618 74.0983 47.0561 73.9201 46.7957 73.783C46.5352 73.6596 46.2199 73.5911 45.8223 73.5911C45.4248 73.5911 45.082 73.6459 44.7941 73.7693C44.5063 73.8927 44.2732 74.0435 44.095 74.2354C43.9168 74.4273 43.7797 74.6193 43.6974 74.8386L42.0112 74.3999C42.2168 73.8516 42.5184 73.4129 42.9023 73.0839C43.2861 72.7548 43.7385 72.5081 44.2321 72.3573C44.7393 72.2065 45.2465 72.1242 45.7812 72.1242C46.1513 72.1242 46.5489 72.1653 46.9602 72.2613C47.3714 72.3436 47.769 72.5081 48.1255 72.7411C48.4956 72.9742 48.7835 73.2895 49.0165 73.7008C49.2496 74.112 49.3593 74.6604 49.3593 75.3184V81.3916H47.6182V80.144H47.5223C47.3989 80.3771 47.2206 80.6101 46.9876 80.8295C46.7545 81.0488 46.4529 81.2408 46.0965 81.3778C45.7401 81.5287 45.3151 81.5972 44.8216 81.5972L44.8353 81.6109ZM45.2328 80.1714C45.7264 80.1714 46.1376 80.0755 46.4941 79.8836C46.8368 79.6916 47.111 79.4449 47.2892 79.1296C47.4811 78.8142 47.5634 78.4715 47.5634 78.1288V76.9635C47.5634 76.9635 47.3715 77.0869 47.1932 77.1417C47.015 77.1966 46.7957 77.2377 46.5626 77.2788C46.3296 77.32 46.0965 77.3474 45.8772 77.3748C45.6578 77.4022 45.4796 77.4296 45.3425 77.4433C44.9998 77.4845 44.6982 77.5667 44.4103 77.6627C44.1224 77.7724 43.9031 77.9094 43.7385 78.1014C43.574 78.2933 43.4918 78.5401 43.4918 78.8691C43.4918 79.157 43.5603 79.4037 43.7111 79.5957C43.8619 79.7876 44.0676 79.9384 44.3143 80.0344C44.5748 80.1303 44.8627 80.1852 45.2054 80.1852L45.2328 80.1714Z" fill="white"/>
<path d="M55.0605 81.5963C54.4024 81.5963 53.8129 81.5003 53.292 81.3084C52.7711 81.1164 52.3598 80.8423 52.0308 80.4584C51.7018 80.0883 51.4824 79.6221 51.3727 79.0875L53.059 78.7311C53.1823 79.2109 53.4154 79.5536 53.7581 79.7867C54.1008 80.0197 54.5395 80.1294 55.0605 80.1294C55.6363 80.1294 56.1024 80.006 56.4451 79.7592C56.7878 79.5125 56.966 79.2246 56.966 78.8819C56.966 78.594 56.8564 78.3472 56.6507 78.1553C56.4451 77.9633 56.1161 77.8263 55.6774 77.7303L54.142 77.3739C53.292 77.1819 52.6614 76.8803 52.2501 76.4553C51.8388 76.0304 51.6332 75.4957 51.6332 74.8377C51.6332 74.2893 51.784 73.8095 52.0856 73.4119C52.3872 73.0144 52.8122 72.6854 53.3331 72.4523C53.8678 72.233 54.471 72.1096 55.1702 72.1096C55.8693 72.1096 56.3903 72.2055 56.8564 72.3975C57.3225 72.5894 57.7063 72.8499 57.9942 73.1926C58.2821 73.5353 58.5015 73.9329 58.6248 74.3853L57.0072 74.7417C56.8975 74.4264 56.6918 74.1385 56.404 73.8918C56.1161 73.645 55.7048 73.5216 55.1702 73.5216C54.6766 73.5216 54.2653 73.6313 53.9226 73.8506C53.5936 74.07 53.4291 74.3579 53.4291 74.7006C53.4291 75.0022 53.5388 75.2489 53.7581 75.4409C53.9775 75.6328 54.3339 75.7836 54.8411 75.8933L56.308 76.2223C57.158 76.4142 57.7749 76.7158 58.1861 77.1271C58.5974 77.5384 58.803 78.0593 58.803 78.7036C58.803 79.2657 58.6385 79.7455 58.3232 80.1842C58.0079 80.6092 57.5692 80.9519 56.9934 81.185C56.4314 81.4317 55.7733 81.5551 55.0331 81.5551L55.0605 81.5963Z" fill="white"/>
<path d="M64.713 72.2622V73.7291H59.7503V72.2622H64.713ZM61.0938 70.0962H62.8897V78.9522C62.8897 79.3224 62.9719 79.5828 63.1227 79.7611C63.2735 79.9393 63.534 80.0215 63.8904 80.0215C63.9864 80.0215 64.1098 80.0215 64.2606 79.9941C64.4114 79.9667 64.5485 79.953 64.6581 79.9256L64.9734 81.365C64.7815 81.4336 64.5759 81.4747 64.3565 81.5021C64.1372 81.5295 63.9178 81.5432 63.7122 81.5432C62.8897 81.5432 62.2453 81.3239 61.7792 80.8989C61.3268 80.4739 61.0938 79.8707 61.0938 79.0893V70.0962Z" fill="white"/>
<path d="M66.5067 81.4053V72.2613H68.2477V73.7282H68.3437C68.5082 73.2209 68.8098 72.8371 69.2211 72.5492C69.6461 72.2613 70.1121 72.1242 70.6468 72.1242C70.7565 72.1242 70.8936 72.1242 71.0444 72.1242C71.1952 72.1242 71.3186 72.1516 71.4145 72.1653V73.879C71.4145 73.879 71.2226 73.8379 71.0444 73.8104C70.8524 73.783 70.6742 73.783 70.4823 73.783C70.071 73.783 69.7009 73.8653 69.3582 74.0435C69.0291 74.2217 68.7687 74.4548 68.5767 74.7701C68.3848 75.0717 68.3026 75.4281 68.3026 75.8394V81.3916H66.5067V81.4053Z" fill="white"/>
<path d="M76.6125 81.5974C75.7077 81.5974 74.94 81.4055 74.2819 81.0217C73.6239 80.6378 73.1304 80.0894 72.7739 79.3903C72.4175 78.6911 72.2393 77.8549 72.2393 76.9089C72.2393 75.963 72.4175 75.1405 72.7602 74.4276C73.1029 73.7147 73.5965 73.1527 74.2271 72.7551C74.8577 72.3575 75.598 72.1519 76.448 72.1519C76.9689 72.1519 77.4761 72.2341 77.9559 72.4124C78.4358 72.5906 78.8745 72.8511 79.272 73.2212C79.6559 73.5913 79.9712 74.0574 80.1905 74.6469C80.4236 75.2227 80.5333 75.9356 80.5333 76.7581V77.4025H73.24V76.059H79.601L78.7648 76.4977C78.7648 75.9356 78.6825 75.4421 78.5043 75.0171C78.3261 74.5921 78.0656 74.2494 77.7366 74.0163C77.3939 73.7696 76.9689 73.6599 76.4617 73.6599C75.9544 73.6599 75.5157 73.7833 75.1593 74.03C74.8029 74.2768 74.5287 74.5921 74.3367 75.0034C74.1448 75.4009 74.0489 75.8396 74.0489 76.3194V77.238C74.0489 77.8686 74.1585 78.3895 74.3779 78.8282C74.5972 79.2669 74.8988 79.5822 75.2827 79.8153C75.6665 80.0483 76.1189 80.1443 76.6262 80.1443C76.9689 80.1443 77.2705 80.1032 77.5447 80.0072C77.8189 79.9112 78.0519 79.7741 78.2575 79.5685C78.4495 79.3766 78.6003 79.1298 78.71 78.8556L80.4099 79.2532C80.2591 79.7193 80.0123 80.1306 79.6696 80.5007C79.3269 80.8572 78.8882 81.145 78.3809 81.337C77.86 81.5289 77.2842 81.6386 76.6262 81.6386L76.6125 81.5974Z" fill="white"/>
<path d="M86.4402 81.5974C85.5354 81.5974 84.7677 81.4055 84.1097 81.0217C83.4517 80.6378 82.9581 80.0894 82.6017 79.3903C82.2453 78.6911 82.0671 77.8549 82.0671 76.9089C82.0671 75.963 82.2453 75.1405 82.588 74.4276C82.9307 73.7147 83.4242 73.1527 84.0549 72.7551C84.6855 72.3575 85.4258 72.1519 86.2757 72.1519C86.7967 72.1519 87.3039 72.2341 87.7837 72.4124C88.2635 72.5906 88.7022 72.8511 89.0998 73.2212C89.4837 73.5913 89.799 74.0574 90.0183 74.6469C90.2514 75.2227 90.361 75.9356 90.361 76.7581V77.4025H83.0678V76.059H89.4288L88.5926 76.4977C88.5926 75.9356 88.5103 75.4421 88.3321 75.0171C88.1539 74.5921 87.8934 74.2494 87.5644 74.0163C87.2217 73.7696 86.7967 73.6599 86.2894 73.6599C85.7822 73.6599 85.3435 73.7833 84.9871 74.03C84.6307 74.2768 84.3565 74.5921 84.1645 75.0034C83.9726 75.4009 83.8766 75.8396 83.8766 76.3194V77.238C83.8766 77.8686 83.9863 78.3895 84.2057 78.8282C84.425 79.2669 84.7266 79.5822 85.1105 79.8153C85.4943 80.0483 85.9467 80.1443 86.454 80.1443C86.7967 80.1443 87.0983 80.1032 87.3725 80.0072C87.6466 79.9112 87.8797 79.7741 88.0853 79.5685C88.2773 79.3766 88.4281 79.1298 88.5377 78.8556L90.2377 79.2532C90.0869 79.7193 89.8401 80.1306 89.4974 80.5007C89.1546 80.8572 88.716 81.145 88.2087 81.337C87.6878 81.5289 87.112 81.6386 86.454 81.6386L86.4402 81.5974Z" fill="white"/>
<path d="M96.2569 72.2622V73.7291H91.2942V72.2622H96.2569ZM92.624 70.0962H94.4199V78.9522C94.4199 79.3224 94.5021 79.5828 94.6529 79.7611C94.8037 79.9393 95.0642 80.0215 95.4207 80.0215C95.5166 80.0215 95.64 80.0215 95.7908 79.9941C95.9416 79.9667 96.0787 79.953 96.1884 79.9256L96.5037 81.365C96.3117 81.4336 96.1061 81.4747 95.8868 81.5021C95.6674 81.5295 95.4481 81.5432 95.2424 81.5432C94.4199 81.5432 93.7756 81.3239 93.3095 80.8989C92.8571 80.4739 92.624 79.8707 92.624 79.0893V70.0962Z" fill="white"/>
<path d="M45.0933 85.6401V89.9584H44.6547V86.5037L42.9547 89.4101H42.7354L41.0355 86.5175V89.9584H40.5968V85.6401H40.9806L42.8588 88.848L44.7095 85.6401H45.0933Z" fill="white"/>
<path d="M46.108 87.8059C46.108 86.5446 47.0676 85.6124 48.3837 85.6124C49.6998 85.6124 50.6457 86.5446 50.6457 87.8059C50.6457 89.0671 49.6724 89.9993 48.3837 89.9993C47.0951 89.9993 46.108 89.0671 46.108 87.8059ZM50.1933 87.8059C50.1933 86.7777 49.4256 86.01 48.3837 86.01C47.3418 86.01 46.5604 86.764 46.5604 87.8059C46.5604 88.8477 47.3418 89.588 48.3837 89.588C49.4256 89.588 50.1933 88.834 50.1933 87.8059Z" fill="white"/>
<path d="M55.2784 85.6401V89.9584H54.9083L52.1254 86.4489V89.9584H51.673V85.6401H52.0568L54.8398 89.1496V85.6401H55.2922H55.2784Z" fill="white"/>
<path d="M59.5154 89.3672V89.7648H56.4583V85.4464H59.4194V85.844H56.9107V87.3794H59.1452V87.7632H56.9107V89.3672H59.5154Z" fill="white"/>
<path d="M62.2156 88.4641V89.9584H61.7632V88.4641L60.0359 85.6401H60.5294L62.01 88.0666L63.4905 85.6401H63.9429L62.2156 88.4641Z" fill="white"/>
<path d="M72.3728 85.6401V89.9584H71.9342V86.5037L70.2342 89.4101H70.0149L68.315 86.5175V89.9584H67.8763V85.6401H68.2601L70.1383 88.848L71.989 85.6401H72.3728Z" fill="white"/>
<path d="M76.4723 88.8069H74.0595L73.5385 89.9584H73.0587L75.0328 85.6401H75.4852L77.4593 89.9584H76.9795L76.4586 88.8069H76.4723ZM76.3078 88.4367L75.2659 86.1199L74.224 88.4367H76.3078Z" fill="white"/>
<path d="M78.8042 86.0376H77.2825V85.6401H80.7783V86.0376H79.2566V89.9584H78.8042V86.0376Z" fill="white"/>
<path d="M82.4111 86.0376H80.8894V85.6401H84.3852V86.0376H82.8635V89.9584H82.4111V86.0376Z" fill="white"/>
<path d="M88.167 89.5609V89.9584H85.1099V85.6401H88.071V86.0376H85.5623V87.5731H87.7969V87.9569H85.5623V89.5609H88.167Z" fill="white"/>
<path d="M92.1851 89.9584L91.198 88.5738C91.0883 88.5738 90.9787 88.5875 90.8553 88.5875H89.69V89.9584H89.2376V85.6401H90.8553C91.952 85.6401 92.6237 86.2021 92.6237 87.1207C92.6237 87.8061 92.2673 88.2722 91.6367 88.4779L92.6923 89.9584H92.1851ZM92.1576 87.1207C92.1576 86.4352 91.7052 86.0376 90.8416 86.0376H89.69V88.2037H90.8416C91.7052 88.2037 92.1576 87.8061 92.1576 87.1207Z" fill="white"/>
<path d="M93.2661 89.4379L93.4443 89.0815C93.7596 89.3831 94.308 89.6024 94.87 89.6024C95.6789 89.6024 96.0353 89.2597 96.0353 88.8347C96.0353 87.6557 93.3757 88.3823 93.3757 86.7784C93.3757 86.1477 93.8693 85.5994 94.966 85.5994C95.4595 85.5994 95.953 85.7365 96.3095 85.9832L96.1587 86.3534C95.7885 86.1066 95.3635 85.997 94.9797 85.997C94.1846 85.997 93.8418 86.3534 93.8418 86.7784C93.8418 87.9573 96.5014 87.2445 96.5014 88.821C96.5014 89.4516 95.9942 90 94.8974 90C94.2531 90 93.6088 89.7669 93.2935 89.4379H93.2661Z" fill="white"/>
<defs>
<linearGradient id="paint0_linear_5331_1030" x1="9" y1="52.9617" x2="96.5037" y2="52.9617" gradientUnits="userSpaceOnUse">
<stop stop-color="white"/>
<stop offset="1" stop-color="#E6E6E6"/>
</linearGradient>
<linearGradient id="paint1_linear_5331_1030" x1="9" y1="52.9731" x2="96.8858" y2="52.9731" gradientUnits="userSpaceOnUse">
<stop stop-color="white"/>
<stop offset="1" stop-color="#E6E6E6"/>
</linearGradient>
<linearGradient id="paint2_linear_5331_1030" x1="9" y1="53.1616" x2="-159.061" y2="53.1616" gradientUnits="userSpaceOnUse">
<stop stop-color="white"/>
<stop offset="1" stop-color="#E6E6E6"/>
</linearGradient>
<linearGradient id="paint3_linear_5331_1030" x1="9" y1="53.1616" x2="96.5037" y2="53.1616" gradientUnits="userSpaceOnUse">
<stop stop-color="white"/>
<stop offset="1" stop-color="#E6E6E6"/>
</linearGradient>
<linearGradient id="paint4_linear_5331_1030" x1="9" y1="53" x2="96.5576" y2="53" gradientUnits="userSpaceOnUse">
<stop stop-color="white"/>
<stop offset="1" stop-color="#E6E6E6"/>
</linearGradient>
<linearGradient id="paint5_linear_5331_1030" x1="9" y1="53.1616" x2="-220.907" y2="53.1616" gradientUnits="userSpaceOnUse">
<stop stop-color="white"/>
<stop offset="1" stop-color="#E6E6E6"/>
</linearGradient>
<linearGradient id="paint6_linear_5331_1030" x1="9" y1="52.9842" x2="96.5037" y2="52.9842" gradientUnits="userSpaceOnUse">
<stop stop-color="white"/>
<stop offset="1" stop-color="#E6E6E6"/>
</linearGradient>
</defs>
</svg>
