<svg width="105" height="89" viewBox="0 0 105 89" fill="none" xmlns="http://www.w3.org/2000/svg">
<path d="M75.9142 32.4662V51.4414H55.1164V10.9776H32.7644V32.4662H53.6774V36.8599H28.3516V6.58398H59.51V47.0478H71.5206V36.8599H60.949V32.4662H75.9142Z" fill="black"/>
<path d="M75.9112 32.9043H71.5176V51.4574H75.9112V32.9043Z" fill="url(#paint0_linear_5053_1100)"/>
<path d="M32.7452 6.58398H28.3516V32.9267H32.7452V6.58398Z" fill="url(#paint1_linear_5053_1100)"/>
<path d="M75.9349 47.0449H57.3242V51.4386H75.9349V47.0449Z" fill="url(#paint2_linear_5053_1100)"/>
<path d="M53.6774 32.4648H28.3516V36.8585H53.6774V32.4648Z" fill="url(#paint3_linear_5053_1100)"/>
<path d="M59.4908 6.58398H28.3516V10.9968H59.4908V6.58398Z" fill="url(#paint4_linear_5053_1100)"/>
<path d="M75.9337 32.4648H60.9492V36.8585H75.9337V32.4648Z" fill="url(#paint5_linear_5053_1100)"/>
<path d="M59.5128 6.58398H55.1191V51.4606H59.5128V6.58398Z" fill="url(#paint6_linear_5053_1100)"/>
<path d="M0 82.5947V67.5261H2.10565V69.3192H2.2866C2.41821 69.0889 2.59916 68.8257 2.82947 68.5296C3.05977 68.2335 3.38878 67.9703 3.80004 67.74C4.2113 67.5097 4.77061 67.3945 5.46153 67.3945C6.3334 67.3945 7.12302 67.6248 7.81393 68.069C8.50485 68.5132 9.04771 69.1547 9.44252 70.0101C9.83733 70.8491 10.0347 71.869 10.0347 73.0699C10.0347 74.2708 9.83733 75.2578 9.44252 76.1132C9.04771 76.9687 8.50485 77.6102 7.81393 78.0708C7.12302 78.5314 6.3334 78.7453 5.44508 78.7453C4.78706 78.7453 4.2442 78.6301 3.81649 78.3998C3.38878 78.1695 3.05977 77.9063 2.82947 77.6102C2.58271 77.3141 2.40176 77.0345 2.27015 76.8041H2.155V82.6276H0V82.5947ZM4.96802 76.8699C5.59313 76.8699 6.11954 76.7054 6.54725 76.36C6.97496 76.0145 7.28752 75.5539 7.50138 74.9782C7.71523 74.4024 7.81393 73.7444 7.81393 73.0206C7.81393 72.2967 7.71523 71.6552 7.50138 71.0794C7.28752 70.5037 6.97496 70.0595 6.54725 69.714C6.11954 69.385 5.59313 69.2205 4.96802 69.2205C4.3429 69.2205 3.83294 69.385 3.40523 69.6976C2.97752 70.0101 2.66496 70.4543 2.45111 71.0301C2.23725 71.5894 2.1221 72.2638 2.1221 73.0206C2.1221 73.7773 2.23725 74.4517 2.45111 75.0275C2.66496 75.6033 2.99397 76.0639 3.42168 76.3929C3.84939 76.7219 4.35935 76.8864 4.96802 76.8864V76.8699Z" fill="white"/>
<path d="M15.6924 78.7294C15.0015 78.7294 14.3764 78.5978 13.8006 78.3346C13.2413 78.0713 12.7971 77.693 12.4681 77.1995C12.1391 76.706 11.9746 76.0973 11.9746 75.3735C11.9746 74.7484 12.0898 74.2384 12.3365 73.8436C12.5833 73.4488 12.8958 73.1198 13.3071 72.8895C13.7183 72.6592 14.1625 72.4782 14.6725 72.3631C15.166 72.2479 15.6759 72.1492 16.2024 72.0999C16.8439 72.0176 17.3703 71.9518 17.7816 71.9025C18.1929 71.8531 18.489 71.7709 18.6864 71.6557C18.8838 71.5405 18.9825 71.3596 18.9825 71.0964V71.0306C18.9825 70.6193 18.9002 70.2739 18.7522 69.9942C18.5877 69.7146 18.3574 69.5007 18.0448 69.3362C17.7322 69.1881 17.3539 69.1059 16.8768 69.1059C16.3998 69.1059 15.9885 69.1717 15.643 69.3197C15.2976 69.4678 15.0179 69.6488 14.8041 69.8791C14.5902 70.1094 14.4257 70.3397 14.327 70.6029L12.3036 70.0765C12.5504 69.4185 12.9123 68.892 13.3729 68.4972C13.8335 68.1024 14.3764 67.8063 14.9686 67.6254C15.5772 67.4444 16.1859 67.3457 16.8275 67.3457C17.2716 67.3457 17.7487 67.3951 18.2422 67.5102C18.7357 67.6254 19.2128 67.8063 19.6405 68.086C20.0846 68.3656 20.4301 68.744 20.7098 69.2375C20.9894 69.731 21.121 70.389 21.121 71.1786V78.4662H19.0318V76.9692H18.9167C18.7686 77.2488 18.5548 77.5285 18.2751 77.7917C17.9954 78.0549 17.6335 78.2852 17.2058 78.4497C16.7781 78.6307 16.2682 78.7129 15.6759 78.7129L15.6924 78.7294ZM16.1695 77.0021C16.7617 77.0021 17.2552 76.8869 17.6829 76.6566C18.1106 76.4263 18.4232 76.1302 18.637 75.7518C18.8509 75.3735 18.966 74.9622 18.966 74.551V73.1527C18.966 73.1527 18.7357 73.3007 18.5219 73.3665C18.308 73.4323 18.0448 73.4817 17.7651 73.531C17.4855 73.5804 17.2058 73.6133 16.9426 73.6462C16.6794 73.6791 16.4656 73.712 16.3011 73.7285C15.8898 73.7778 15.5279 73.8765 15.1824 73.9917C14.837 74.1233 14.5738 74.2878 14.3764 74.5181C14.179 74.7484 14.0803 75.0445 14.0803 75.4393C14.0803 75.7847 14.1625 76.0809 14.3435 76.3112C14.5244 76.5415 14.7712 76.7224 15.0673 76.8376C15.3798 76.9527 15.7253 77.0185 16.1366 77.0185L16.1695 77.0021Z" fill="white"/>
<path d="M25.1185 65.8308C24.7401 65.8308 24.4275 65.6992 24.1643 65.4524C23.9011 65.2056 23.7695 64.8931 23.7695 64.5476C23.7695 64.2022 23.9011 63.8896 24.1643 63.6264C24.4275 63.3797 24.7401 63.248 25.1185 63.248C25.4968 63.248 25.8094 63.3797 26.0726 63.6264C26.3358 63.8732 26.4674 64.1857 26.4674 64.5476C26.4674 64.9095 26.3358 65.2056 26.0726 65.4524C25.8094 65.6992 25.4804 65.8308 25.1185 65.8308ZM24.0327 78.4811V67.5087H26.1877V78.4811H24.0327Z" fill="white"/>
<path d="M33.0326 78.7118C32.243 78.7118 31.5356 78.5966 30.9105 78.3663C30.2854 78.136 29.7919 77.807 29.397 77.3464C29.0022 76.9022 28.739 76.3429 28.6074 75.7014L30.6473 75.2737C30.7953 75.8494 31.075 76.2607 31.4862 76.5403C31.8975 76.82 32.4239 76.9516 33.049 76.9516C33.7399 76.9516 34.2993 76.8035 34.7105 76.5074C35.1218 76.2113 35.3356 75.8659 35.3356 75.4546C35.3356 75.1092 35.204 74.813 34.9573 74.5827C34.7105 74.3524 34.3157 74.1879 33.7893 74.0728L31.9469 73.6451C30.9269 73.4148 30.1702 73.0529 29.6767 72.5429C29.1832 72.0329 28.9364 71.3914 28.9364 70.6018C28.9364 69.9437 29.1174 69.368 29.4793 68.8909C29.8412 68.3974 30.3512 68.019 30.9763 67.7394C31.6178 67.4762 32.3417 67.3281 33.1806 67.3281C34.0196 67.3281 34.6447 67.4433 35.204 67.6736C35.7633 67.9039 36.2239 68.2164 36.5694 68.6277C36.9149 69.039 37.1781 69.516 37.3261 70.0589L35.385 70.4866C35.2534 70.1082 35.0066 69.7628 34.6612 69.4667C34.3157 69.1706 33.8222 69.0225 33.1806 69.0225C32.5884 69.0225 32.0949 69.1541 31.6836 69.4173C31.2888 69.6805 31.0914 70.026 31.0914 70.4372C31.0914 70.7992 31.223 71.0953 31.4862 71.3256C31.7494 71.5559 32.1772 71.7368 32.7858 71.8684L34.546 72.2632C35.5659 72.4935 36.3062 72.8555 36.7997 73.349C37.2932 73.8425 37.54 74.4676 37.54 75.2408C37.54 75.9152 37.3426 76.491 36.9642 77.0174C36.5859 77.5274 36.0594 77.9386 35.3685 78.2183C34.6941 78.5144 33.9044 78.6624 33.0161 78.6624L33.0326 78.7118Z" fill="white"/>
<path d="M43.001 78.7294C42.3101 78.7294 41.685 78.5978 41.1092 78.3346C40.5499 78.0713 40.1057 77.693 39.7767 77.1995C39.4477 76.706 39.2832 76.0973 39.2832 75.3735C39.2832 74.7484 39.3984 74.2384 39.6451 73.8436C39.8919 73.4488 40.2044 73.1198 40.6157 72.8895C41.0269 72.6592 41.4876 72.4782 41.9811 72.3631C42.4746 72.2479 42.9845 72.1492 43.511 72.0999C44.1525 72.0176 44.6789 71.9518 45.0902 71.9025C45.5014 71.8531 45.7976 71.7709 45.995 71.6557C46.1924 71.5405 46.2911 71.3596 46.2911 71.0964V71.0306C46.2911 70.6193 46.2088 70.2739 46.0608 69.9942C45.9127 69.7146 45.666 69.5007 45.3534 69.3362C45.0408 69.1881 44.6625 69.1059 44.1854 69.1059C43.7084 69.1059 43.2971 69.1717 42.9516 69.3197C42.6062 69.4678 42.3265 69.6488 42.1127 69.8791C41.8988 70.1094 41.7343 70.3397 41.6356 70.6029L39.6122 70.0765C39.859 69.4185 40.2209 68.892 40.6815 68.4972C41.1421 68.1024 41.685 67.8063 42.2772 67.6254C42.8858 67.4444 43.4945 67.3457 44.1361 67.3457C44.5802 67.3457 45.0573 67.3951 45.5508 67.5102C46.0443 67.6089 46.5214 67.8063 46.9491 68.086C47.3932 68.3656 47.7387 68.744 48.0184 69.2375C48.298 69.731 48.4296 70.389 48.4296 71.1786V78.4662H46.3404V76.9692H46.2253C46.0772 77.2488 45.8634 77.5285 45.5837 77.7917C45.304 78.0549 44.9421 78.2852 44.5144 78.4497C44.0867 78.6307 43.5768 78.7129 42.9845 78.7129L43.001 78.7294ZM43.4781 77.0021C44.0703 77.0021 44.5638 76.8869 44.9915 76.6566C45.4027 76.4263 45.7318 76.1302 45.9456 75.7518C46.1759 75.3735 46.2746 74.9622 46.2746 74.551V73.1527C46.2746 73.1527 46.0443 73.3007 45.8305 73.3665C45.6166 73.4323 45.3534 73.4817 45.0737 73.531C44.7941 73.5804 44.5144 73.6133 44.2512 73.6462C43.988 73.6791 43.7742 73.712 43.6096 73.7285C43.1984 73.7778 42.8365 73.8765 42.491 73.9917C42.1456 74.1233 41.8824 74.2878 41.685 74.5181C41.4876 74.7484 41.3888 75.0445 41.3888 75.4393C41.3888 75.7847 41.4711 76.0809 41.6521 76.3112C41.833 76.5415 42.0798 76.7224 42.3759 76.8376C42.6884 76.9527 43.0339 77.0185 43.4451 77.0185L43.4781 77.0021Z" fill="white"/>
<path d="M55.2709 78.7118C54.4812 78.7118 53.7739 78.5966 53.1488 78.3663C52.5236 78.136 52.0301 77.807 51.6353 77.3464C51.2405 76.9022 50.9773 76.3429 50.8457 75.7014L52.8691 75.2737C53.0172 75.8494 53.2968 76.2607 53.7081 76.5403C54.1193 76.82 54.6457 76.9516 55.2709 76.9516C55.9618 76.9516 56.5211 76.8035 56.9324 76.5074C57.3436 76.2113 57.5575 75.8659 57.5575 75.4546C57.5575 75.1092 57.4259 74.813 57.1791 74.5827C56.9323 74.3524 56.5375 74.1879 56.0111 74.0728L54.1687 73.6451C53.1488 73.4148 52.392 73.0529 51.8985 72.5429C51.405 72.0329 51.1583 71.3914 51.1583 70.6018C51.1583 69.9437 51.3392 69.368 51.7011 68.8909C52.063 68.4138 52.573 68.019 53.1981 67.7394C53.8397 67.4762 54.5635 67.3281 55.4025 67.3281C56.2414 67.3281 56.8665 67.4433 57.4259 67.6736C57.9852 67.9039 58.4458 68.2164 58.7912 68.6277C59.1367 69.039 59.3999 69.516 59.548 70.0589L57.6068 70.4866C57.4752 70.1082 57.2284 69.7628 56.883 69.4667C56.5375 69.1706 56.044 69.0225 55.4025 69.0225C54.8103 69.0225 54.3167 69.1541 53.9055 69.4173C53.5107 69.6805 53.3133 70.026 53.3133 70.4372C53.3133 70.7992 53.4449 71.0953 53.7081 71.3256C53.9713 71.5559 54.399 71.7368 55.0076 71.8684L56.7678 72.2632C57.7878 72.4935 58.528 72.8555 59.0215 73.349C59.5151 73.8425 59.7618 74.4676 59.7618 75.2408C59.7618 75.9152 59.5644 76.491 59.186 77.0174C58.8077 77.5274 58.2813 77.9386 57.5904 78.2183C56.9159 78.5144 56.1263 78.6624 55.238 78.6624L55.2709 78.7118Z" fill="white"/>
<path d="M66.8535 67.5113V69.2715H60.8984V67.5113H66.8535ZM62.5106 64.9121H64.6656V75.5391C64.6656 75.9832 64.7643 76.2958 64.9452 76.5096C65.1262 76.7235 65.4387 76.8222 65.8665 76.8222C65.9816 76.8222 66.1297 76.8222 66.3106 76.7893C66.4916 76.7564 66.6561 76.7399 66.7877 76.707L67.166 78.4343C66.9357 78.5166 66.689 78.5659 66.4258 78.5988C66.1626 78.6317 65.8994 78.6482 65.6526 78.6482C64.6656 78.6482 63.8924 78.385 63.3331 77.875C62.7902 77.365 62.5106 76.6412 62.5106 75.7036V64.9121Z" fill="white"/>
<path d="M69.0059 78.4826V67.5102H71.0951V69.2704H71.2102C71.4076 68.6617 71.7695 68.2011 72.263 67.8557C72.773 67.5102 73.3323 67.3457 73.9739 67.3457C74.1055 67.3457 74.27 67.3457 74.4509 67.3457C74.6319 67.3457 74.7799 67.3786 74.8951 67.3951V69.4514C74.8951 69.4514 74.6648 69.402 74.4509 69.3691C74.2206 69.3362 74.0068 69.3362 73.7765 69.3362C73.283 69.3362 72.8388 69.4349 72.4275 69.6488C72.0327 69.8626 71.7202 70.1423 71.4899 70.5206C71.2596 70.8825 71.1609 71.3102 71.1609 71.8038V78.4662H69.0059V78.4826Z" fill="white"/>
<path d="M81.1324 78.7132C80.0467 78.7132 79.1255 78.4829 78.3359 78.0223C77.5463 77.5617 76.954 76.9037 76.5263 76.0647C76.0986 75.2257 75.8848 74.2223 75.8848 73.0872C75.8848 71.9521 76.0986 70.9651 76.5099 70.1097C76.9211 69.2542 77.5133 68.5798 78.2701 68.1027C79.0268 67.6257 79.9151 67.3789 80.935 67.3789C81.5601 67.3789 82.1688 67.4776 82.7446 67.6915C83.3203 67.9053 83.8467 68.2179 84.3238 68.662C84.7844 69.1062 85.1628 69.6655 85.426 70.3729C85.7056 71.0638 85.8373 71.9192 85.8373 72.9062V73.6794H77.0856V72.0673H84.7186L83.7152 72.5937C83.7152 71.9192 83.6164 71.327 83.4026 70.817C83.1887 70.3071 82.8762 69.8958 82.4814 69.6162C82.0701 69.3201 81.5601 69.1884 80.9515 69.1884C80.3428 69.1884 79.8164 69.3365 79.3887 69.6326C78.961 69.9287 78.632 70.3071 78.4017 70.8006C78.1714 71.2776 78.0562 71.8041 78.0562 72.3798V73.482C78.0562 74.2387 78.1878 74.8638 78.451 75.3902C78.7142 75.9167 79.0761 76.295 79.5368 76.5747C79.9974 76.8543 80.5402 76.9695 81.1489 76.9695C81.5601 76.9695 81.9221 76.9201 82.2511 76.805C82.5801 76.6898 82.8597 76.5253 83.1065 76.2786C83.3368 76.0483 83.5177 75.7521 83.6493 75.4231L85.6892 75.9002C85.5082 76.4595 85.2121 76.953 84.8009 77.3972C84.3896 77.8249 83.8632 78.1704 83.2545 78.4007C82.6294 78.631 81.9385 78.7626 81.1489 78.7626L81.1324 78.7132Z" fill="white"/>
<path d="M92.9254 78.7132C91.8397 78.7132 90.9185 78.4829 90.1289 78.0223C89.3392 77.5617 88.747 76.9037 88.3193 76.0647C87.8916 75.2257 87.6777 74.2223 87.6777 73.0872C87.6777 71.9521 87.8916 70.9651 88.3029 70.1097C88.7141 69.2542 89.3063 68.5798 90.063 68.1027C90.8198 67.6257 91.7081 67.3789 92.728 67.3789C93.3531 67.3789 93.9618 67.4776 94.5375 67.6915C95.1133 67.9053 95.6397 68.2179 96.1168 68.662C96.5774 69.1062 96.9558 69.6655 97.219 70.3729C97.4986 71.0638 97.6302 71.9192 97.6302 72.9062V73.6794H88.8786V72.0673H96.5116L95.5081 72.5937C95.5081 71.9192 95.4094 71.327 95.1956 70.817C94.9817 70.3071 94.6691 69.8958 94.2743 69.6162C93.8631 69.3201 93.3531 69.1884 92.7445 69.1884C92.1358 69.1884 91.6094 69.3365 91.1817 69.6326C90.754 69.9287 90.4249 70.3071 90.1946 70.8006C89.9643 71.2776 89.8492 71.8041 89.8492 72.3798V73.482C89.8492 74.2387 89.9808 74.8638 90.244 75.3902C90.5072 75.9167 90.8691 76.295 91.3297 76.5747C91.7903 76.8543 92.3332 76.9695 92.9419 76.9695C93.3531 76.9695 93.715 76.9201 94.044 76.805C94.373 76.6898 94.6527 76.5253 94.8995 76.2786C95.1298 76.0483 95.3107 75.7521 95.4423 75.4231L97.4822 75.9002C97.3012 76.4595 97.0051 76.953 96.5938 77.3972C96.1826 77.8249 95.6562 78.1704 95.0475 78.4007C94.4224 78.631 93.7315 78.7626 92.9419 78.7626L92.9254 78.7132Z" fill="white"/>
<path d="M104.705 67.5113V69.2715H98.75V67.5113H104.705ZM100.346 64.9121H102.501V75.5391C102.501 75.9832 102.599 76.2958 102.78 76.5096C102.961 76.7235 103.274 76.8222 103.702 76.8222C103.817 76.8222 103.965 76.8222 104.146 76.7893C104.327 76.7564 104.491 76.7399 104.623 76.707L105.001 78.4343C104.771 78.5166 104.524 78.5659 104.261 78.5988C103.998 78.6317 103.734 78.6482 103.488 78.6482C102.501 78.6482 101.728 78.385 101.168 77.875C100.625 77.365 100.346 76.6412 100.346 75.7036V64.9121Z" fill="white"/>
<path d="M43.3117 83.5645V88.7463H42.7853V84.6008L40.7455 88.0883H40.4823L38.4424 84.6173V88.7463H37.916V83.5645H38.3766L40.6303 87.4138L42.8511 83.5645H43.2953H43.3117Z" fill="white"/>
<path d="M44.5293 86.1633C44.5293 84.6499 45.6808 83.5312 47.2601 83.5312C48.8393 83.5312 49.9744 84.6499 49.9744 86.1633C49.9744 87.6767 48.8064 88.7954 47.2601 88.7954C45.7137 88.7954 44.5293 87.6767 44.5293 86.1633ZM49.4315 86.1633C49.4315 84.9295 48.5103 84.0083 47.2601 84.0083C46.0098 84.0083 45.0721 84.9131 45.0721 86.1633C45.0721 87.4135 46.0098 88.3019 47.2601 88.3019C48.5103 88.3019 49.4315 87.3971 49.4315 86.1633Z" fill="white"/>
<path d="M55.5335 83.5645V88.7463H55.0893L51.7499 84.535V88.7463H51.207V83.5645H51.6676L55.0071 87.7758V83.5645H55.5499H55.5335Z" fill="white"/>
<path d="M60.6176 88.0368V88.5139H56.9492V83.332H60.5025V83.8091H57.4921V85.6515H60.1735V86.1121H57.4921V88.0368H60.6012H60.6176Z" fill="white"/>
<path d="M63.8578 86.9532V88.7463H63.3149V86.9532L61.2422 83.5645H61.8344L63.611 86.4762L65.3877 83.5645H65.9305L63.8578 86.9532Z" fill="white"/>
<path d="M76.0461 83.5645V88.7463H75.5197V84.6008L73.4799 88.0883H73.2166L71.1768 84.6173V88.7463H70.6504V83.5645H71.111L73.3647 87.4138L75.5855 83.5645H76.0297H76.0461Z" fill="white"/>
<path d="M80.9653 87.3645H78.07L77.4449 88.7463H76.8691L79.238 83.5645H79.7809L82.1497 88.7463H81.574L80.9488 87.3645H80.9653ZM80.7679 86.9203L79.5177 84.1402L78.2674 86.9203H80.7514H80.7679Z" fill="white"/>
<path d="M83.7635 84.0415H81.9375V83.5645H86.1324V84.0415H84.3064V88.7463H83.7635V84.0415Z" fill="white"/>
<path d="M88.0916 84.0415H86.2656V83.5645H90.4605V84.0415H88.6345V88.7463H88.0916V84.0415Z" fill="white"/>
<path d="M94.9985 88.2693V88.7463H91.3301V83.5645H94.8834V84.0415H91.8729V85.884H94.5544V86.3446H91.8729V88.2693H94.9821H94.9985Z" fill="white"/>
<path d="M99.82 88.7463L98.6356 87.0848C98.504 87.0848 98.3724 87.1013 98.2243 87.1013H96.8261V88.7463H96.2832V83.5645H98.2243C99.5404 83.5645 100.346 84.2389 100.346 85.3411C100.346 86.1636 99.9187 86.7229 99.162 86.9697L100.429 88.7463H99.8365H99.82ZM99.7871 85.3411C99.7871 84.5186 99.2443 84.0415 98.2079 84.0415H96.8261V86.6407H98.2079C99.2443 86.6407 99.7871 86.1636 99.7871 85.3411Z" fill="white"/>
<path d="M101.117 88.1217L101.331 87.694C101.709 88.0559 102.367 88.3191 103.042 88.3191C104.012 88.3191 104.44 87.9079 104.44 87.3979C104.44 85.9832 101.249 86.8551 101.249 84.9304C101.249 84.1736 101.841 83.5156 103.157 83.5156C103.749 83.5156 104.341 83.6801 104.769 83.9762L104.588 84.4204C104.144 84.1243 103.634 83.9927 103.173 83.9927C102.219 83.9927 101.808 84.4204 101.808 84.9304C101.808 86.3451 104.999 85.4897 104.999 87.3815C104.999 88.1382 104.391 88.7962 103.075 88.7962C102.302 88.7962 101.528 88.5165 101.15 88.1217H101.117Z" fill="white"/>
<defs>
<linearGradient id="paint0_linear_5053_1100" x1="71.5176" y1="42.1713" x2="75.9112" y2="42.1713" gradientUnits="userSpaceOnUse">
<stop stop-color="white"/>
<stop offset="1" stop-color="#E6E6E6"/>
</linearGradient>
<linearGradient id="paint1_linear_5053_1100" x1="28.3516" y1="19.7457" x2="32.7644" y2="19.7457" gradientUnits="userSpaceOnUse">
<stop stop-color="white"/>
<stop offset="1" stop-color="#E6E6E6"/>
</linearGradient>
<linearGradient id="paint2_linear_5053_1100" x1="57.3242" y1="49.2513" x2="21.5803" y2="49.2513" gradientUnits="userSpaceOnUse">
<stop stop-color="white"/>
<stop offset="1" stop-color="#E6E6E6"/>
</linearGradient>
<linearGradient id="paint3_linear_5053_1100" x1="28.3516" y1="34.6713" x2="53.6774" y2="34.6713" gradientUnits="userSpaceOnUse">
<stop stop-color="white"/>
<stop offset="1" stop-color="#E6E6E6"/>
</linearGradient>
<linearGradient id="paint4_linear_5053_1100" x1="28.3516" y1="8.7904" x2="59.51" y2="8.7904" gradientUnits="userSpaceOnUse">
<stop stop-color="white"/>
<stop offset="1" stop-color="#E6E6E6"/>
</linearGradient>
<linearGradient id="paint5_linear_5053_1100" x1="60.9492" y1="34.6713" x2="21.5791" y2="34.6713" gradientUnits="userSpaceOnUse">
<stop stop-color="white"/>
<stop offset="1" stop-color="#E6E6E6"/>
</linearGradient>
<linearGradient id="paint6_linear_5053_1100" x1="55.1191" y1="29.0127" x2="59.5128" y2="29.0127" gradientUnits="userSpaceOnUse">
<stop stop-color="white"/>
<stop offset="1" stop-color="#E6E6E6"/>
</linearGradient>
</defs>
</svg>
