<svg width="105" height="79" viewBox="0 0 105 79" fill="none" xmlns="http://www.w3.org/2000/svg">
<path d="M35.4103 40.4492C35.6918 40.4492 35.9477 40.4987 36.2035 40.5978C36.4594 40.6968 36.6641 40.8453 36.8688 41.0186C37.0735 41.1919 37.2015 41.4147 37.3038 41.6623C37.4062 41.9099 37.4574 42.1574 37.4574 42.4298C37.4574 42.7021 37.4062 42.9497 37.3038 43.1972C37.2015 43.4448 37.048 43.6429 36.8688 43.8409C36.6897 44.0142 36.4594 44.1627 36.2035 44.2618C35.9477 44.3608 35.6918 44.4103 35.4103 44.4103C35.1289 44.4103 34.873 44.3608 34.6171 44.2618C34.3612 44.1627 34.1565 44.0142 33.9518 43.8409C33.7471 43.6676 33.6192 43.4448 33.5168 43.1972C33.4145 42.9497 33.3633 42.7021 33.3633 42.4298C33.3633 42.1574 33.4145 41.9099 33.5168 41.6623C33.6192 41.4147 33.7727 41.2167 33.9518 41.0186C34.1309 40.8206 34.3612 40.6968 34.6171 40.5978C34.873 40.4987 35.1289 40.4492 35.4103 40.4492Z" fill="white"/>
<path d="M29.7814 33.0508C30.0629 33.0508 30.3188 33.1003 30.5746 33.1993C30.8305 33.2983 31.0352 33.4469 31.2399 33.6202C31.419 33.7935 31.5726 34.0163 31.6749 34.2639C31.7773 34.5114 31.8285 34.759 31.8285 35.0313C31.8285 35.3037 31.7773 35.5512 31.6749 35.7988C31.5726 36.0464 31.419 36.2444 31.2399 36.4425C31.0608 36.6158 30.8305 36.7643 30.5746 36.8633C30.3188 36.9624 30.0629 37.0119 29.7814 37.0119C29.4999 37.0119 29.2441 36.9624 28.9882 36.8633C28.7323 36.7643 28.5276 36.6158 28.3229 36.4425C28.1438 36.2692 27.9903 36.0464 27.8879 35.7988C27.7856 35.5512 27.7344 35.3037 27.7344 35.0313C27.7344 34.759 27.7856 34.5114 27.8879 34.2639C27.9903 34.0163 28.1438 33.8182 28.3229 33.6202C28.502 33.4469 28.7323 33.2983 28.9882 33.1993C29.2441 33.1003 29.4999 33.0508 29.7814 33.0508Z" fill="white"/>
<path d="M37.4435 31.5898C37.725 31.5898 37.9809 31.6394 38.2368 31.7384C38.4926 31.8374 38.6973 31.986 38.902 32.1593C39.0812 32.3325 39.2347 32.5554 39.337 32.8029C39.4394 33.0505 39.4906 33.2981 39.4906 33.5704C39.4906 33.8427 39.4394 34.0903 39.337 34.3379C39.2347 34.5854 39.0812 34.7835 38.902 34.9815C38.7229 35.1796 38.4926 35.3034 38.2368 35.4024C37.9809 35.5014 37.725 35.5509 37.4435 35.5509C37.1621 35.5509 36.9062 35.5014 36.6503 35.4024C36.3944 35.3034 36.1897 35.1548 35.985 34.9815C35.8059 34.8082 35.6524 34.5854 35.55 34.3379C35.4477 34.0903 35.3965 33.8427 35.3965 33.5704C35.3965 33.2981 35.4477 33.0505 35.55 32.8029C35.6524 32.5554 35.8059 32.3573 35.985 32.1593C36.1641 31.986 36.3944 31.8374 36.6503 31.7384C36.9062 31.6394 37.1621 31.5898 37.4435 31.5898Z" fill="white"/>
<path d="M52.7365 37.5059C53.018 37.5059 53.2738 37.5554 53.5297 37.6544C53.7856 37.7534 53.9903 37.902 54.195 38.0753C54.3741 38.2486 54.5277 38.4714 54.63 38.7189C54.7324 38.9665 54.7835 39.2141 54.7835 39.4864C54.7835 39.7587 54.7324 40.0063 54.63 40.2539C54.5277 40.5014 54.3741 40.6995 54.195 40.8976C54.0159 41.0709 53.7856 41.2194 53.5297 41.3184C53.2738 41.4174 53.018 41.467 52.7365 41.467C52.455 41.467 52.1991 41.4174 51.9433 41.3184C51.6874 41.2194 51.4827 41.0709 51.278 40.8976C51.0989 40.7243 50.9453 40.5014 50.843 40.2539C50.7406 40.0063 50.6895 39.7587 50.6895 39.4864C50.6895 39.2141 50.7406 38.9665 50.843 38.7189C50.9453 38.4714 51.0989 38.2733 51.278 38.0753C51.4571 37.902 51.6874 37.7534 51.9433 37.6544C52.1991 37.5554 52.455 37.5059 52.7365 37.5059Z" fill="white"/>
<path d="M37.9455 23.6953C38.2269 23.6953 38.4828 23.7448 38.7387 23.8439C38.9946 23.9429 39.1993 24.0914 39.404 24.2647C39.5831 24.438 39.7366 24.6608 39.839 24.9084C39.9413 25.156 39.9925 25.4035 39.9925 25.6759C39.9925 25.9482 39.9413 26.1958 39.839 26.4433C39.7366 26.6909 39.5831 26.889 39.404 27.087C39.2249 27.2603 38.9946 27.4088 38.7387 27.5079C38.4828 27.6069 38.2269 27.6564 37.9455 27.6564C37.664 27.6564 37.4081 27.6069 37.1522 27.5079C36.8964 27.4088 36.6917 27.2603 36.487 27.087C36.3078 26.9137 36.1543 26.6909 36.052 26.4433C35.9496 26.1958 35.8984 25.9482 35.8984 25.6759C35.8984 25.4035 35.9496 25.156 36.052 24.9084C36.1543 24.6608 36.3078 24.4628 36.487 24.2647C36.6661 24.0914 36.8964 23.9429 37.1522 23.8439C37.4081 23.7448 37.664 23.6953 37.9455 23.6953Z" fill="white"/>
<path d="M27.7677 23.6953C28.0492 23.6953 28.3051 23.7448 28.561 23.8439C28.8169 23.9429 29.0216 24.0914 29.2263 24.2647C29.4054 24.438 29.5589 24.6608 29.6613 24.9084C29.7636 25.156 29.8148 25.4035 29.8148 25.6759C29.8148 25.9482 29.7636 26.1958 29.6613 26.4433C29.5589 26.6909 29.4054 26.889 29.2263 27.087C29.0471 27.2603 28.8169 27.4088 28.561 27.5079C28.3051 27.6069 28.0492 27.6564 27.7677 27.6564C27.4863 27.6564 27.2304 27.6069 26.9745 27.5079C26.7186 27.4088 26.5139 27.2603 26.3092 27.087C26.1301 26.9137 25.9766 26.6909 25.8742 26.4433C25.7719 26.1958 25.7207 25.9482 25.7207 25.6759C25.7207 25.4035 25.7719 25.156 25.8742 24.9084C25.9766 24.6608 26.1301 24.4628 26.3092 24.2647C26.4883 24.0914 26.7186 23.9429 26.9745 23.8439C27.2304 23.7448 27.4863 23.6953 27.7677 23.6953Z" fill="white"/>
<path d="M29.7814 14.3086C30.0629 14.3086 30.3188 14.3581 30.5746 14.4571C30.8305 14.5562 31.0352 14.7047 31.2399 14.878C31.419 15.0513 31.5726 15.2741 31.6749 15.5217C31.7773 15.7692 31.8285 16.0168 31.8285 16.2891C31.8285 16.5615 31.7773 16.809 31.6749 17.0566C31.5726 17.3042 31.419 17.5022 31.2399 17.7003C31.0608 17.8736 30.8305 18.0221 30.5746 18.1212C30.3188 18.2202 30.0629 18.2697 29.7814 18.2697C29.4999 18.2697 29.2441 18.2202 28.9882 18.1212C28.7323 18.0221 28.5276 17.8736 28.3229 17.7003C28.1438 17.527 27.9903 17.3042 27.8879 17.0566C27.7856 16.809 27.7344 16.5615 27.7344 16.2891C27.7344 16.0168 27.7856 15.7692 27.8879 15.5217C27.9903 15.2741 28.1438 15.0761 28.3229 14.878C28.502 14.7047 28.7323 14.5562 28.9882 14.4571C29.2441 14.3581 29.4999 14.3086 29.7814 14.3086Z" fill="white"/>
<path d="M34.8986 6.40625C35.1801 6.40625 35.436 6.45576 35.6918 6.55479C35.9477 6.65382 36.1524 6.80236 36.3571 6.97566C36.5362 7.14896 36.6898 7.37177 36.7921 7.61934C36.8945 7.86691 36.9456 8.11448 36.9456 8.3868C36.9456 8.65913 36.8945 8.9067 36.7921 9.15426C36.6898 9.40183 36.5362 9.59989 36.3571 9.79794C36.178 9.97124 35.9477 10.1198 35.6918 10.2188C35.436 10.3178 35.1801 10.3674 34.8986 10.3674C34.6171 10.3674 34.3613 10.3178 34.1054 10.2188C33.8495 10.1198 33.6448 9.97124 33.4401 9.79794C33.261 9.62464 33.1074 9.40183 33.0051 9.15426C32.9027 8.9067 32.8516 8.65913 32.8516 8.3868C32.8516 8.11448 32.9027 7.86691 33.0051 7.61934C33.1074 7.37177 33.261 7.17371 33.4401 6.97566C33.6192 6.80236 33.8495 6.65382 34.1054 6.55479C34.3613 6.45576 34.6171 6.40625 34.8986 6.40625Z" fill="white"/>
<path d="M43.0724 1.48438C43.3539 1.48438 43.6098 1.53389 43.8657 1.63292C44.1215 1.73194 44.3262 1.88049 44.5309 2.05378C44.7101 2.22708 44.8636 2.44989 44.9659 2.69746C45.0683 2.94503 45.1195 3.1926 45.1195 3.46493C45.1195 3.73725 45.0683 3.98482 44.9659 4.23239C44.8636 4.47996 44.7101 4.67801 44.5309 4.87607C44.3518 5.04937 44.1215 5.19791 43.8657 5.29694C43.6098 5.39596 43.3539 5.44548 43.0724 5.44548C42.791 5.44548 42.5351 5.39596 42.2792 5.29694C42.0233 5.19791 41.8186 5.04937 41.6139 4.87607C41.4348 4.70277 41.2813 4.47996 41.1789 4.23239C41.0766 3.98482 41.0254 3.73725 41.0254 3.46493C41.0254 3.1926 41.0766 2.94503 41.1789 2.69746C41.2813 2.44989 41.4348 2.25184 41.6139 2.05378C41.793 1.88049 42.0233 1.73194 42.2792 1.63292C42.5351 1.53389 42.791 1.48438 43.0724 1.48438Z" fill="white"/>
<path d="M52.7365 0C53.018 0 53.2738 0.0495138 53.5297 0.148541C53.7856 0.247569 53.9903 0.39611 54.195 0.569408C54.3741 0.742707 54.5277 0.965519 54.63 1.21309C54.7324 1.46066 54.7835 1.70823 54.7835 1.98055C54.7835 2.25288 54.7324 2.50045 54.63 2.74801C54.5277 2.99558 54.3741 3.19364 54.195 3.39169C54.0159 3.56499 53.7856 3.71353 53.5297 3.81256C53.2738 3.91159 53.018 3.9611 52.7365 3.9611C52.455 3.9611 52.1991 3.91159 51.9433 3.81256C51.6874 3.71353 51.4827 3.56499 51.278 3.39169C51.0989 3.2184 50.9453 2.99558 50.843 2.74801C50.7406 2.50045 50.6895 2.25288 50.6895 1.98055C50.6895 1.70823 50.7406 1.46066 50.843 1.21309C50.9453 0.965519 51.0989 0.767463 51.278 0.569408C51.4571 0.39611 51.6874 0.247569 51.9433 0.148541C52.2247 0.0495138 52.4806 0 52.7365 0Z" fill="white"/>
<path d="M61.922 1.48438C62.2035 1.48438 62.4594 1.53389 62.7153 1.63292C62.9711 1.73194 63.1759 1.88049 63.3806 2.05378C63.5597 2.22708 63.7132 2.44989 63.8156 2.69746C63.9179 2.94503 63.9691 3.1926 63.9691 3.46493C63.9691 3.73725 63.9179 3.98482 63.8156 4.23239C63.7132 4.47996 63.5597 4.67801 63.3806 4.87607C63.2014 5.04937 62.9711 5.19791 62.7153 5.29694C62.4594 5.39596 62.2035 5.44548 61.922 5.44548C61.6406 5.44548 61.3847 5.39596 61.1288 5.29694C60.8729 5.19791 60.6682 5.04937 60.4635 4.87607C60.2844 4.70277 60.1309 4.47996 60.0285 4.23239C59.9262 3.98482 59.875 3.73725 59.875 3.46493C59.875 3.1926 59.9262 2.94503 60.0285 2.69746C60.1309 2.44989 60.2844 2.25184 60.4635 2.05378C60.6426 1.88049 60.8729 1.73194 61.1288 1.63292C61.3847 1.53389 61.6406 1.48438 61.922 1.48438Z" fill="white"/>
<path d="M69.5685 5.91992C69.85 5.91992 70.1059 5.96944 70.3618 6.06846C70.6176 6.16749 70.8223 6.31603 71.027 6.48933C71.2062 6.66263 71.3597 6.88544 71.462 7.13301C71.5644 7.38058 71.6156 7.62815 71.6156 7.90047C71.6156 8.1728 71.5644 8.42037 71.462 8.66794C71.3597 8.9155 71.2062 9.11356 71.027 9.31161C70.8479 9.48491 70.6176 9.63345 70.3618 9.73248C70.1059 9.83151 69.85 9.88102 69.5685 9.88102C69.2871 9.88102 69.0312 9.83151 68.7753 9.73248C68.5194 9.63345 68.3147 9.48491 68.11 9.31161C67.9309 9.13832 67.7774 8.9155 67.675 8.66794C67.5727 8.42037 67.5215 8.1728 67.5215 7.90047C67.5215 7.62815 67.5727 7.38058 67.675 7.13301C67.7774 6.88544 67.9309 6.68738 68.11 6.48933C68.2891 6.31603 68.5194 6.16749 68.7753 6.06846C69.0312 5.96944 69.2871 5.91992 69.5685 5.91992Z" fill="white"/>
<path d="M75.1759 14.3086C75.4574 14.3086 75.7133 14.3581 75.9692 14.4571C76.2251 14.5562 76.4298 14.7047 76.6345 14.878C76.8136 15.0513 76.9671 15.2741 77.0695 15.5217C77.1718 15.7692 77.223 16.0168 77.223 16.2891C77.223 16.5615 77.1718 16.809 77.0695 17.0566C76.9671 17.3042 76.8136 17.5022 76.6345 17.7003C76.4553 17.8736 76.2251 18.0221 75.9692 18.1212C75.7133 18.2202 75.4574 18.2697 75.1759 18.2697C74.8945 18.2697 74.6386 18.2202 74.3827 18.1212C74.1268 18.0221 73.9221 17.8736 73.7174 17.7003C73.5383 17.527 73.3848 17.3042 73.2824 17.0566C73.1801 16.809 73.1289 16.5615 73.1289 16.2891C73.1289 16.0168 73.1801 15.7692 73.2824 15.5217C73.3848 15.2741 73.5383 15.0761 73.7174 14.878C73.8965 14.7047 74.1268 14.5562 74.3827 14.4571C74.6386 14.3581 74.8945 14.3086 75.1759 14.3086Z" fill="white"/>
<path d="M77.2326 23.6953C77.5141 23.6953 77.7699 23.7448 78.0258 23.8439C78.2817 23.9429 78.4864 24.0914 78.6911 24.2647C78.8702 24.438 79.0238 24.6608 79.1261 24.9084C79.2285 25.156 79.2796 25.4035 79.2796 25.6759C79.2796 25.9482 79.2285 26.1958 79.1261 26.4433C79.0238 26.6909 78.8702 26.889 78.6911 27.087C78.512 27.2603 78.2817 27.4088 78.0258 27.5079C77.7699 27.6069 77.5141 27.6564 77.2326 27.6564C76.9511 27.6564 76.6952 27.6069 76.4394 27.5079C76.1835 27.4088 75.9788 27.2603 75.7741 27.087C75.595 26.9137 75.4414 26.6909 75.3391 26.4433C75.2367 26.1958 75.1855 25.9482 75.1855 25.6759C75.1855 25.4035 75.2367 25.156 75.3391 24.9084C75.4414 24.6608 75.595 24.4628 75.7741 24.2647C75.9532 24.0914 76.1835 23.9429 76.4394 23.8439C76.6952 23.7448 76.9511 23.6953 77.2326 23.6953Z" fill="white"/>
<path d="M75.1759 32.5527C75.4574 32.5527 75.7133 32.6022 75.9692 32.7013C76.2251 32.8003 76.4298 32.9488 76.6345 33.1221C76.8136 33.2954 76.9671 33.5183 77.0695 33.7658C77.1718 34.0134 77.223 34.261 77.223 34.5333C77.223 34.8056 77.1718 35.0532 77.0695 35.3007C76.9671 35.5483 76.8136 35.7464 76.6345 35.9444C76.4553 36.1177 76.2251 36.2663 75.9692 36.3653C75.7133 36.4643 75.4574 36.5138 75.1759 36.5138C74.8945 36.5138 74.6386 36.4643 74.3827 36.3653C74.1268 36.2663 73.9221 36.1177 73.7174 35.9444C73.5383 35.7711 73.3848 35.5483 73.2824 35.3007C73.1801 35.0532 73.1289 34.8056 73.1289 34.5333C73.1289 34.261 73.1801 34.0134 73.2824 33.7658C73.3848 33.5183 73.5383 33.3202 73.7174 33.1221C73.8965 32.9488 74.1268 32.8003 74.3827 32.7013C74.6386 32.6022 74.8945 32.5527 75.1759 32.5527Z" fill="white"/>
<path d="M70.0861 40.4492C70.3676 40.4492 70.6234 40.4987 70.8793 40.5978C71.1352 40.6968 71.3399 40.8453 71.5446 41.0186C71.7237 41.1919 71.8773 41.4147 71.9796 41.6623C72.082 41.9099 72.1331 42.1574 72.1331 42.4298C72.1331 42.7021 72.082 42.9497 71.9796 43.1972C71.8773 43.4448 71.7237 43.6429 71.5446 43.8409C71.3655 44.0142 71.1352 44.1627 70.8793 44.2618C70.6234 44.3608 70.3676 44.4103 70.0861 44.4103C69.8046 44.4103 69.5488 44.3608 69.2929 44.2618C69.037 44.1627 68.8323 44.0142 68.6276 43.8409C68.4485 43.6676 68.2949 43.4448 68.1926 43.1972C68.0902 42.9497 68.0391 42.7021 68.0391 42.4298C68.0391 42.1574 68.0902 41.9099 68.1926 41.6623C68.2949 41.4147 68.4485 41.2167 68.6276 41.0186C68.8067 40.8453 69.037 40.6968 69.2929 40.5978C69.5488 40.4987 69.8046 40.4492 70.0861 40.4492Z" fill="white"/>
<path d="M61.922 45.877C62.2035 45.877 62.4594 45.9265 62.7153 46.0255C62.9711 46.1245 63.1759 46.2731 63.3806 46.4464C63.5597 46.6197 63.7132 46.8425 63.8156 47.09C63.9179 47.3376 63.9691 47.5852 63.9691 47.8575C63.9691 48.1298 63.9179 48.3774 63.8156 48.625C63.7132 48.8725 63.5597 49.0706 63.3806 49.2686C63.2014 49.4419 62.9711 49.5905 62.7153 49.6895C62.4594 49.7885 62.2035 49.8381 61.922 49.8381C61.6406 49.8381 61.3847 49.7885 61.1288 49.6895C60.8729 49.5905 60.6682 49.4419 60.4635 49.2686C60.2844 49.0953 60.1309 48.8725 60.0285 48.625C59.9262 48.3774 59.875 48.1298 59.875 47.8575C59.875 47.5852 59.9262 47.3376 60.0285 47.09C60.1309 46.8425 60.2844 46.6444 60.4635 46.4464C60.6426 46.2731 60.8729 46.1245 61.1288 46.0255C61.3847 45.9265 61.6406 45.877 61.922 45.877Z" fill="white"/>
<path d="M52.7365 47.3594C53.018 47.3594 53.2738 47.4089 53.5297 47.5079C53.7856 47.6069 53.9903 47.7555 54.195 47.9288C54.3741 48.1021 54.5277 48.3249 54.63 48.5725C54.7324 48.82 54.7835 49.0676 54.7835 49.3399C54.7835 49.6123 54.7324 49.8598 54.63 50.1074C54.5277 50.355 54.3741 50.553 54.195 50.7511C54.0159 50.9244 53.7856 51.0729 53.5297 51.1719C53.2738 51.271 53.018 51.3205 52.7365 51.3205C52.455 51.3205 52.1991 51.271 51.9433 51.1719C51.6874 51.0729 51.4827 50.9244 51.278 50.7511C51.0989 50.5778 50.9453 50.355 50.843 50.1074C50.7406 49.8598 50.6895 49.6123 50.6895 49.3399C50.6895 49.0676 50.7406 48.82 50.843 48.5725C50.9453 48.3249 51.0989 48.1268 51.278 47.9288C51.4571 47.7555 51.6874 47.6069 51.9433 47.5079C52.1991 47.4089 52.455 47.3594 52.7365 47.3594Z" fill="white"/>
<path d="M43.5744 45.3984C43.8559 45.3984 44.1117 45.4479 44.3676 45.547C44.6235 45.646 44.8282 45.7945 45.0329 45.9678C45.212 46.1411 45.3655 46.364 45.4679 46.6115C45.5702 46.8591 45.6214 47.1067 45.6214 47.379C45.6214 47.6513 45.5702 47.8989 45.4679 48.1465C45.3655 48.394 45.212 48.5921 45.0329 48.7901C44.8538 48.9634 44.6235 49.112 44.3676 49.211C44.1117 49.31 43.8559 49.3595 43.5744 49.3595C43.2929 49.3595 43.037 49.31 42.7812 49.211C42.5253 49.112 42.3206 48.9634 42.1159 48.7901C41.9368 48.6168 41.7832 48.394 41.6809 48.1465C41.5785 47.8989 41.5273 47.6513 41.5273 47.379C41.5273 47.1067 41.5785 46.8591 41.6809 46.6115C41.7832 46.364 41.9368 46.1659 42.1159 45.9678C42.295 45.7945 42.5253 45.646 42.7812 45.547C43.037 45.4479 43.2929 45.3984 43.5744 45.3984Z" fill="white"/>
<path d="M35.4103 40.4492C35.6918 40.4492 35.9477 40.4987 36.2035 40.5978C36.4594 40.6968 36.6641 40.8453 36.8688 41.0186C37.048 41.1919 37.2015 41.4147 37.3038 41.6623C37.4062 41.9099 37.4574 42.1574 37.4574 42.4298C37.4574 42.7021 37.4062 42.9497 37.3038 43.1972C37.2015 43.4448 37.048 43.6429 36.8688 43.8409C36.6897 44.0142 36.4594 44.1627 36.2035 44.2618C35.9477 44.3608 35.6918 44.4103 35.4103 44.4103C35.1289 44.4103 34.873 44.3608 34.6171 44.2618C34.3612 44.1627 34.1565 44.0142 33.9518 43.8409C33.7727 43.6676 33.6192 43.4448 33.5168 43.1972C33.4145 42.9497 33.3633 42.7021 33.3633 42.4298C33.3633 42.1574 33.4145 41.9099 33.5168 41.6623C33.6192 41.4147 33.7727 41.2167 33.9518 41.0186C34.1309 40.8453 34.3612 40.6968 34.6171 40.5978C34.873 40.4987 35.1289 40.4492 35.4103 40.4492Z" fill="white"/>
<path d="M29.7814 33.0508C30.0629 33.0508 30.3188 33.1003 30.5746 33.1993C30.8305 33.2983 31.0352 33.4469 31.2399 33.6202C31.419 33.7935 31.5726 34.0163 31.6749 34.2639C31.7773 34.5114 31.8285 34.759 31.8285 35.0313C31.8285 35.3037 31.7773 35.5512 31.6749 35.7988C31.5726 36.0464 31.419 36.2444 31.2399 36.4425C31.0608 36.6158 30.8305 36.7643 30.5746 36.8633C30.3188 36.9624 30.0629 37.0119 29.7814 37.0119C29.4999 37.0119 29.2441 36.9624 28.9882 36.8633C28.7323 36.7643 28.5276 36.6158 28.3229 36.4425C28.1438 36.2692 27.9903 36.0464 27.8879 35.7988C27.7856 35.5512 27.7344 35.3037 27.7344 35.0313C27.7344 34.759 27.7856 34.5114 27.8879 34.2639C27.9903 34.0163 28.1438 33.8182 28.3229 33.6202C28.502 33.4469 28.7323 33.2983 28.9882 33.1993C29.2441 33.1003 29.4999 33.0508 29.7814 33.0508Z" fill="white"/>
<path d="M37.4435 31.5898C37.725 31.5898 37.9809 31.6394 38.2368 31.7384C38.4926 31.8374 38.6973 31.986 38.902 32.1593C39.0812 32.3325 39.2347 32.5554 39.337 32.8029C39.4394 33.0505 39.4906 33.2981 39.4906 33.5704C39.4906 33.8427 39.4394 34.0903 39.337 34.3379C39.2347 34.5854 39.0812 34.7835 38.902 34.9815C38.7229 35.1548 38.4926 35.3034 38.2368 35.4024C37.9809 35.5014 37.725 35.5509 37.4435 35.5509C37.1621 35.5509 36.9062 35.5014 36.6503 35.4024C36.3944 35.3034 36.1897 35.1548 35.985 34.9815C35.8059 34.8082 35.6524 34.5854 35.55 34.3379C35.4477 34.0903 35.3965 33.8427 35.3965 33.5704C35.3965 33.2981 35.4477 33.0505 35.55 32.8029C35.6524 32.5554 35.8059 32.3573 35.985 32.1593C36.1641 31.986 36.3944 31.8374 36.6503 31.7384C36.9062 31.6394 37.1621 31.5898 37.4435 31.5898Z" fill="white"/>
<path d="M44.0588 38.4961C44.3402 38.4961 44.5961 38.5456 44.852 38.6446C45.1079 38.7437 45.3126 38.8922 45.5173 39.0655C45.6964 39.2388 45.8499 39.4616 45.9523 39.7092C46.0546 39.9568 46.1058 40.2043 46.1058 40.4766C46.1058 40.749 46.0546 40.9965 45.9523 41.2441C45.8499 41.4917 45.6964 41.6897 45.5173 41.8878C45.3382 42.0611 45.1079 42.2096 44.852 42.3087C44.5961 42.4077 44.3402 42.4572 44.0588 42.4572C43.7773 42.4572 43.5214 42.4077 43.2655 42.3087C43.0097 42.2096 42.8049 42.0611 42.6002 41.8878C42.4211 41.7145 42.2676 41.4917 42.1652 41.2441C42.0629 40.9965 42.0117 40.749 42.0117 40.4766C42.0117 40.2043 42.0629 39.9568 42.1652 39.7092C42.2676 39.4616 42.4211 39.2636 42.6002 39.0655C42.7794 38.8922 43.0097 38.7437 43.2655 38.6446C43.5214 38.5456 43.7773 38.4961 44.0588 38.4961Z" fill="white"/>
<path d="M61.4103 38.4961C61.6918 38.4961 61.9477 38.5456 62.2036 38.6446C62.4594 38.7437 62.6641 38.8922 62.8688 39.0655C63.048 39.2388 63.2015 39.4616 63.3038 39.7092C63.4062 39.9568 63.4574 40.2043 63.4574 40.4766C63.4574 40.749 63.4062 40.9965 63.3038 41.2441C63.2015 41.4917 63.048 41.6897 62.8688 41.8878C62.6897 42.0611 62.4594 42.2096 62.2036 42.3087C61.9477 42.4077 61.6918 42.4572 61.4103 42.4572C61.1289 42.4572 60.873 42.4077 60.6171 42.3087C60.3612 42.2096 60.1565 42.0611 59.9518 41.8878C59.7727 41.7145 59.6192 41.4917 59.5168 41.2441C59.4145 40.9965 59.3633 40.749 59.3633 40.4766C59.3633 40.2043 59.4145 39.9568 59.5168 39.7092C59.6192 39.4616 59.7727 39.2636 59.9518 39.0655C60.1309 38.8922 60.3612 38.7437 60.6171 38.6446C60.873 38.5456 61.1289 38.4961 61.4103 38.4961Z" fill="white"/>
<path d="M59.8791 30.6016C60.1605 30.6016 60.4164 30.6511 60.6723 30.7501C60.9282 30.8491 61.1329 30.9977 61.3376 31.171C61.5167 31.3443 61.6702 31.5671 61.7726 31.8147C61.8749 32.0622 61.9261 32.3098 61.9261 32.5821C61.9261 32.8544 61.8749 33.102 61.7726 33.3496C61.6702 33.5971 61.5167 33.7952 61.3376 33.9933C61.1585 34.1666 60.9282 34.3151 60.6723 34.4141C60.4164 34.5131 60.1605 34.5627 59.8791 34.5627C59.5976 34.5627 59.3417 34.5131 59.0858 34.4141C58.83 34.3151 58.6253 34.1666 58.4206 33.9933C58.2414 33.82 58.0879 33.5971 57.9856 33.3496C57.8832 33.102 57.832 32.8544 57.832 32.5821C57.832 32.3098 57.8832 32.0622 57.9856 31.8147C58.0879 31.5671 58.2414 31.369 58.4206 31.171C58.5997 30.9977 58.83 30.8491 59.0858 30.7501C59.3417 30.6511 59.5976 30.6016 59.8791 30.6016Z" fill="white"/>
<path d="M67.5295 23.6953C67.8109 23.6953 68.0668 23.7448 68.3227 23.8439C68.5786 23.9429 68.7833 24.0914 68.988 24.2647C69.1671 24.438 69.3206 24.6608 69.423 24.9084C69.5253 25.156 69.5765 25.4035 69.5765 25.6759C69.5765 25.9482 69.5253 26.1958 69.423 26.4433C69.3206 26.6909 69.1671 26.889 68.988 27.087C68.8089 27.2603 68.5786 27.4088 68.3227 27.5079C68.0668 27.6069 67.8109 27.6564 67.5295 27.6564C67.248 27.6564 66.9921 27.6069 66.7362 27.5079C66.4804 27.4088 66.2757 27.2603 66.0709 27.087C65.8918 26.9137 65.7383 26.6909 65.636 26.4433C65.5336 26.1958 65.4824 25.9482 65.4824 25.6759C65.4824 25.4035 65.5336 25.156 65.636 24.9084C65.7383 24.6608 65.8918 24.4628 66.0709 24.2647C66.2501 24.0914 66.4804 23.9429 66.7362 23.8439C66.9921 23.7448 67.248 23.6953 67.5295 23.6953Z" fill="white"/>
<path d="M67.5295 15.791C67.8109 15.791 68.0668 15.8405 68.3227 15.9396C68.5786 16.0386 68.7833 16.1871 68.988 16.3604C69.1671 16.5337 69.3206 16.7565 69.423 17.0041C69.5253 17.2517 69.5765 17.4992 69.5765 17.7716C69.5765 18.0439 69.5253 18.2915 69.423 18.539C69.3206 18.7866 69.1671 18.9847 68.988 19.1827C68.8089 19.356 68.5786 19.5045 68.3227 19.6036C68.0668 19.7026 67.8109 19.7521 67.5295 19.7521C67.248 19.7521 66.9921 19.7026 66.7362 19.6036C66.4804 19.5045 66.2757 19.356 66.0709 19.1827C65.8918 19.0094 65.7383 18.7866 65.636 18.539C65.5336 18.2915 65.4824 18.0439 65.4824 17.7716C65.4824 17.4992 65.5336 17.2517 65.636 17.0041C65.7383 16.7565 65.8918 16.5585 66.0709 16.3604C66.2501 16.1871 66.4804 16.0386 66.7362 15.9396C66.9921 15.8405 67.248 15.791 67.5295 15.791Z" fill="white"/>
<path d="M60.8967 8.39258C61.1781 8.39258 61.434 8.44209 61.6899 8.54112C61.9458 8.64015 62.1505 8.78869 62.3552 8.96199C62.5343 9.13528 62.6878 9.3581 62.7902 9.60567C62.8925 9.85323 62.9437 10.1008 62.9437 10.3731C62.9437 10.6455 62.8925 10.893 62.7902 11.1406C62.6878 11.3882 62.5343 11.5862 62.3552 11.7843C62.1761 11.9576 61.9458 12.1061 61.6899 12.2051C61.434 12.3042 61.1781 12.3537 60.8967 12.3537C60.6152 12.3537 60.3593 12.3042 60.1034 12.2051C59.8475 12.1061 59.6428 11.9576 59.4381 11.7843C59.259 11.611 59.1055 11.3882 59.0031 11.1406C58.9008 10.893 58.8496 10.6455 58.8496 10.3731C58.8496 10.1008 58.9008 9.85323 59.0031 9.60567C59.1055 9.3581 59.259 9.16004 59.4381 8.96199C59.6173 8.78869 59.8475 8.64015 60.1034 8.54112C60.3593 8.44209 60.6152 8.39258 60.8967 8.39258Z" fill="white"/>
<path d="M52.7365 9.38086C53.018 9.38086 53.2738 9.43037 53.5297 9.5294C53.7856 9.62843 53.9903 9.77697 54.195 9.95027C54.3741 10.1236 54.5277 10.3464 54.63 10.5939C54.7324 10.8415 54.7835 11.0891 54.7835 11.3614C54.7835 11.6337 54.7324 11.8813 54.63 12.1289C54.5277 12.3764 54.3741 12.5745 54.195 12.7726C54.0159 12.9458 53.7856 13.0944 53.5297 13.1934C53.2738 13.2924 53.018 13.342 52.7365 13.342C52.455 13.342 52.1991 13.2924 51.9433 13.1934C51.6874 13.0944 51.4827 12.9458 51.278 12.7726C51.0989 12.5993 50.9453 12.3764 50.843 12.1289C50.7406 11.8813 50.6895 11.6337 50.6895 11.3614C50.6895 11.0891 50.7406 10.8415 50.843 10.5939C50.9453 10.3464 51.0989 10.1483 51.278 9.95027C51.4571 9.77697 51.6874 9.62843 51.9433 9.5294C52.1991 9.43037 52.455 9.38086 52.7365 9.38086Z" fill="white"/>
<path d="M44.5763 8.88672C44.8578 8.88672 45.1137 8.93623 45.3696 9.03526C45.6254 9.13429 45.8301 9.28283 46.0349 9.45613C46.214 9.62943 46.3675 9.85224 46.4698 10.0998C46.5722 10.3474 46.6234 10.5949 46.6234 10.8673C46.6234 11.1396 46.5722 11.3872 46.4698 11.6347C46.3675 11.8823 46.214 12.0804 46.0349 12.2784C45.8557 12.4517 45.6254 12.6003 45.3696 12.6993C45.1137 12.7983 44.8578 12.8478 44.5763 12.8478C44.2949 12.8478 44.039 12.7983 43.7831 12.6993C43.5272 12.6003 43.3225 12.4517 43.1178 12.2784C42.9387 12.1051 42.7852 11.8823 42.6828 11.6347C42.5805 11.3872 42.5293 11.1396 42.5293 10.8673C42.5293 10.5949 42.5805 10.3474 42.6828 10.0998C42.7852 9.85224 42.9387 9.65418 43.1178 9.45613C43.2969 9.28283 43.5272 9.13429 43.7831 9.03526C44.039 8.93623 44.2949 8.88672 44.5763 8.88672Z" fill="white"/>
<path d="M37.4435 15.791C37.725 15.791 37.9809 15.8405 38.2368 15.9396C38.4926 16.0386 38.6973 16.1871 38.902 16.3604C39.0812 16.5337 39.2347 16.7565 39.337 17.0041C39.4394 17.2517 39.4906 17.4992 39.4906 17.7716C39.4906 18.0439 39.4394 18.2915 39.337 18.539C39.2347 18.7866 39.0812 18.9847 38.902 19.1827C38.7229 19.356 38.4926 19.5045 38.2368 19.6036C37.9809 19.7026 37.725 19.7521 37.4435 19.7521C37.1621 19.7521 36.9062 19.7026 36.6503 19.6036C36.3944 19.5045 36.1897 19.356 35.985 19.1827C35.8059 19.0094 35.6524 18.7866 35.55 18.539C35.4477 18.2915 35.3965 18.0439 35.3965 17.7716C35.3965 17.4992 35.4477 17.2517 35.55 17.0041C35.6524 16.7565 35.8059 16.5585 35.985 16.3604C36.1641 16.1871 36.3944 16.0386 36.6503 15.9396C36.9062 15.8405 37.1621 15.791 37.4435 15.791Z" fill="white"/>
<path d="M45.0881 16.2891C45.3695 16.2891 45.6254 16.3386 45.8813 16.4376C46.1372 16.5366 46.3419 16.6852 46.5466 16.8585C46.7257 17.0318 46.8792 17.2546 46.9816 17.5022C47.0839 17.7497 47.1351 17.9973 47.1351 18.2696C47.1351 18.5419 47.0839 18.7895 46.9816 19.0371C46.8792 19.2846 46.7257 19.4827 46.5466 19.6808C46.3675 19.8541 46.1372 20.0026 45.8813 20.1016C45.6254 20.2006 45.3695 20.2502 45.0881 20.2502C44.8066 20.2502 44.5507 20.2006 44.2948 20.1016C44.0389 20.0026 43.8342 19.8541 43.6295 19.6808C43.4504 19.5075 43.2969 19.2846 43.1945 19.0371C43.0922 18.7895 43.041 18.5419 43.041 18.2696C43.041 17.9973 43.0922 17.7497 43.1945 17.5022C43.2969 17.2546 43.4504 17.0565 43.6295 16.8585C43.8087 16.6852 44.0389 16.5366 44.2948 16.4376C44.5507 16.3386 44.8066 16.2891 45.0881 16.2891Z" fill="white"/>
<path d="M52.7365 16.7812C53.018 16.7812 53.2738 16.8308 53.5297 16.9298C53.7856 17.0288 53.9903 17.1774 54.195 17.3507C54.3741 17.524 54.5277 17.7468 54.63 17.9943C54.7324 18.2419 54.7835 18.4895 54.7835 18.7618C54.7835 19.0341 54.7324 19.2817 54.63 19.5293C54.5277 19.7768 54.3741 19.9749 54.195 20.1729C54.0159 20.3462 53.7856 20.4948 53.5297 20.5938C53.2738 20.6928 53.018 20.7424 52.7365 20.7424C52.455 20.7424 52.1991 20.6928 51.9433 20.5938C51.6874 20.4948 51.4827 20.3462 51.278 20.1729C51.0989 19.9996 50.9453 19.7768 50.843 19.5293C50.7406 19.2817 50.6895 19.0341 50.6895 18.7618C50.6895 18.4895 50.7406 18.2419 50.843 17.9943C50.9453 17.7468 51.0989 17.5487 51.278 17.3507C51.4571 17.1774 51.6874 17.0288 51.9433 16.9298C52.1991 16.8308 52.455 16.7812 52.7365 16.7812Z" fill="white"/>
<path d="M53.2482 23.6953C53.5297 23.6953 53.7856 23.7448 54.0414 23.8439C54.2973 23.9429 54.502 24.0914 54.7067 24.2647C54.8858 24.438 55.0394 24.6608 55.1417 24.9084C55.2441 25.156 55.2953 25.4035 55.2953 25.6759C55.2953 25.9482 55.2441 26.1958 55.1417 26.4433C55.0394 26.6909 54.8858 26.889 54.7067 27.087C54.5276 27.2603 54.2973 27.4088 54.0414 27.5079C53.7856 27.6069 53.5297 27.6564 53.2482 27.6564C52.9667 27.6564 52.7109 27.6069 52.455 27.5079C52.1991 27.4088 51.9944 27.2603 51.7897 27.087C51.6106 26.9137 51.4571 26.6909 51.3547 26.4433C51.2523 26.1958 51.2012 25.9482 51.2012 25.6759C51.2012 25.4035 51.2523 25.156 51.3547 24.9084C51.4571 24.6608 51.6106 24.4628 51.7897 24.2647C51.9688 24.0914 52.1991 23.9429 52.455 23.8439C52.7109 23.7448 52.9667 23.6953 53.2482 23.6953Z" fill="white"/>
<path d="M60.3927 23.6953C60.6742 23.6953 60.9301 23.7448 61.186 23.8439C61.4419 23.9429 61.6466 24.0914 61.8513 24.2647C62.0304 24.438 62.1839 24.6608 62.2863 24.9084C62.3886 25.156 62.4398 25.4035 62.4398 25.6759C62.4398 25.9482 62.3886 26.1958 62.2863 26.4433C62.1839 26.6909 62.0304 26.889 61.8513 27.087C61.6721 27.2603 61.4419 27.4088 61.186 27.5079C60.9301 27.6069 60.6742 27.6564 60.3927 27.6564C60.1113 27.6564 59.8554 27.6069 59.5995 27.5079C59.3436 27.4088 59.1389 27.2603 58.9342 27.087C58.7551 26.9137 58.6016 26.6909 58.4992 26.4433C58.3969 26.1958 58.3457 25.9482 58.3457 25.6759C58.3457 25.4035 58.3969 25.156 58.4992 24.9084C58.6016 24.6608 58.7551 24.4628 58.9342 24.2647C59.1133 24.0914 59.3436 23.9429 59.5995 23.8439C59.8554 23.7448 60.1113 23.6953 60.3927 23.6953Z" fill="white"/>
<path d="M59.8791 16.2891C60.1605 16.2891 60.4164 16.3386 60.6723 16.4376C60.9282 16.5366 61.1329 16.6852 61.3376 16.8585C61.5167 17.0318 61.6702 17.2546 61.7726 17.5022C61.8749 17.7497 61.9261 17.9973 61.9261 18.2696C61.9261 18.5419 61.8749 18.7895 61.7726 19.0371C61.6702 19.2846 61.5167 19.4827 61.3376 19.6808C61.1585 19.8541 60.9282 20.0026 60.6723 20.1016C60.4164 20.2006 60.1605 20.2502 59.8791 20.2502C59.5976 20.2502 59.3417 20.2006 59.0858 20.1016C58.83 20.0026 58.6253 19.8541 58.4206 19.6808C58.2414 19.5075 58.0879 19.2846 57.9856 19.0371C57.8832 18.7895 57.832 18.5419 57.832 18.2696C57.832 17.9973 57.8832 17.7497 57.9856 17.5022C58.0879 17.2546 58.2414 17.0565 58.4206 16.8585C58.5997 16.6852 58.83 16.5366 59.0858 16.4376C59.3417 16.3386 59.5976 16.2891 59.8791 16.2891Z" fill="white"/>
<path d="M46.1193 23.6953C46.4008 23.6953 46.6567 23.7448 46.9125 23.8439C47.1684 23.9429 47.3731 24.0914 47.5778 24.2647C47.7569 24.438 47.9105 24.6608 48.0128 24.9084C48.1152 25.156 48.1663 25.4035 48.1663 25.6759C48.1663 25.9482 48.1152 26.1958 48.0128 26.4433C47.9105 26.6909 47.7569 26.889 47.5778 27.087C47.3987 27.2603 47.1684 27.4088 46.9125 27.5079C46.6567 27.6069 46.4008 27.6564 46.1193 27.6564C45.8378 27.6564 45.582 27.6069 45.3261 27.5079C45.0702 27.4088 44.8655 27.2603 44.6608 27.087C44.4817 26.9137 44.3281 26.6909 44.2258 26.4433C44.1234 26.1958 44.0723 25.9482 44.0723 25.6759C44.0723 25.4035 44.1234 25.156 44.2258 24.9084C44.3281 24.6608 44.4817 24.4628 44.6608 24.2647C44.8399 24.0914 45.0702 23.9429 45.3261 23.8439C45.582 23.7448 45.8378 23.6953 46.1193 23.6953Z" fill="white"/>
<path d="M45.0881 31.0898C45.3695 31.0898 45.6254 31.1394 45.8813 31.2384C46.1372 31.3374 46.3419 31.486 46.5466 31.6593C46.7257 31.8325 46.8792 32.0554 46.9816 32.3029C47.0839 32.5505 47.1351 32.7981 47.1351 33.0704C47.1351 33.3427 47.0839 33.5903 46.9816 33.8379C46.8792 34.0854 46.7257 34.2835 46.5466 34.4815C46.3675 34.6548 46.1372 34.8034 45.8813 34.9024C45.6254 35.0014 45.3695 35.0509 45.0881 35.0509C44.8066 35.0509 44.5507 35.0014 44.2948 34.9024C44.0389 34.8034 43.8342 34.6548 43.6295 34.4815C43.4504 34.3082 43.2969 34.0854 43.1945 33.8379C43.0922 33.5903 43.041 33.3427 43.041 33.0704C43.041 32.7981 43.0922 32.5505 43.1945 32.3029C43.2969 32.0554 43.4504 31.8573 43.6295 31.6593C43.8087 31.486 44.0389 31.3374 44.2948 31.2384C44.5507 31.1394 44.8066 31.0898 45.0881 31.0898Z" fill="white"/>
<path d="M52.7365 30.6016C53.018 30.6016 53.2738 30.6511 53.5297 30.7501C53.7856 30.8491 53.9903 30.9977 54.195 31.171C54.3741 31.3443 54.5277 31.5671 54.63 31.8147C54.7324 32.0622 54.7835 32.3098 54.7835 32.5821C54.7835 32.8544 54.7324 33.102 54.63 33.3496C54.5277 33.5971 54.3741 33.7952 54.195 33.9933C54.0159 34.1666 53.7856 34.3151 53.5297 34.4141C53.2738 34.5131 53.018 34.5627 52.7365 34.5627C52.455 34.5627 52.1991 34.5131 51.9433 34.4141C51.6874 34.3151 51.4827 34.1666 51.278 33.9933C51.0989 33.82 50.9453 33.5971 50.843 33.3496C50.7406 33.102 50.6895 32.8544 50.6895 32.5821C50.6895 32.3098 50.7406 32.0622 50.843 31.8147C50.9453 31.5671 51.0989 31.369 51.278 31.171C51.4571 30.9977 51.6874 30.8491 51.9433 30.7501C52.1991 30.6511 52.455 30.6016 52.7365 30.6016Z" fill="white"/>
<path d="M67.5295 32.0586C67.8109 32.0586 68.0668 32.1081 68.3227 32.2071C68.5786 32.3062 68.7833 32.4547 68.988 32.628C69.1671 32.8013 69.3206 33.0241 69.423 33.2717C69.5253 33.5192 69.5765 33.7668 69.5765 34.0391C69.5765 34.3115 69.5253 34.559 69.423 34.8066C69.3206 35.0542 69.1671 35.2522 68.988 35.4503C68.8089 35.6236 68.5786 35.7721 68.3227 35.8712C68.0668 35.9702 67.8109 36.0197 67.5295 36.0197C67.248 36.0197 66.9921 35.9702 66.7362 35.8712C66.4804 35.7721 66.2757 35.6236 66.0709 35.4503C65.8918 35.277 65.7383 35.0542 65.636 34.8066C65.5336 34.559 65.4824 34.3115 65.4824 34.0391C65.4824 33.7668 65.5336 33.5192 65.636 33.2717C65.7383 33.0241 65.8918 32.8261 66.0709 32.628C66.2501 32.4547 66.4804 32.3062 66.7362 32.2071C66.9921 32.1081 67.248 32.0586 67.5295 32.0586Z" fill="white"/>
<path d="M0 78.5696H3.59536V73.3148H6.91534C10.5413 73.3148 12.9586 71.05 12.9586 67.6306V67.601C12.9586 64.1816 10.5413 61.9168 6.91534 61.9168H0V78.5548V78.5696ZM6.02797 64.6849C8.0934 64.6849 9.30205 65.7359 9.30205 67.6306V67.6602C9.30205 69.5549 8.0934 70.6059 6.02797 70.6059H3.59536V64.6849H6.02797ZM15.0852 78.5696H18.6806V61.9316H15.0852V78.5696ZM20.6236 78.5696H24.5097L28.2581 72.7375H28.3804L32.1594 78.5696H36.2597L30.6907 70.2506V70.2062L36.3362 61.9168H32.3124L28.6711 67.9118H28.5334L24.8769 61.9168H20.6389L26.0702 70.147V70.1766L20.593 78.5548L20.6236 78.5696ZM37.0093 78.5696H40.7883L42.0887 74.5286H48.1626L49.4631 78.5696H53.242L47.2446 61.9316H43.0067L36.994 78.5696H37.0093ZM45.0874 65.1586H45.1639L47.3364 71.9233H42.9149L45.0874 65.1586ZM55.0168 78.5696H62.6359C66.3077 78.5696 68.5874 76.7489 68.5874 73.8328V73.8032C68.5568 71.6125 66.7208 69.8362 64.4565 69.8066V69.7325C66.3383 69.4957 67.7612 67.9563 67.7765 66.1059V66.0763C67.7765 63.5155 65.7417 61.902 62.4982 61.902H55.0168V78.5548V78.5696ZM61.5649 64.5221C63.2478 64.5221 64.2423 65.277 64.2423 66.6092V66.6388C64.2423 68.0747 63.1561 68.9036 61.1365 68.9036H58.6274V64.5369H61.5802L61.5649 64.5221ZM61.5496 71.2572C63.7527 71.2572 64.9002 72.0713 64.9002 73.596V73.6256C64.9002 75.1651 63.768 75.994 61.7026 75.994H58.6121V71.272H61.5496V71.2572ZM70.6222 78.5696H74.2175V61.9316H70.6222V78.5696ZM81.1941 78.5696H84.7895V64.8033H89.7771V61.9316H76.2218V64.8033H81.1941V78.5696ZM98.0541 78.8657C102.399 78.8657 105 76.8377 105 73.6404C105 71.0056 103.378 69.5845 99.7829 68.9036L97.9623 68.5483C95.9886 68.1635 95.1013 67.5566 95.1013 66.5056C95.1013 65.3066 96.2028 64.4925 98.0541 64.4777C99.8288 64.4777 101.068 65.277 101.252 66.5796V66.7128H104.663V66.4908C104.48 63.5747 102.047 61.6504 98.0541 61.6504C94.0609 61.6504 91.4906 63.6635 91.4906 66.698C91.4906 69.2145 93.2041 70.7835 96.6006 71.4348L98.4059 71.7753C100.533 72.2046 101.389 72.7671 101.389 73.892C101.389 75.1799 100.135 76.0088 98.1459 76.0088C96.1569 76.0088 94.7647 75.1947 94.5352 73.9069L94.5046 73.7736H91.1081V73.9513C91.3223 77.0154 93.9538 78.8361 98.0541 78.8361V78.8657Z" fill="white"/>
</svg>
