<svg width="105" height="105" viewBox="0 0 105 105" fill="none" xmlns="http://www.w3.org/2000/svg">
<path d="M39.8683 48.1289C40.078 48.1289 40.2685 48.1658 40.4591 48.2395C40.6497 48.3133 40.8022 48.4239 40.9546 48.553C41.1071 48.6821 41.2024 48.848 41.2786 49.0324C41.3548 49.2168 41.3929 49.4012 41.3929 49.604C41.3929 49.8068 41.3548 49.9912 41.2786 50.1756C41.2024 50.36 41.088 50.5075 40.9546 50.655C40.8212 50.784 40.6497 50.8947 40.4591 50.9684C40.2685 51.0422 40.078 51.079 39.8683 51.079C39.6587 51.079 39.4681 51.0422 39.2776 50.9684C39.087 50.8947 38.9345 50.784 38.7821 50.655C38.6296 50.5259 38.5343 50.36 38.4581 50.1756C38.3819 49.9912 38.3438 49.8068 38.3438 49.604C38.3438 49.4012 38.3819 49.2168 38.4581 49.0324C38.5343 48.848 38.6487 48.7005 38.7821 48.553C38.9155 48.4055 39.087 48.3133 39.2776 48.2395C39.4681 48.1658 39.6587 48.1289 39.8683 48.1289Z" fill="white"/>
<path d="M35.6769 42.6191C35.8866 42.6191 36.0771 42.656 36.2677 42.7298C36.4583 42.8035 36.6107 42.9142 36.7632 43.0432C36.8966 43.1723 37.011 43.3382 37.0872 43.5226C37.1634 43.707 37.2015 43.8914 37.2015 44.0942C37.2015 44.297 37.1634 44.4814 37.0872 44.6658C37.011 44.8502 36.8966 44.9977 36.7632 45.1452C36.6298 45.2743 36.4583 45.3849 36.2677 45.4586C36.0771 45.5324 35.8866 45.5693 35.6769 45.5693C35.4673 45.5693 35.2767 45.5324 35.0862 45.4586C34.8956 45.3849 34.7431 45.2743 34.5907 45.1452C34.4573 45.0161 34.3429 44.8502 34.2667 44.6658C34.1905 44.4814 34.1523 44.297 34.1523 44.0942C34.1523 43.8914 34.1905 43.707 34.2667 43.5226C34.3429 43.3382 34.4573 43.1907 34.5907 43.0432C34.7241 42.9142 34.8956 42.8035 35.0862 42.7298C35.2767 42.656 35.4673 42.6191 35.6769 42.6191Z" fill="white"/>
<path d="M41.384 41.5312C41.5936 41.5312 41.7842 41.5681 41.9747 41.6419C42.1653 41.7156 42.3178 41.8263 42.4702 41.9553C42.6036 42.0844 42.718 42.2503 42.7942 42.4347C42.8704 42.6191 42.9086 42.8035 42.9086 43.0063C42.9086 43.2091 42.8704 43.3935 42.7942 43.5779C42.718 43.7623 42.6036 43.9098 42.4702 44.0573C42.3368 44.2048 42.1653 44.297 41.9747 44.3708C41.7842 44.4445 41.5936 44.4814 41.384 44.4814C41.1743 44.4814 40.9838 44.4445 40.7932 44.3708C40.6026 44.297 40.4502 44.1864 40.2977 44.0573C40.1643 43.9282 40.0499 43.7623 39.9737 43.5779C39.8975 43.3935 39.8594 43.2091 39.8594 43.0063C39.8594 42.8035 39.8975 42.6191 39.9737 42.4347C40.0499 42.2503 40.1643 42.1028 40.2977 41.9553C40.4311 41.8263 40.6026 41.7156 40.7932 41.6419C40.9838 41.5681 41.1743 41.5312 41.384 41.5312Z" fill="white"/>
<path d="M52.7785 45.9375C52.9881 45.9375 53.1787 45.9744 53.3693 46.0481C53.5598 46.1219 53.7123 46.2325 53.8648 46.3616C53.9982 46.4907 54.1125 46.6566 54.1887 46.841C54.265 47.0254 54.3031 47.2097 54.3031 47.4126C54.3031 47.6154 54.265 47.7998 54.1887 47.9842C54.1125 48.1685 53.9982 48.3161 53.8648 48.4636C53.7314 48.5926 53.5598 48.7033 53.3693 48.777C53.1787 48.8508 52.9881 48.8876 52.7785 48.8876C52.5689 48.8876 52.3783 48.8508 52.1877 48.777C51.9971 48.7033 51.8447 48.5926 51.6922 48.4636C51.5588 48.3345 51.4445 48.1685 51.3682 47.9842C51.292 47.7998 51.2539 47.6154 51.2539 47.4126C51.2539 47.2097 51.292 47.0254 51.3682 46.841C51.4445 46.6566 51.5588 46.5091 51.6922 46.3616C51.8256 46.2325 51.9971 46.1219 52.1877 46.0481C52.3783 45.9744 52.5689 45.9375 52.7785 45.9375Z" fill="white"/>
<path d="M41.7609 35.6504C41.9705 35.6504 42.1611 35.6873 42.3517 35.761C42.5423 35.8348 42.6947 35.9454 42.8472 36.0745C42.9806 36.2035 43.0949 36.3695 43.1712 36.5539C43.2474 36.7383 43.2855 36.9226 43.2855 37.1255C43.2855 37.3283 43.2474 37.5127 43.1712 37.6971C43.0949 37.8814 42.9806 38.0289 42.8472 38.1764C42.7138 38.3055 42.5423 38.4161 42.3517 38.4899C42.1611 38.5637 41.9705 38.6005 41.7609 38.6005C41.5513 38.6005 41.3607 38.5637 41.1701 38.4899C40.9796 38.4161 40.8271 38.3055 40.6746 38.1764C40.5412 38.0474 40.4269 37.8814 40.3507 37.6971C40.2744 37.5127 40.2363 37.3283 40.2363 37.1255C40.2363 36.9226 40.2744 36.7383 40.3507 36.5539C40.4269 36.3695 40.5412 36.222 40.6746 36.0745C40.808 35.9454 40.9796 35.8348 41.1701 35.761C41.3607 35.6873 41.5513 35.6504 41.7609 35.6504Z" fill="white"/>
<path d="M34.1769 35.6504C34.3866 35.6504 34.5771 35.6873 34.7677 35.761C34.9583 35.8348 35.1107 35.9454 35.2632 36.0745C35.3966 36.2035 35.511 36.3695 35.5872 36.5539C35.6634 36.7383 35.7015 36.9226 35.7015 37.1255C35.7015 37.3283 35.6634 37.5127 35.5872 37.6971C35.511 37.8814 35.3966 38.0289 35.2632 38.1764C35.1298 38.3055 34.9583 38.4161 34.7677 38.4899C34.5771 38.5637 34.3866 38.6005 34.1769 38.6005C33.9673 38.6005 33.7767 38.5637 33.5862 38.4899C33.3956 38.4161 33.2431 38.3055 33.0907 38.1764C32.9573 38.0474 32.8429 37.8814 32.7667 37.6971C32.6905 37.5127 32.6523 37.3283 32.6523 37.1255C32.6523 36.9226 32.6905 36.7383 32.7667 36.5539C32.8429 36.3695 32.9573 36.222 33.0907 36.0745C33.2241 35.9454 33.3956 35.8348 33.5862 35.761C33.7767 35.6873 33.9673 35.6504 34.1769 35.6504Z" fill="white"/>
<path d="M35.6769 28.6562C35.8866 28.6562 36.0771 28.6931 36.2677 28.7669C36.4583 28.8406 36.6107 28.9513 36.7632 29.0803C36.8966 29.2094 37.011 29.3753 37.0872 29.5597C37.1634 29.7441 37.2015 29.9285 37.2015 30.1313C37.2015 30.3341 37.1634 30.5185 37.0872 30.7029C37.011 30.8873 36.8966 31.0348 36.7632 31.1823C36.6298 31.3114 36.4583 31.422 36.2677 31.4958C36.0771 31.5695 35.8866 31.6064 35.6769 31.6064C35.4673 31.6064 35.2767 31.5695 35.0862 31.4958C34.8956 31.422 34.7431 31.3114 34.5907 31.1823C34.4573 31.0532 34.3429 30.8873 34.2667 30.7029C34.1905 30.5185 34.1523 30.3341 34.1523 30.1313C34.1523 29.9285 34.1905 29.7441 34.2667 29.5597C34.3429 29.3753 34.4573 29.2278 34.5907 29.0803C34.7241 28.9513 34.8956 28.8406 35.0862 28.7669C35.2767 28.6931 35.4673 28.6562 35.6769 28.6562Z" fill="white"/>
<path d="M39.4894 22.7715C39.6991 22.7715 39.8896 22.8084 40.0802 22.8821C40.2708 22.9559 40.4232 23.0665 40.5757 23.1956C40.7091 23.3246 40.8235 23.4906 40.8997 23.675C40.9759 23.8593 41.014 24.0437 41.014 24.2466C41.014 24.4494 40.9759 24.6338 40.8997 24.8181C40.8235 25.0025 40.7091 25.15 40.5757 25.2975C40.4423 25.4266 40.2708 25.5372 40.0802 25.611C39.8896 25.6847 39.6991 25.7216 39.4894 25.7216C39.2798 25.7216 39.0892 25.6847 38.8987 25.611C38.7081 25.5372 38.5556 25.4266 38.4032 25.2975C38.2698 25.1685 38.1554 25.0025 38.0792 24.8181C38.003 24.6338 37.9648 24.4494 37.9648 24.2466C37.9648 24.0437 38.003 23.8593 38.0792 23.675C38.1554 23.4906 38.2698 23.3431 38.4032 23.1956C38.5366 23.0665 38.7081 22.9559 38.8987 22.8821C39.0892 22.8084 39.2798 22.7715 39.4894 22.7715Z" fill="white"/>
<path d="M45.5773 19.1035C45.787 19.1035 45.9775 19.1404 46.1681 19.2141C46.3587 19.2879 46.5111 19.3985 46.6636 19.5276C46.797 19.6567 46.9113 19.8226 46.9876 20.007C47.0638 20.1914 47.1019 20.3758 47.1019 20.5786C47.1019 20.7814 47.0638 20.9658 46.9876 21.1502C46.9113 21.3346 46.797 21.4821 46.6636 21.6296C46.5302 21.7586 46.3587 21.8693 46.1681 21.943C45.9775 22.0168 45.787 22.0537 45.5773 22.0537C45.3677 22.0537 45.1771 22.0168 44.9865 21.943C44.796 21.8693 44.6435 21.7586 44.4911 21.6296C44.3577 21.5005 44.2433 21.3346 44.1671 21.1502C44.0908 20.9658 44.0527 20.7814 44.0527 20.5786C44.0527 20.3758 44.0908 20.1914 44.1671 20.007C44.2433 19.8226 44.3577 19.6751 44.4911 19.5276C44.6245 19.3985 44.796 19.2879 44.9865 19.2141C45.1771 19.1404 45.3677 19.1035 45.5773 19.1035Z" fill="white"/>
<path d="M52.7785 18C52.9881 18 53.1787 18.0369 53.3693 18.1106C53.5598 18.1844 53.7123 18.295 53.8648 18.4241C53.9982 18.5532 54.1125 18.7191 54.1887 18.9035C54.265 19.0879 54.3031 19.2722 54.3031 19.4751C54.3031 19.6779 54.265 19.8623 54.1887 20.0467C54.1125 20.231 53.9982 20.3786 53.8648 20.5261C53.7314 20.6551 53.5598 20.7658 53.3693 20.8395C53.1787 20.9133 52.9881 20.9501 52.7785 20.9501C52.5689 20.9501 52.3783 20.9133 52.1877 20.8395C51.9971 20.7658 51.8447 20.6551 51.6922 20.5261C51.5588 20.397 51.4445 20.231 51.3682 20.0467C51.292 19.8623 51.2539 19.6779 51.2539 19.4751C51.2539 19.2722 51.292 19.0879 51.3682 18.9035C51.4445 18.7191 51.5588 18.5716 51.6922 18.4241C51.8256 18.295 51.9971 18.1844 52.1877 18.1106C52.3973 18.0369 52.5879 18 52.7785 18Z" fill="white"/>
<path d="M59.6203 19.1035C59.8299 19.1035 60.0205 19.1404 60.2111 19.2141C60.4016 19.2879 60.5541 19.3985 60.7066 19.5276C60.84 19.6567 60.9543 19.8226 61.0305 20.007C61.1068 20.1914 61.1449 20.3758 61.1449 20.5786C61.1449 20.7814 61.1068 20.9658 61.0305 21.1502C60.9543 21.3346 60.84 21.4821 60.7066 21.6296C60.5732 21.7586 60.4016 21.8693 60.2111 21.943C60.0205 22.0168 59.8299 22.0537 59.6203 22.0537C59.4107 22.0537 59.2201 22.0168 59.0295 21.943C58.8389 21.8693 58.6865 21.7586 58.534 21.6296C58.4006 21.5005 58.2863 21.3346 58.21 21.1502C58.1338 20.9658 58.0957 20.7814 58.0957 20.5786C58.0957 20.3758 58.1338 20.1914 58.21 20.007C58.2863 19.8226 58.4006 19.6751 58.534 19.5276C58.6674 19.3985 58.8389 19.2879 59.0295 19.2141C59.2201 19.1404 59.4107 19.1035 59.6203 19.1035Z" fill="white"/>
<path d="M65.3156 22.4082C65.5252 22.4082 65.7158 22.4451 65.9064 22.5188C66.097 22.5926 66.2494 22.7032 66.4019 22.8323C66.5353 22.9614 66.6496 23.1273 66.7259 23.3117C66.8021 23.4961 66.8402 23.6805 66.8402 23.8833C66.8402 24.0861 66.8021 24.2705 66.7259 24.4549C66.6496 24.6392 66.5353 24.7868 66.4019 24.9343C66.2685 25.0633 66.097 25.174 65.9064 25.2477C65.7158 25.3215 65.5252 25.3583 65.3156 25.3583C65.106 25.3583 64.9154 25.3215 64.7248 25.2477C64.5343 25.174 64.3818 25.0633 64.2293 24.9343C64.0959 24.8052 63.9816 24.6392 63.9054 24.4549C63.8291 24.2705 63.791 24.0861 63.791 23.8833C63.791 23.6805 63.8291 23.4961 63.9054 23.3117C63.9816 23.1273 64.0959 22.9798 64.2293 22.8323C64.3627 22.7032 64.5343 22.5926 64.7248 22.5188C64.9154 22.4451 65.106 22.4082 65.3156 22.4082Z" fill="white"/>
<path d="M69.4933 28.6562C69.703 28.6562 69.8935 28.6931 70.0841 28.7669C70.2747 28.8406 70.4271 28.9513 70.5796 29.0803C70.713 29.2094 70.8274 29.3753 70.9036 29.5597C70.9798 29.7441 71.0179 29.9285 71.0179 30.1313C71.0179 30.3341 70.9798 30.5185 70.9036 30.7029C70.8274 30.8873 70.713 31.0348 70.5796 31.1823C70.4462 31.3114 70.2747 31.422 70.0841 31.4958C69.8935 31.5695 69.703 31.6064 69.4933 31.6064C69.2837 31.6064 69.0931 31.5695 68.9026 31.4958C68.712 31.422 68.5595 31.3114 68.4071 31.1823C68.2737 31.0532 68.1593 30.8873 68.0831 30.7029C68.0069 30.5185 67.9688 30.3341 67.9688 30.1313C67.9688 29.9285 68.0069 29.7441 68.0831 29.5597C68.1593 29.3753 68.2737 29.2278 68.4071 29.0803C68.5405 28.9513 68.712 28.8406 68.9026 28.7669C69.0931 28.6931 69.2837 28.6562 69.4933 28.6562Z" fill="white"/>
<path d="M71.0265 35.6504C71.2362 35.6504 71.4267 35.6873 71.6173 35.761C71.8079 35.8348 71.9604 35.9454 72.1128 36.0745C72.2462 36.2035 72.3606 36.3695 72.4368 36.5539C72.513 36.7383 72.5511 36.9226 72.5511 37.1255C72.5511 37.3283 72.513 37.5127 72.4368 37.6971C72.3606 37.8814 72.2462 38.0289 72.1128 38.1764C71.9794 38.3055 71.8079 38.4161 71.6173 38.4899C71.4267 38.5637 71.2362 38.6005 71.0265 38.6005C70.8169 38.6005 70.6263 38.5637 70.4358 38.4899C70.2452 38.4161 70.0927 38.3055 69.9403 38.1764C69.8069 38.0474 69.6925 37.8814 69.6163 37.6971C69.5401 37.5127 69.502 37.3283 69.502 37.1255C69.502 36.9226 69.5401 36.7383 69.6163 36.5539C69.6925 36.3695 69.8069 36.222 69.9403 36.0745C70.0737 35.9454 70.2452 35.8348 70.4358 35.761C70.6263 35.6873 70.8169 35.6504 71.0265 35.6504Z" fill="white"/>
<path d="M69.4933 42.2461C69.703 42.2461 69.8935 42.283 70.0841 42.3567C70.2747 42.4305 70.4271 42.5411 70.5796 42.6702C70.713 42.7992 70.8274 42.9652 70.9036 43.1496C70.9798 43.334 71.0179 43.5183 71.0179 43.7212C71.0179 43.924 70.9798 44.1084 70.9036 44.2928C70.8274 44.4771 70.713 44.6246 70.5796 44.7722C70.4462 44.9012 70.2747 45.0118 70.0841 45.0856C69.8935 45.1594 69.703 45.1962 69.4933 45.1962C69.2837 45.1962 69.0931 45.1594 68.9026 45.0856C68.712 45.0118 68.5595 44.9012 68.4071 44.7722C68.2737 44.6431 68.1593 44.4771 68.0831 44.2928C68.0069 44.1084 67.9688 43.924 67.9688 43.7212C67.9688 43.5183 68.0069 43.334 68.0831 43.1496C68.1593 42.9652 68.2737 42.8177 68.4071 42.6702C68.5405 42.5411 68.712 42.4305 68.9026 42.3567C69.0931 42.283 69.2837 42.2461 69.4933 42.2461Z" fill="white"/>
<path d="M65.7023 48.1289C65.912 48.1289 66.1025 48.1658 66.2931 48.2395C66.4837 48.3133 66.6361 48.4239 66.7886 48.553C66.922 48.6821 67.0363 48.848 67.1126 49.0324C67.1888 49.2168 67.2269 49.4012 67.2269 49.604C67.2269 49.8068 67.1888 49.9912 67.1126 50.1756C67.0363 50.36 66.922 50.5075 66.7886 50.655C66.6552 50.784 66.4837 50.8947 66.2931 50.9684C66.1025 51.0422 65.912 51.079 65.7023 51.079C65.4927 51.079 65.3021 51.0422 65.1115 50.9684C64.921 50.8947 64.7685 50.784 64.6161 50.655C64.4827 50.5259 64.3683 50.36 64.2921 50.1756C64.2158 49.9912 64.1777 49.8068 64.1777 49.604C64.1777 49.4012 64.2158 49.2168 64.2921 49.0324C64.3683 48.848 64.4827 48.7005 64.6161 48.553C64.7495 48.4239 64.921 48.3133 65.1115 48.2395C65.3021 48.1658 65.4927 48.1289 65.7023 48.1289Z" fill="white"/>
<path d="M59.6203 52.1758C59.8299 52.1758 60.0205 52.2127 60.2111 52.2864C60.4016 52.3602 60.5541 52.4708 60.7066 52.5999C60.84 52.7289 60.9543 52.8949 61.0305 53.0793C61.1068 53.2636 61.1449 53.448 61.1449 53.6508C61.1449 53.8537 61.1068 54.0381 61.0305 54.2224C60.9543 54.4068 60.84 54.5543 60.7066 54.7018C60.5732 54.8309 60.4016 54.9415 60.2111 55.0153C60.0205 55.089 59.8299 55.1259 59.6203 55.1259C59.4107 55.1259 59.2201 55.089 59.0295 55.0153C58.8389 54.9415 58.6865 54.8309 58.534 54.7018C58.4006 54.5728 58.2863 54.4068 58.21 54.2224C58.1338 54.0381 58.0957 53.8537 58.0957 53.6508C58.0957 53.448 58.1338 53.2636 58.21 53.0793C58.2863 52.8949 58.4006 52.7474 58.534 52.5999C58.6674 52.4708 58.8389 52.3602 59.0295 52.2864C59.2201 52.2127 59.4107 52.1758 59.6203 52.1758Z" fill="white"/>
<path d="M52.7785 53.2773C52.9881 53.2773 53.1787 53.3142 53.3693 53.388C53.5598 53.4617 53.7123 53.5724 53.8648 53.7014C53.9982 53.8305 54.1125 53.9964 54.1887 54.1808C54.265 54.3652 54.3031 54.5496 54.3031 54.7524C54.3031 54.9552 54.265 55.1396 54.1887 55.324C54.1125 55.5084 53.9982 55.6559 53.8648 55.8034C53.7314 55.9325 53.5598 56.0431 53.3693 56.1169C53.1787 56.1906 52.9881 56.2275 52.7785 56.2275C52.5689 56.2275 52.3783 56.1906 52.1877 56.1169C51.9971 56.0431 51.8447 55.9325 51.6922 55.8034C51.5588 55.6743 51.4445 55.5084 51.3682 55.324C51.292 55.1396 51.2539 54.9552 51.2539 54.7524C51.2539 54.5496 51.292 54.3652 51.3682 54.1808C51.4445 53.9964 51.5588 53.8489 51.6922 53.7014C51.8256 53.5724 51.9971 53.4617 52.1877 53.388C52.3783 53.3142 52.5689 53.2773 52.7785 53.2773Z" fill="white"/>
<path d="M45.9504 51.8184C46.16 51.8184 46.3506 51.8552 46.5412 51.929C46.7317 52.0027 46.8842 52.1134 47.0366 52.2424C47.17 52.3715 47.2844 52.5375 47.3606 52.7218C47.4368 52.9062 47.475 53.0906 47.475 53.2934C47.475 53.4962 47.4368 53.6806 47.3606 53.865C47.2844 54.0494 47.17 54.1969 47.0366 54.3444C46.9032 54.4735 46.7317 54.5841 46.5412 54.6579C46.3506 54.7316 46.16 54.7685 45.9504 54.7685C45.7407 54.7685 45.5502 54.7316 45.3596 54.6579C45.169 54.5841 45.0166 54.4735 44.8641 54.3444C44.7307 54.2153 44.6164 54.0494 44.5401 53.865C44.4639 53.6806 44.4258 53.4962 44.4258 53.2934C44.4258 53.0906 44.4639 52.9062 44.5401 52.7218C44.6164 52.5375 44.7307 52.3899 44.8641 52.2424C44.9975 52.1134 45.169 52.0027 45.3596 51.929C45.5502 51.8552 45.7407 51.8184 45.9504 51.8184Z" fill="white"/>
<path d="M39.8683 48.1289C40.078 48.1289 40.2685 48.1658 40.4591 48.2395C40.6497 48.3133 40.8022 48.4239 40.9546 48.553C41.088 48.6821 41.2024 48.848 41.2786 49.0324C41.3548 49.2168 41.3929 49.4012 41.3929 49.604C41.3929 49.8068 41.3548 49.9912 41.2786 50.1756C41.2024 50.36 41.088 50.5075 40.9546 50.655C40.8212 50.784 40.6497 50.8947 40.4591 50.9684C40.2685 51.0422 40.078 51.079 39.8683 51.079C39.6587 51.079 39.4681 51.0422 39.2776 50.9684C39.087 50.8947 38.9345 50.784 38.7821 50.655C38.6487 50.5259 38.5343 50.36 38.4581 50.1756C38.3819 49.9912 38.3438 49.8068 38.3438 49.604C38.3438 49.4012 38.3819 49.2168 38.4581 49.0324C38.5343 48.848 38.6487 48.7005 38.7821 48.553C38.9155 48.4239 39.087 48.3133 39.2776 48.2395C39.4681 48.1658 39.6587 48.1289 39.8683 48.1289Z" fill="white"/>
<path d="M35.6769 42.6191C35.8866 42.6191 36.0771 42.656 36.2677 42.7298C36.4583 42.8035 36.6107 42.9142 36.7632 43.0432C36.8966 43.1723 37.011 43.3382 37.0872 43.5226C37.1634 43.707 37.2015 43.8914 37.2015 44.0942C37.2015 44.297 37.1634 44.4814 37.0872 44.6658C37.011 44.8502 36.8966 44.9977 36.7632 45.1452C36.6298 45.2743 36.4583 45.3849 36.2677 45.4586C36.0771 45.5324 35.8866 45.5693 35.6769 45.5693C35.4673 45.5693 35.2767 45.5324 35.0862 45.4586C34.8956 45.3849 34.7431 45.2743 34.5907 45.1452C34.4573 45.0161 34.3429 44.8502 34.2667 44.6658C34.1905 44.4814 34.1523 44.297 34.1523 44.0942C34.1523 43.8914 34.1905 43.707 34.2667 43.5226C34.3429 43.3382 34.4573 43.1907 34.5907 43.0432C34.7241 42.9142 34.8956 42.8035 35.0862 42.7298C35.2767 42.656 35.4673 42.6191 35.6769 42.6191Z" fill="white"/>
<path d="M41.384 41.5312C41.5936 41.5312 41.7842 41.5681 41.9747 41.6419C42.1653 41.7156 42.3178 41.8263 42.4702 41.9553C42.6036 42.0844 42.718 42.2503 42.7942 42.4347C42.8704 42.6191 42.9086 42.8035 42.9086 43.0063C42.9086 43.2091 42.8704 43.3935 42.7942 43.5779C42.718 43.7623 42.6036 43.9098 42.4702 44.0573C42.3368 44.1864 42.1653 44.297 41.9747 44.3708C41.7842 44.4445 41.5936 44.4814 41.384 44.4814C41.1743 44.4814 40.9838 44.4445 40.7932 44.3708C40.6026 44.297 40.4502 44.1864 40.2977 44.0573C40.1643 43.9282 40.0499 43.7623 39.9737 43.5779C39.8975 43.3935 39.8594 43.2091 39.8594 43.0063C39.8594 42.8035 39.8975 42.6191 39.9737 42.4347C40.0499 42.2503 40.1643 42.1028 40.2977 41.9553C40.4311 41.8263 40.6026 41.7156 40.7932 41.6419C40.9838 41.5681 41.1743 41.5312 41.384 41.5312Z" fill="white"/>
<path d="M46.3137 46.6738C46.5233 46.6738 46.7139 46.7107 46.9044 46.7845C47.095 46.8582 47.2475 46.9688 47.3999 47.0979C47.5333 47.227 47.6477 47.3929 47.7239 47.5773C47.8001 47.7617 47.8382 47.9461 47.8382 48.1489C47.8382 48.3517 47.8001 48.5361 47.7239 48.7205C47.6477 48.9049 47.5333 49.0524 47.3999 49.1999C47.2665 49.329 47.095 49.4396 46.9044 49.5133C46.7139 49.5871 46.5233 49.624 46.3137 49.624C46.104 49.624 45.9134 49.5871 45.7229 49.5133C45.5323 49.4396 45.3798 49.329 45.2274 49.1999C45.094 49.0708 44.9796 48.9049 44.9034 48.7205C44.8272 48.5361 44.7891 48.3517 44.7891 48.1489C44.7891 47.9461 44.8272 47.7617 44.9034 47.5773C44.9796 47.3929 45.094 47.2454 45.2274 47.0979C45.3608 46.9688 45.5323 46.8582 45.7229 46.7845C45.9134 46.7107 46.104 46.6738 46.3137 46.6738Z" fill="white"/>
<path d="M59.2414 46.6738C59.451 46.6738 59.6416 46.7107 59.8322 46.7845C60.0227 46.8582 60.1752 46.9688 60.3277 47.0979C60.4611 47.227 60.5754 47.3929 60.6516 47.5773C60.7279 47.7617 60.766 47.9461 60.766 48.1489C60.766 48.3517 60.7279 48.5361 60.6516 48.7205C60.5754 48.9049 60.4611 49.0524 60.3277 49.1999C60.1943 49.329 60.0227 49.4396 59.8322 49.5133C59.6416 49.5871 59.451 49.624 59.2414 49.624C59.0318 49.624 58.8412 49.5871 58.6506 49.5133C58.46 49.4396 58.3076 49.329 58.1551 49.1999C58.0217 49.0708 57.9074 48.9049 57.8311 48.7205C57.7549 48.5361 57.7168 48.3517 57.7168 48.1489C57.7168 47.9461 57.7549 47.7617 57.8311 47.5773C57.9074 47.3929 58.0217 47.2454 58.1551 47.0979C58.2885 46.9688 58.46 46.8582 58.6506 46.7845C58.8412 46.7107 59.0318 46.6738 59.2414 46.6738Z" fill="white"/>
<path d="M58.0969 40.7949C58.3065 40.7949 58.4971 40.8318 58.6876 40.9056C58.8782 40.9793 59.0307 41.0899 59.1831 41.219C59.3165 41.3481 59.4309 41.514 59.5071 41.6984C59.5833 41.8828 59.6214 42.0672 59.6214 42.27C59.6214 42.4728 59.5833 42.6572 59.5071 42.8416C59.4309 43.026 59.3165 43.1735 59.1831 43.321C59.0497 43.45 58.8782 43.5607 58.6876 43.6344C58.4971 43.7082 58.3065 43.7451 58.0969 43.7451C57.8872 43.7451 57.6967 43.7082 57.5061 43.6344C57.3155 43.5607 57.163 43.45 57.0106 43.321C56.8772 43.1919 56.7628 43.026 56.6866 42.8416C56.6104 42.6572 56.5723 42.4728 56.5723 42.27C56.5723 42.0672 56.6104 41.8828 56.6866 41.6984C56.7628 41.514 56.8772 41.3665 57.0106 41.219C57.144 41.0899 57.3155 40.9793 57.5061 40.9056C57.6967 40.8318 57.8872 40.7949 58.0969 40.7949Z" fill="white"/>
<path d="M63.7961 35.6504C64.0057 35.6504 64.1963 35.6873 64.3869 35.761C64.5774 35.8348 64.7299 35.9454 64.8823 36.0745C65.0157 36.2035 65.1301 36.3695 65.2063 36.5539C65.2825 36.7383 65.3207 36.9226 65.3207 37.1255C65.3207 37.3283 65.2825 37.5127 65.2063 37.6971C65.1301 37.8814 65.0157 38.0289 64.8823 38.1764C64.7489 38.3055 64.5774 38.4161 64.3869 38.4899C64.1963 38.5637 64.0057 38.6005 63.7961 38.6005C63.5864 38.6005 63.3959 38.5637 63.2053 38.4899C63.0147 38.4161 62.8623 38.3055 62.7098 38.1764C62.5764 38.0474 62.4621 37.8814 62.3858 37.6971C62.3096 37.5127 62.2715 37.3283 62.2715 37.1255C62.2715 36.9226 62.3096 36.7383 62.3858 36.5539C62.4621 36.3695 62.5764 36.222 62.7098 36.0745C62.8432 35.9454 63.0147 35.8348 63.2053 35.761C63.3959 35.6873 63.5864 35.6504 63.7961 35.6504Z" fill="white"/>
<path d="M63.7961 29.7617C64.0057 29.7617 64.1963 29.7986 64.3869 29.8723C64.5774 29.9461 64.7299 30.0567 64.8823 30.1858C65.0157 30.3149 65.1301 30.4808 65.2063 30.6652C65.2825 30.8496 65.3207 31.034 65.3207 31.2368C65.3207 31.4396 65.2825 31.624 65.2063 31.8084C65.1301 31.9928 65.0157 32.1403 64.8823 32.2878C64.7489 32.4168 64.5774 32.5275 64.3869 32.6012C64.1963 32.675 64.0057 32.7119 63.7961 32.7119C63.5864 32.7119 63.3959 32.675 63.2053 32.6012C63.0147 32.5275 62.8623 32.4168 62.7098 32.2878C62.5764 32.1587 62.4621 31.9928 62.3858 31.8084C62.3096 31.624 62.2715 31.4396 62.2715 31.2368C62.2715 31.034 62.3096 30.8496 62.3858 30.6652C62.4621 30.4808 62.5764 30.3333 62.7098 30.1858C62.8432 30.0567 63.0147 29.9461 63.2053 29.8723C63.3959 29.7986 63.5864 29.7617 63.7961 29.7617Z" fill="white"/>
<path d="M58.8547 24.25C59.0643 24.25 59.2549 24.2869 59.4454 24.3606C59.636 24.4344 59.7885 24.545 59.9409 24.6741C60.0743 24.8032 60.1887 24.9691 60.2649 25.1535C60.3411 25.3379 60.3793 25.5222 60.3793 25.7251C60.3793 25.9279 60.3411 26.1123 60.2649 26.2967C60.1887 26.481 60.0743 26.6286 59.9409 26.7761C59.8075 26.9051 59.636 27.0158 59.4454 27.0895C59.2549 27.1633 59.0643 27.2001 58.8547 27.2001C58.645 27.2001 58.4545 27.1633 58.2639 27.0895C58.0733 27.0158 57.9209 26.9051 57.7684 26.7761C57.635 26.647 57.5207 26.481 57.4444 26.2967C57.3682 26.1123 57.3301 25.9279 57.3301 25.7251C57.3301 25.5222 57.3682 25.3379 57.4444 25.1535C57.5207 24.9691 57.635 24.8216 57.7684 24.6741C57.9018 24.545 58.0733 24.4344 58.2639 24.3606C58.4545 24.2869 58.645 24.25 58.8547 24.25Z" fill="white"/>
<path d="M52.7785 24.9863C52.9881 24.9863 53.1787 25.0232 53.3693 25.097C53.5598 25.1707 53.7123 25.2813 53.8648 25.4104C53.9982 25.5395 54.1125 25.7054 54.1887 25.8898C54.265 26.0742 54.3031 26.2586 54.3031 26.4614C54.3031 26.6642 54.265 26.8486 54.1887 27.033C54.1125 27.2174 53.9982 27.3649 53.8648 27.5124C53.7314 27.6415 53.5598 27.7521 53.3693 27.8258C53.1787 27.8996 52.9881 27.9365 52.7785 27.9365C52.5689 27.9365 52.3783 27.8996 52.1877 27.8258C51.9971 27.7521 51.8447 27.6415 51.6922 27.5124C51.5588 27.3833 51.4445 27.2174 51.3682 27.033C51.292 26.8486 51.2539 26.6642 51.2539 26.4614C51.2539 26.2586 51.292 26.0742 51.3682 25.8898C51.4445 25.7054 51.5588 25.5579 51.6922 25.4104C51.8256 25.2813 51.9971 25.1707 52.1877 25.097C52.3783 25.0232 52.5689 24.9863 52.7785 24.9863Z" fill="white"/>
<path d="M46.6965 24.6211C46.9061 24.6211 47.0967 24.658 47.2872 24.7317C47.4778 24.8055 47.6303 24.9161 47.7827 25.0452C47.9161 25.1742 48.0305 25.3402 48.1067 25.5246C48.1829 25.709 48.2211 25.8933 48.2211 26.0962C48.2211 26.299 48.1829 26.4834 48.1067 26.6678C48.0305 26.8521 47.9161 26.9996 47.7827 27.1472C47.6493 27.2762 47.4778 27.3869 47.2872 27.4606C47.0967 27.5344 46.9061 27.5712 46.6965 27.5712C46.4868 27.5712 46.2963 27.5344 46.1057 27.4606C45.9151 27.3869 45.7627 27.2762 45.6102 27.1472C45.4768 27.0181 45.3624 26.8521 45.2862 26.6678C45.21 26.4834 45.1719 26.299 45.1719 26.0962C45.1719 25.8933 45.21 25.709 45.2862 25.5246C45.3624 25.3402 45.4768 25.1927 45.6102 25.0452C45.7436 24.9161 45.9151 24.8055 46.1057 24.7317C46.2963 24.658 46.4868 24.6211 46.6965 24.6211Z" fill="white"/>
<path d="M41.384 29.7617C41.5936 29.7617 41.7842 29.7986 41.9747 29.8723C42.1653 29.9461 42.3178 30.0567 42.4702 30.1858C42.6036 30.3149 42.718 30.4808 42.7942 30.6652C42.8704 30.8496 42.9086 31.034 42.9086 31.2368C42.9086 31.4396 42.8704 31.624 42.7942 31.8084C42.718 31.9928 42.6036 32.1403 42.4702 32.2878C42.3368 32.4168 42.1653 32.5275 41.9747 32.6012C41.7842 32.675 41.5936 32.7119 41.384 32.7119C41.1743 32.7119 40.9838 32.675 40.7932 32.6012C40.6026 32.5275 40.4502 32.4168 40.2977 32.2878C40.1643 32.1587 40.0499 31.9928 39.9737 31.8084C39.8975 31.624 39.8594 31.4396 39.8594 31.2368C39.8594 31.034 39.8975 30.8496 39.9737 30.6652C40.0499 30.4808 40.1643 30.3333 40.2977 30.1858C40.4311 30.0567 40.6026 29.9461 40.7932 29.8723C40.9838 29.7986 41.1743 29.7617 41.384 29.7617Z" fill="white"/>
<path d="M47.0793 30.1328C47.2889 30.1328 47.4795 30.1697 47.6701 30.2434C47.8606 30.3172 48.0131 30.4278 48.1655 30.5569C48.299 30.686 48.4133 30.8519 48.4895 31.0363C48.5658 31.2207 48.6039 31.4051 48.6039 31.6079C48.6039 31.8107 48.5658 31.9951 48.4895 32.1795C48.4133 32.3639 48.299 32.5114 48.1655 32.6589C48.0321 32.7879 47.8606 32.8986 47.6701 32.9723C47.4795 33.0461 47.2889 33.083 47.0793 33.083C46.8696 33.083 46.6791 33.0461 46.4885 32.9723C46.2979 32.8986 46.1455 32.7879 45.993 32.6589C45.8596 32.5298 45.7453 32.3639 45.669 32.1795C45.5928 31.9951 45.5547 31.8107 45.5547 31.6079C45.5547 31.4051 45.5928 31.2207 45.669 31.0363C45.7453 30.8519 45.8596 30.7044 45.993 30.5569C46.1264 30.4278 46.2979 30.3172 46.4885 30.2434C46.6791 30.1697 46.8696 30.1328 47.0793 30.1328Z" fill="white"/>
<path d="M52.7785 30.5C52.9881 30.5 53.1787 30.5369 53.3693 30.6106C53.5598 30.6844 53.7123 30.795 53.8648 30.9241C53.9982 31.0532 54.1125 31.2191 54.1887 31.4035C54.265 31.5879 54.3031 31.7722 54.3031 31.9751C54.3031 32.1779 54.265 32.3623 54.1887 32.5467C54.1125 32.731 53.9982 32.8785 53.8648 33.0261C53.7314 33.1551 53.5598 33.2658 53.3693 33.3395C53.1787 33.4133 52.9881 33.4501 52.7785 33.4501C52.5689 33.4501 52.3783 33.4133 52.1877 33.3395C51.9971 33.2658 51.8447 33.1551 51.6922 33.0261C51.5588 32.897 51.4445 32.731 51.3682 32.5467C51.292 32.3623 51.2539 32.1779 51.2539 31.9751C51.2539 31.7722 51.292 31.5879 51.3682 31.4035C51.4445 31.2191 51.5588 31.0716 51.6922 30.9241C51.8256 30.795 51.9971 30.6844 52.1877 30.6106C52.3783 30.5369 52.5689 30.5 52.7785 30.5Z" fill="white"/>
<path d="M53.1574 35.6504C53.367 35.6504 53.5576 35.6873 53.7482 35.761C53.9388 35.8348 54.0912 35.9454 54.2437 36.0745C54.3771 36.2035 54.4914 36.3695 54.5676 36.5539C54.6439 36.7383 54.682 36.9226 54.682 37.1255C54.682 37.3283 54.6439 37.5127 54.5676 37.6971C54.4914 37.8814 54.3771 38.0289 54.2437 38.1764C54.1103 38.3055 53.9388 38.4161 53.7482 38.4899C53.5576 38.5637 53.367 38.6005 53.1574 38.6005C52.9478 38.6005 52.7572 38.5637 52.5666 38.4899C52.376 38.4161 52.2236 38.3055 52.0711 38.1764C51.9377 38.0474 51.8234 37.8814 51.7472 37.6971C51.6709 37.5127 51.6328 37.3283 51.6328 37.1255C51.6328 36.9226 51.6709 36.7383 51.7472 36.5539C51.8234 36.3695 51.9377 36.222 52.0711 36.0745C52.2045 35.9454 52.376 35.8348 52.5666 35.761C52.7572 35.6873 52.9478 35.6504 53.1574 35.6504Z" fill="white"/>
<path d="M58.4816 35.6504C58.6913 35.6504 58.8818 35.6873 59.0724 35.761C59.263 35.8348 59.4154 35.9454 59.5679 36.0745C59.7013 36.2035 59.8156 36.3695 59.8919 36.5539C59.9681 36.7383 60.0062 36.9226 60.0062 37.1255C60.0062 37.3283 59.9681 37.5127 59.8919 37.6971C59.8156 37.8814 59.7013 38.0289 59.5679 38.1764C59.4345 38.3055 59.263 38.4161 59.0724 38.4899C58.8818 38.5637 58.6913 38.6005 58.4816 38.6005C58.272 38.6005 58.0814 38.5637 57.8908 38.4899C57.7003 38.4161 57.5478 38.3055 57.3954 38.1764C57.2619 38.0474 57.1476 37.8814 57.0714 37.6971C56.9951 37.5127 56.957 37.3283 56.957 37.1255C56.957 36.9226 56.9951 36.7383 57.0714 36.5539C57.1476 36.3695 57.2619 36.222 57.3954 36.0745C57.5288 35.9454 57.7003 35.8348 57.8908 35.761C58.0814 35.6873 58.272 35.6504 58.4816 35.6504Z" fill="white"/>
<path d="M58.0969 30.1328C58.3065 30.1328 58.4971 30.1697 58.6876 30.2434C58.8782 30.3172 59.0307 30.4278 59.1831 30.5569C59.3165 30.686 59.4309 30.8519 59.5071 31.0363C59.5833 31.2207 59.6214 31.4051 59.6214 31.6079C59.6214 31.8107 59.5833 31.9951 59.5071 32.1795C59.4309 32.3639 59.3165 32.5114 59.1831 32.6589C59.0497 32.7879 58.8782 32.8986 58.6876 32.9723C58.4971 33.0461 58.3065 33.083 58.0969 33.083C57.8872 33.083 57.6967 33.0461 57.5061 32.9723C57.3155 32.8986 57.163 32.7879 57.0106 32.6589C56.8772 32.5298 56.7628 32.3639 56.6866 32.1795C56.6104 31.9951 56.5723 31.8107 56.5723 31.6079C56.5723 31.4051 56.6104 31.2207 56.6866 31.0363C56.7628 30.8519 56.8772 30.7044 57.0106 30.5569C57.144 30.4278 57.3155 30.3172 57.5061 30.2434C57.6967 30.1697 57.8872 30.1328 58.0969 30.1328Z" fill="white"/>
<path d="M47.8488 35.6504C48.0584 35.6504 48.249 35.6873 48.4396 35.761C48.6302 35.8348 48.7826 35.9454 48.9351 36.0745C49.0685 36.2035 49.1828 36.3695 49.2591 36.5539C49.3353 36.7383 49.3734 36.9226 49.3734 37.1255C49.3734 37.3283 49.3353 37.5127 49.2591 37.6971C49.1828 37.8814 49.0685 38.0289 48.9351 38.1764C48.8017 38.3055 48.6302 38.4161 48.4396 38.4899C48.249 38.5637 48.0584 38.6005 47.8488 38.6005C47.6392 38.6005 47.4486 38.5637 47.258 38.4899C47.0675 38.4161 46.915 38.3055 46.7625 38.1764C46.6291 38.0474 46.5148 37.8814 46.4386 37.6971C46.3623 37.5127 46.3242 37.3283 46.3242 37.1255C46.3242 36.9226 46.3623 36.7383 46.4386 36.5539C46.5148 36.3695 46.6291 36.222 46.7625 36.0745C46.8959 35.9454 47.0675 35.8348 47.258 35.761C47.4486 35.6873 47.6392 35.6504 47.8488 35.6504Z" fill="white"/>
<path d="M47.0793 41.1582C47.2889 41.1582 47.4795 41.1951 47.6701 41.2688C47.8606 41.3426 48.0131 41.4532 48.1655 41.5823C48.299 41.7114 48.4133 41.8773 48.4895 42.0617C48.5658 42.2461 48.6039 42.4304 48.6039 42.6333C48.6039 42.8361 48.5658 43.0205 48.4895 43.2049C48.4133 43.3892 48.299 43.5368 48.1655 43.6843C48.0321 43.8133 47.8606 43.924 47.6701 43.9977C47.4795 44.0715 47.2889 44.1083 47.0793 44.1083C46.8696 44.1083 46.6791 44.0715 46.4885 43.9977C46.2979 43.924 46.1455 43.8133 45.993 43.6843C45.8596 43.5552 45.7453 43.3892 45.669 43.2049C45.5928 43.0205 45.5547 42.8361 45.5547 42.6333C45.5547 42.4304 45.5928 42.2461 45.669 42.0617C45.7453 41.8773 45.8596 41.7298 45.993 41.5823C46.1264 41.4532 46.2979 41.3426 46.4885 41.2688C46.6791 41.1951 46.8696 41.1582 47.0793 41.1582Z" fill="white"/>
<path d="M52.7785 40.7949C52.9881 40.7949 53.1787 40.8318 53.3693 40.9056C53.5598 40.9793 53.7123 41.0899 53.8648 41.219C53.9982 41.3481 54.1125 41.514 54.1887 41.6984C54.265 41.8828 54.3031 42.0672 54.3031 42.27C54.3031 42.4728 54.265 42.6572 54.1887 42.8416C54.1125 43.026 53.9982 43.1735 53.8648 43.321C53.7314 43.45 53.5598 43.5607 53.3693 43.6344C53.1787 43.7082 52.9881 43.7451 52.7785 43.7451C52.5689 43.7451 52.3783 43.7082 52.1877 43.6344C51.9971 43.5607 51.8447 43.45 51.6922 43.321C51.5588 43.1919 51.4445 43.026 51.3682 42.8416C51.292 42.6572 51.2539 42.4728 51.2539 42.27C51.2539 42.0672 51.292 41.8828 51.3682 41.6984C51.4445 41.514 51.5588 41.3665 51.6922 41.219C51.8256 41.0899 51.9971 40.9793 52.1877 40.9056C52.3783 40.8318 52.5689 40.7949 52.7785 40.7949Z" fill="white"/>
<path d="M63.7961 41.8809C64.0057 41.8809 64.1963 41.9177 64.3869 41.9915C64.5774 42.0652 64.7299 42.1759 64.8823 42.3049C65.0157 42.434 65.1301 42.6 65.2063 42.7843C65.2825 42.9687 65.3207 43.1531 65.3207 43.3559C65.3207 43.5588 65.2825 43.7431 65.2063 43.9275C65.1301 44.1119 65.0157 44.2594 64.8823 44.4069C64.7489 44.536 64.5774 44.6466 64.3869 44.7204C64.1963 44.7941 64.0057 44.831 63.7961 44.831C63.5864 44.831 63.3959 44.7941 63.2053 44.7204C63.0147 44.6466 62.8623 44.536 62.7098 44.4069C62.5764 44.2778 62.4621 44.1119 62.3858 43.9275C62.3096 43.7431 62.2715 43.5588 62.2715 43.3559C62.2715 43.1531 62.3096 42.9687 62.3858 42.7843C62.4621 42.6 62.5764 42.4524 62.7098 42.3049C62.8432 42.1759 63.0147 42.0652 63.2053 41.9915C63.3959 41.9177 63.5864 41.8809 63.7961 41.8809Z" fill="white"/>
<path d="M8 87.7336H11.0545V83.0101H13.8751C16.9556 83.0101 19.0092 80.9744 19.0092 77.9008V77.8742C19.0092 74.8006 16.9556 72.7649 13.8751 72.7649H8V87.7203V87.7336ZM13.1212 75.253C14.8759 75.253 15.9027 76.1977 15.9027 77.9008V77.9274C15.9027 79.6305 14.8759 80.5752 13.1212 80.5752H11.0545V75.253H13.1212ZM20.8159 87.7336H23.8705V72.7782H20.8159V87.7336ZM25.5212 87.7336H28.8227L32.0072 82.4912H32.1111L35.3216 87.7336H38.8051L34.0738 80.2559V80.216L38.87 72.7649H35.4516L32.3581 78.1536H32.2411L29.1346 72.7649H25.5342L30.1484 80.1627V80.1894L25.4952 87.7203L25.5212 87.7336ZM39.442 87.7336H42.6524L43.7573 84.1012H48.9174L50.0223 87.7336H53.2327L48.1376 72.7782H44.5371L39.429 87.7336H39.442ZM46.3049 75.6788H46.3698L48.2155 81.7594H44.4592L46.3049 75.6788ZM54.7405 87.7336H61.2135C64.333 87.7336 66.2697 86.097 66.2697 83.4758V83.4492C66.2437 81.48 64.6839 79.8833 62.7602 79.8567V79.7902C64.359 79.5773 65.5678 78.1935 65.5808 76.5303V76.5037C65.5808 74.2019 63.852 72.7516 61.0965 72.7516H54.7405V87.7203V87.7336ZM60.3036 75.1067C61.7334 75.1067 62.5782 75.7852 62.5782 76.9827V77.0093C62.5782 78.3 61.6554 79.0451 59.9397 79.0451H57.808V75.12H60.3166L60.3036 75.1067ZM60.2906 81.1607C62.1623 81.1607 63.1372 81.8925 63.1372 83.2629V83.2895C63.1372 84.6733 62.1753 85.4184 60.4206 85.4184H57.795V81.174H60.2906V81.1607ZM67.9984 87.7336H71.0529V72.7782H67.9984V87.7336ZM76.9799 87.7336H80.0344V75.3595H84.2718V72.7782H72.7556V75.3595H76.9799V87.7336ZM91.3036 87.9997C94.995 87.9997 97.2047 86.1768 97.2047 83.3028C97.2047 80.9345 95.8269 79.6571 92.7724 79.0451L91.2257 78.7257C89.5489 78.3798 88.795 77.8343 88.795 76.8896C88.795 75.8118 89.7309 75.08 91.3036 75.0667C92.8114 75.0667 93.8642 75.7852 94.0202 76.9561V77.0759H96.9187V76.8763C96.7628 74.2551 94.6961 72.5254 91.3036 72.5254C87.9112 72.5254 85.7275 74.3349 85.7275 77.0626C85.7275 79.3245 87.1833 80.7349 90.0688 81.3203L91.6026 81.6263C93.4093 82.0122 94.1372 82.5178 94.1372 83.529C94.1372 84.6866 93.0714 85.4317 91.3816 85.4317C89.6919 85.4317 88.5091 84.6999 88.3141 83.5423L88.2881 83.4226H85.4026V83.5823C85.5846 86.3365 87.8202 87.9731 91.3036 87.9731V87.9997Z" fill="white"/>
</svg>
