<svg width="105" height="105" viewBox="0 0 105 105" fill="none" xmlns="http://www.w3.org/2000/svg">
<rect x="6.5" y="6.49805" width="92" height="92" rx="19" stroke="white" stroke-width="2"/>
<path d="M27.75 44.4046C27.75 35.8268 34.7037 28.873 43.2816 28.873H58.1919C66.7697 28.873 73.7234 35.8268 73.7234 44.4046C73.7234 52.9825 66.7697 59.9362 58.1919 59.9362H43.2816C34.7037 59.9362 27.75 52.9825 27.75 44.4046Z" fill="#CAD5FF"/>
<path d="M61.918 36.3359C70.4958 36.3359 77.4502 43.2893 77.4502 51.8672C77.4501 60.445 70.4958 67.3984 61.918 67.3984H50.1143V76.0967L37.6895 64.293C34.0822 61.5835 31.6935 57.3403 31.4912 52.5312L31.4766 52.4893H31.4902C31.4821 52.2829 31.4766 52.0755 31.4766 51.8672C31.4766 43.2894 38.4301 36.3361 47.0078 36.3359H61.918Z" fill="white"/>
</svg>
