<svg width="138" height="138" viewBox="0 0 138 138" fill="none" xmlns="http://www.w3.org/2000/svg">
<g filter="url(#filter0_d_5053_814)">
<rect x="23.7559" y="15.3555" width="106.312" height="106.312" rx="21.6562" stroke="white" stroke-width="1.3125" shape-rendering="crispEdges"/>
<path d="M48.0371 59.0694C48.0371 49.0619 56.1498 40.9492 66.1573 40.9492H83.5526C93.5601 40.9492 101.673 49.0619 101.673 59.0694C101.673 69.0769 93.5601 77.1895 83.5526 77.1895H66.1573C56.1498 77.1895 48.0371 69.0769 48.0371 59.0694Z" fill="#CAD5FF"/>
<path d="M87.9004 49.6543C97.9077 49.6545 106.02 57.7671 106.021 67.7744C106.021 77.7818 97.9077 85.8944 87.9004 85.8945H74.1289V96.043L59.6328 82.2715C55.4243 79.1103 52.6372 74.1596 52.4014 68.5488L52.3848 68.5H52.4004C52.3909 68.2593 52.3848 68.0174 52.3848 67.7744C52.3848 57.767 60.4974 49.6543 70.5049 49.6543H87.9004Z" fill="white"/>
</g>
<defs>
<filter id="filter0_d_5053_814" x="-0.000388145" y="-0.000779152" width="137.025" height="137.025" filterUnits="userSpaceOnUse" color-interpolation-filters="sRGB">
<feFlood flood-opacity="0" result="BackgroundImageFix"/>
<feColorMatrix in="SourceAlpha" type="matrix" values="0 0 0 0 0 0 0 0 0 0 0 0 0 0 0 0 0 0 127 0" result="hardAlpha"/>
<feOffset dx="-8.4"/>
<feGaussianBlur stdDeviation="7.35"/>
<feComposite in2="hardAlpha" operator="out"/>
<feColorMatrix type="matrix" values="0 0 0 0 1 0 0 0 0 1 0 0 0 0 1 0 0 0 0.3 0"/>
<feBlend mode="normal" in2="BackgroundImageFix" result="effect1_dropShadow_5053_814"/>
<feBlend mode="normal" in="SourceGraphic" in2="effect1_dropShadow_5053_814" result="shape"/>
</filter>
</defs>
</svg>
