<svg width="24" height="24" viewBox="0 0 24 24" fill="none" xmlns="http://www.w3.org/2000/svg">
<path d="M8.25 14.25H9V22.875H8.25V14.25Z" fill="white"/>
<path d="M6 16.125H6.75V22.875H6V16.125Z" fill="white"/>
<path d="M6.375 6.375C5.67905 6.37421 5.01183 6.09739 4.51972 5.60528C4.02761 5.11317 3.75079 4.44595 3.75 3.75V3.375C3.75 2.67881 4.02656 2.01113 4.51884 1.51884C5.01113 1.02656 5.67881 0.75 6.375 0.75C7.07119 0.75 7.73887 1.02656 8.23116 1.51884C8.72344 2.01113 9 2.67881 9 3.375V3.75C8.99921 4.44595 8.72239 5.11317 8.23028 5.60528C7.73817 6.09739 7.07095 6.37421 6.375 6.375ZM6.375 1.5C5.8779 1.5006 5.40133 1.69833 5.04983 2.04983C4.69833 2.40133 4.5006 2.8779 4.5 3.375V3.75C4.5 4.24728 4.69754 4.72419 5.04917 5.07583C5.40081 5.42746 5.87772 5.625 6.375 5.625C6.87228 5.625 7.34919 5.42746 7.70083 5.07583C8.05246 4.72419 8.25 4.24728 8.25 3.75V3.375C8.2494 2.8779 8.05167 2.40133 7.70017 2.04983C7.34867 1.69833 6.8721 1.5006 6.375 1.5Z" fill="white"/>
<path d="M9.75 15.75C9.35218 15.75 8.97064 15.592 8.68934 15.3107C8.40804 15.0294 8.25 14.6478 8.25 14.25V10.5H9V14.25C9 14.4489 9.07902 14.6397 9.21967 14.7803C9.36032 14.921 9.55109 15 9.75 15C9.94891 15 10.1397 14.921 10.2803 14.7803C10.421 14.6397 10.5 14.4489 10.5 14.25V8.625C10.5 8.32663 10.3815 8.04048 10.1705 7.8295C9.95952 7.61853 9.67337 7.5 9.375 7.5H3.375C3.07663 7.5 2.79048 7.61853 2.5795 7.8295C2.36853 8.04048 2.25 8.32663 2.25 8.625V14.25C2.25 14.4489 2.32902 14.6397 2.46967 14.7803C2.61032 14.921 2.80109 15 3 15C3.19891 15 3.38968 14.921 3.53033 14.7803C3.67098 14.6397 3.75 14.4489 3.75 14.25V10.5H4.5V14.25C4.5 14.6478 4.34196 15.0294 4.06066 15.3107C3.77936 15.592 3.39782 15.75 3 15.75C2.60218 15.75 2.22064 15.592 1.93934 15.3107C1.65804 15.0294 1.5 14.6478 1.5 14.25V8.625C1.5006 8.1279 1.69833 7.65133 2.04983 7.29983C2.40133 6.94833 2.8779 6.7506 3.375 6.75H9.375C9.8721 6.7506 10.3487 6.94833 10.7002 7.29983C11.0517 7.65133 11.2494 8.1279 11.25 8.625V14.25C11.25 14.6478 11.092 15.0294 10.8107 15.3107C10.5294 15.592 10.1478 15.75 9.75 15.75Z" fill="white"/>
<path d="M3.75 14.25H4.5V22.875H3.75V14.25Z" fill="white"/>
<path d="M9.75 3.375H16.125V4.125H9.75V3.375Z" fill="white"/>
<path d="M18.3745 5.2495C18.2751 5.24948 18.1797 5.20996 18.1094 5.13962L16.9844 4.01462L17.5146 3.48437L18.3745 4.34425L20.3594 2.35938L20.8896 2.88962L18.6396 5.13962C18.5693 5.20996 18.4739 5.24948 18.3745 5.2495Z" fill="white"/>
<path d="M19.125 7.125C18.4575 7.125 17.805 6.92706 17.25 6.55621C16.6949 6.18536 16.2624 5.65826 16.0069 5.04156C15.7515 4.42486 15.6846 3.74626 15.8149 3.09157C15.9451 2.43689 16.2665 1.83552 16.7385 1.36352C17.2105 0.891514 17.8119 0.570076 18.4666 0.439851C19.1213 0.309626 19.7999 0.376462 20.4166 0.631908C21.0333 0.887354 21.5604 1.31994 21.9312 1.87495C22.3021 2.42997 22.5 3.08249 22.5 3.75C22.4989 4.64477 22.143 5.50258 21.5103 6.13528C20.8776 6.76798 20.0198 7.12391 19.125 7.125ZM19.125 1.125C18.6058 1.125 18.0983 1.27896 17.6666 1.56739C17.235 1.85583 16.8985 2.2658 16.6998 2.74546C16.5011 3.22511 16.4492 3.75291 16.5504 4.26211C16.6517 4.77131 16.9017 5.23904 17.2688 5.60616C17.636 5.97327 18.1037 6.22328 18.6129 6.32456C19.1221 6.42585 19.6499 6.37387 20.1295 6.17519C20.6092 5.97651 21.0192 5.64005 21.3076 5.20837C21.596 4.77669 21.75 4.26918 21.75 3.75C21.7492 3.05405 21.4724 2.38683 20.9803 1.89472C20.4882 1.40261 19.821 1.1258 19.125 1.125Z" fill="white"/>
<path d="M12 11.625H16.125V12.375H12V11.625Z" fill="white"/>
<path d="M18.3745 13.4995C18.2751 13.4995 18.1797 13.46 18.1094 13.3896L16.9844 12.2646L17.5146 11.7344L18.3745 12.5942L20.3594 10.6094L20.8896 11.1396L18.6396 13.3896C18.5693 13.46 18.4739 13.4995 18.3745 13.4995Z" fill="white"/>
<path d="M19.125 15.375C18.4575 15.375 17.805 15.1771 17.25 14.8062C16.6949 14.4354 16.2624 13.9083 16.0069 13.2916C15.7515 12.6749 15.6846 11.9963 15.8149 11.3416C15.9451 10.6869 16.2665 10.0855 16.7385 9.61352C17.2105 9.14151 17.8119 8.82008 18.4666 8.68985C19.1213 8.55963 19.7999 8.62646 20.4166 8.88191C21.0333 9.13735 21.5604 9.56994 21.9312 10.125C22.3021 10.68 22.5 11.3325 22.5 12C22.4989 12.8948 22.143 13.7526 21.5103 14.3853C20.8776 15.018 20.0198 15.3739 19.125 15.375ZM19.125 9.375C18.6058 9.375 18.0983 9.52896 17.6666 9.81739C17.235 10.1058 16.8985 10.5158 16.6998 10.9955C16.5011 11.4751 16.4492 12.0029 16.5504 12.5121C16.6517 13.0213 16.9017 13.489 17.2688 13.8562C17.636 14.2233 18.1037 14.4733 18.6129 14.5746C19.1221 14.6758 19.6499 14.6239 20.1295 14.4252C20.6092 14.2265 21.0192 13.8901 21.3076 13.4584C21.596 13.0267 21.75 12.5192 21.75 12C21.7492 11.3041 21.4724 10.6368 20.9803 10.1447C20.4882 9.65261 19.821 9.3758 19.125 9.375Z" fill="white"/>
<path d="M9.75 19.875H16.125V20.625H9.75V19.875Z" fill="white"/>
<path d="M18.3745 21.7495C18.2751 21.7495 18.1797 21.71 18.1094 21.6396L16.9844 20.5146L17.5146 19.9844L18.3745 20.8442L20.3594 18.8594L20.8896 19.3896L18.6396 21.6396C18.5693 21.71 18.4739 21.7495 18.3745 21.7495Z" fill="white"/>
<path d="M19.125 23.625C18.4575 23.625 17.805 23.4271 17.25 23.0562C16.6949 22.6854 16.2624 22.1583 16.0069 21.5416C15.7515 20.9249 15.6846 20.2463 15.8149 19.5916C15.9451 18.9369 16.2665 18.3355 16.7385 17.8635C17.2105 17.3915 17.8119 17.0701 18.4666 16.9399C19.1213 16.8096 19.7999 16.8765 20.4166 17.1319C21.0333 17.3874 21.5604 17.8199 21.9312 18.375C22.3021 18.93 22.5 19.5825 22.5 20.25C22.4989 21.1448 22.143 22.0026 21.5103 22.6353C20.8776 23.268 20.0198 23.6239 19.125 23.625ZM19.125 17.625C18.6058 17.625 18.0983 17.779 17.6666 18.0674C17.235 18.3558 16.8985 18.7658 16.6998 19.2455C16.5011 19.7251 16.4492 20.2529 16.5504 20.7621C16.6517 21.2713 16.9017 21.739 17.2688 22.1062C17.636 22.4733 18.1037 22.7233 18.6129 22.8246C19.1221 22.9258 19.6499 22.8739 20.1295 22.6752C20.6092 22.4765 21.0192 22.1401 21.3076 21.7084C21.596 21.2767 21.75 20.7692 21.75 20.25C21.7492 19.5541 21.4724 18.8868 20.9803 18.3947C20.4882 17.9026 19.821 17.6258 19.125 17.625Z" fill="white"/>
</svg>
