<svg width="105" height="105" viewBox="0 0 105 105" fill="none" xmlns="http://www.w3.org/2000/svg">
<rect x="6.5" y="6.49805" width="92" height="92" rx="19" stroke="white" stroke-width="2"/>
<path d="M70.5754 27.748H33.6902C33.3901 27.748 33.0899 27.7781 32.7935 27.8381C32.4971 27.8981 32.212 27.9882 31.9343 28.1045C31.6529 28.2208 31.3903 28.3634 31.1389 28.5322C30.8875 28.701 30.6587 28.8924 30.4448 29.1062C30.2309 29.3201 30.0396 29.5527 29.8745 29.8041C29.7057 30.0555 29.5669 30.3181 29.4505 30.5995C29.3342 30.8771 29.2479 31.166 29.1917 31.4624C29.1316 31.7589 29.1016 32.0553 29.1054 32.3592L29.0791 73.8516L38.3013 64.6294H70.5716C70.8755 64.6294 71.1757 64.5994 71.4721 64.5394C71.7685 64.4794 72.0574 64.3931 72.335 64.2767C72.6126 64.1604 72.879 64.0179 73.1304 63.849C73.3818 63.6802 73.6144 63.4888 73.8283 63.275C74.0421 63.0611 74.2335 62.8285 74.4023 62.5771C74.5711 62.3257 74.7137 62.0631 74.83 61.7817C74.9463 61.5041 75.0326 61.2152 75.0927 60.9188C75.1527 60.6224 75.1827 60.3222 75.1827 60.0183V32.3592C75.1827 32.0553 75.1527 31.7551 75.0927 31.4587C75.0326 31.1623 74.9463 30.8771 74.83 30.5958C74.7137 30.3181 74.5711 30.0517 74.4023 29.8003C74.2335 29.549 74.0421 29.3163 73.8283 29.1025C73.6144 28.8886 73.3818 28.6973 73.1304 28.5284C72.879 28.3596 72.6164 28.2208 72.335 28.1045C72.0574 27.9882 71.7685 27.8981 71.4721 27.8381C71.1757 27.7781 70.8755 27.748 70.5754 27.748ZM45.2161 48.4962H40.605V43.8851H45.2161V48.4962ZM54.4383 48.4962H49.8272V43.8851H54.4383V48.4962ZM63.6568 48.4962H59.0457V43.8851H63.6568V48.4962Z" fill="white"/>
</svg>
