<svg width="138" height="138" viewBox="0 0 138 138" fill="none" xmlns="http://www.w3.org/2000/svg">
<g filter="url(#filter0_d_5053_807)">
<rect x="4.85547" y="15.3555" width="106.312" height="106.312" rx="21.6562" stroke="white" stroke-width="1.3125" shape-rendering="crispEdges"/>
<path d="M79.0998 39.6367H36.0671C35.717 39.6367 35.3668 39.6717 35.021 39.7418C34.6752 39.8118 34.3425 39.9169 34.0186 40.0526C33.6903 40.1883 33.3839 40.3546 33.0906 40.5516C32.7973 40.7485 32.5303 40.9718 32.2808 41.2213C32.0313 41.4708 31.8081 41.7422 31.6155 42.0354C31.4185 42.3287 31.2565 42.6351 31.1208 42.9634C30.9852 43.2873 30.8845 43.6244 30.8188 43.9702C30.7488 44.316 30.7138 44.6618 30.7181 45.0163L30.6875 93.4243L41.4468 82.665H79.0954C79.45 82.665 79.8001 82.63 80.1459 82.5599C80.4918 82.4899 80.8288 82.3892 81.1527 82.2535C81.4766 82.1178 81.7874 81.9515 82.0807 81.7545C82.374 81.5576 82.6454 81.3343 82.8949 81.0848C83.1444 80.8353 83.3676 80.5639 83.5646 80.2706C83.7616 79.9774 83.9279 79.671 84.0636 79.3427C84.1993 79.0188 84.3 78.6817 84.37 78.3359C84.44 77.9901 84.475 77.6399 84.475 77.2854V45.0163C84.475 44.6618 84.44 44.3116 84.37 43.9658C84.3 43.62 84.1993 43.2873 84.0636 42.959C83.9279 42.6351 83.7616 42.3243 83.5646 42.0311C83.3676 41.7378 83.1444 41.4664 82.8949 41.2169C82.6454 40.9674 82.374 40.7442 82.0807 40.5472C81.7874 40.3502 81.481 40.1883 81.1527 40.0526C80.8288 39.9169 80.4918 39.8118 80.1459 39.7418C79.8001 39.6717 79.45 39.6367 79.0998 39.6367ZM49.514 63.8429H44.1344V58.4632H49.514V63.8429ZM60.2733 63.8429H54.8936V58.4632H60.2733V63.8429ZM71.0282 63.8429H65.6485V58.4632H71.0282V63.8429Z" fill="white"/>
</g>
<defs>
<filter id="filter0_d_5053_807" x="-0.000779152" y="-0.000779152" width="137.025" height="137.025" filterUnits="userSpaceOnUse" color-interpolation-filters="sRGB">
<feFlood flood-opacity="0" result="BackgroundImageFix"/>
<feColorMatrix in="SourceAlpha" type="matrix" values="0 0 0 0 0 0 0 0 0 0 0 0 0 0 0 0 0 0 127 0" result="hardAlpha"/>
<feOffset dx="10.5"/>
<feGaussianBlur stdDeviation="7.35"/>
<feComposite in2="hardAlpha" operator="out"/>
<feColorMatrix type="matrix" values="0 0 0 0 1 0 0 0 0 1 0 0 0 0 1 0 0 0 0.3 0"/>
<feBlend mode="normal" in2="BackgroundImageFix" result="effect1_dropShadow_5053_807"/>
<feBlend mode="normal" in="SourceGraphic" in2="effect1_dropShadow_5053_807" result="shape"/>
</filter>
</defs>
</svg>
