<svg width="105" height="105" viewBox="0 0 105 105" fill="none" xmlns="http://www.w3.org/2000/svg">
<rect x="6.5" y="6.49805" width="92" height="92" rx="19" stroke="white" stroke-width="2"/>
<path d="M61.0544 50.1317C61.0544 50.678 61.0009 51.2205 60.8939 51.7554C60.7907 52.2902 60.6341 52.806 60.4278 53.3103C60.2177 53.8146 59.9655 54.2921 59.6637 54.7468C59.3619 55.2014 59.0219 55.6217 58.636 56.0075C58.254 56.3896 57.8375 56.7372 57.3867 57.039C56.9359 57.3409 56.4622 57.5968 55.9617 57.807C55.4574 58.0133 54.9416 58.1737 54.4106 58.2769C53.8795 58.3838 53.3447 58.4373 52.8022 58.4373C52.2597 58.4373 51.7248 58.3838 51.19 58.2769C50.6589 58.1737 50.1432 58.0133 49.6427 57.807C49.1422 57.5968 48.6685 57.3409 48.2176 57.039C47.7668 56.7372 47.3504 56.3896 46.9684 56.0075C46.5825 55.6217 46.2425 55.2014 45.9407 54.7468C45.6388 54.2921 45.3867 53.8146 45.1766 53.3103C44.9703 52.806 44.8136 52.2902 44.7067 51.7554C44.6035 51.2205 44.55 50.678 44.55 50.1317V35.5987C44.55 35.0562 44.6035 34.5137 44.7067 33.9788C44.8136 33.444 44.9703 32.9244 45.1766 32.4201C45.3867 31.9196 45.6388 31.4382 45.9407 30.9874C46.2425 30.5328 46.5825 30.1125 46.9684 29.7267C47.3504 29.3408 47.7668 28.997 48.2176 28.6952C48.6685 28.3933 49.1422 28.1374 49.6427 27.9272C50.1432 27.7171 50.6589 27.5605 51.19 27.4535C51.7248 27.3465 52.2597 27.2969 52.8022 27.2969C53.3447 27.2969 53.8795 27.3465 54.4106 27.4535C54.9416 27.5605 55.4574 27.7171 55.9617 27.9272C56.4622 28.1374 56.9359 28.3933 57.3867 28.6952C57.8375 28.997 58.254 29.3408 58.636 29.7267C59.0219 30.1125 59.3619 30.5328 59.6637 30.9874C59.9655 31.4382 60.2177 31.9196 60.4278 32.4201C60.6341 32.9244 60.7907 33.444 60.8939 33.9788C61.0009 34.5137 61.0544 35.0562 61.0544 35.5987V50.1317ZM69.3065 45.9827V50.1317C69.3065 50.678 69.2798 51.2205 69.2263 51.763C69.1728 52.3017 69.0964 52.8404 68.9894 53.3752C68.8824 53.9063 68.7526 54.4335 68.5959 54.9531C68.4393 55.4765 68.2559 55.9884 68.0496 56.4889C67.8433 56.9932 67.6141 57.4822 67.3581 57.9636C67.1021 58.4411 66.827 58.9072 66.5252 59.3619C66.2234 59.8127 65.9025 60.2482 65.5587 60.6723C65.2186 61.0925 64.8557 61.4937 64.4737 61.8795C64.0916 62.2616 63.6905 62.6284 63.274 62.9722C62.8538 63.3199 62.4221 63.6408 61.9713 63.9426C61.5204 64.2444 61.0582 64.5271 60.5806 64.7831C60.1069 65.0391 59.6179 65.2721 59.1174 65.4784C58.6169 65.6885 58.1088 65.8719 57.593 66.0286C57.0773 66.1852 56.55 66.3189 56.0228 66.4259C55.4918 66.529 54.9569 66.6093 54.4182 66.6627C53.8834 66.7162 53.3409 66.743 52.8022 66.743C52.2597 66.743 51.721 66.7162 51.1823 66.6627C50.6475 66.6093 50.1126 66.529 49.5815 66.4259C49.0505 66.3189 48.5271 66.1852 48.0113 66.0286C47.4918 65.8719 46.9836 65.6885 46.487 65.4784C45.9865 65.2721 45.4975 65.0391 45.0199 64.7831C44.5462 64.5271 44.0801 64.2444 43.6331 63.9426C43.1823 63.6408 42.7506 63.3199 42.3303 62.9722C41.9139 62.6284 41.5128 62.2616 41.1307 61.8795C40.7487 61.4937 40.3857 61.0925 40.0419 60.6723C39.7019 60.2482 39.3771 59.8127 39.0791 59.3619C38.7773 58.9072 38.5022 58.4411 38.2463 57.9636C37.9903 57.4822 37.7611 56.9932 37.5548 56.4889C37.3485 55.9884 37.1651 55.4765 37.0085 54.9531C36.8518 54.4335 36.7181 53.9063 36.6149 53.3752C36.508 52.8404 36.4277 52.3017 36.3781 51.763C36.3246 51.2205 36.2979 50.678 36.2979 50.1317V45.9827H40.4239V50.1317C40.4239 50.9493 40.5042 51.7592 40.6608 52.5615C40.8213 53.3638 41.0543 54.1431 41.3676 54.8996C41.677 55.656 42.0591 56.3743 42.5099 57.0505C42.9607 57.7305 43.4765 58.3609 44.0495 58.9378C44.6264 59.5185 45.2492 60.0343 45.9254 60.4889C46.6016 60.9435 47.316 61.3256 48.0648 61.6389C48.8175 61.9521 49.5892 62.189 50.3877 62.3456C51.1861 62.5061 51.9884 62.5863 52.8022 62.5863C53.6159 62.5863 54.4182 62.5061 55.2167 62.3456C56.0114 62.189 56.7869 61.9521 57.5395 61.6389C58.2883 61.3256 59.0028 60.9435 59.679 60.4889C60.3514 60.0343 60.9779 59.5185 61.5548 58.9378C62.1279 58.3609 62.6398 57.7305 63.0945 57.0505C63.5453 56.3743 63.9273 55.656 64.2368 54.8996C64.5462 54.1431 64.7831 53.3638 64.9436 52.5615C65.1002 51.7592 65.1804 50.9493 65.1804 50.1317V45.9827H69.3065ZM54.8652 72.9703V68.8175H50.7391V72.9703H42.487V77.1231H63.1212V72.9703H54.8652Z" fill="white"/>
</svg>
