<svg width="138" height="138" viewBox="0 0 138 138" fill="none" xmlns="http://www.w3.org/2000/svg">
<g filter="url(#filter0_d_5053_803)">
<rect x="15.3555" y="3.80664" width="106.312" height="106.312" rx="21.6562" stroke="white" stroke-width="1.3125" shape-rendering="crispEdges"/>
<path d="M78.492 54.2012C78.492 54.8385 78.4296 55.4714 78.3048 56.0955C78.1844 56.7195 78.0017 57.3212 77.761 57.9095C77.5158 58.4979 77.2217 59.055 76.8695 59.5854C76.5174 60.1158 76.1207 60.6061 75.6706 61.0563C75.2248 61.502 74.739 61.9076 74.2131 62.2597C73.6871 62.6119 73.1344 62.9105 72.5505 63.1556C71.9622 63.3963 71.3605 63.5835 70.7409 63.7039C70.1214 63.8287 69.4973 63.8911 68.8644 63.8911C68.2315 63.8911 67.6075 63.8287 66.9835 63.7039C66.3639 63.5835 65.7622 63.3963 65.1783 63.1556C64.5944 62.9105 64.0417 62.6119 63.5158 62.2597C62.9899 61.9076 62.504 61.502 62.0583 61.0563C61.6081 60.6061 61.2114 60.1158 60.8593 59.5854C60.5072 59.055 60.213 58.4979 59.9679 57.9095C59.7272 57.3212 59.5444 56.7195 59.4196 56.0955C59.2993 55.4714 59.2369 54.8385 59.2369 54.2012V37.246C59.2369 36.6131 59.2993 35.9802 59.4196 35.3562C59.5444 34.7322 59.7272 34.126 59.9679 33.5376C60.213 32.9537 60.5072 32.3921 60.8593 31.8662C61.2114 31.3358 61.6081 30.8455 62.0583 30.3953C62.504 29.9451 62.9899 29.544 63.5158 29.1919C64.0417 28.8398 64.5944 28.5411 65.1783 28.296C65.7622 28.0508 66.3639 27.8681 66.9835 27.7433C67.6075 27.6185 68.2315 27.5605 68.8644 27.5605C69.4973 27.5605 70.1214 27.6185 70.7409 27.7433C71.3605 27.8681 71.9622 28.0508 72.5505 28.296C73.1344 28.5411 73.6871 28.8398 74.2131 29.1919C74.739 29.544 75.2248 29.9451 75.6706 30.3953C76.1207 30.8455 76.5174 31.3358 76.8695 31.8662C77.2217 32.3921 77.5158 32.9537 77.761 33.5376C78.0017 34.126 78.1844 34.7322 78.3048 35.3562C78.4296 35.9802 78.492 36.6131 78.492 37.246V54.2012ZM88.1195 49.3606V54.2012C88.1195 54.8385 88.0883 55.4715 88.0259 56.1044C87.9635 56.7328 87.8743 57.3613 87.7495 57.9853C87.6247 58.6049 87.4732 59.2199 87.2904 59.8261C87.1077 60.4368 86.8938 61.034 86.6531 61.6179C86.4124 62.2063 86.1449 62.7768 85.8463 63.3384C85.5477 63.8955 85.2268 64.4393 84.8746 64.9697C84.5225 65.4957 84.1481 66.0038 83.747 66.4985C83.3503 66.9888 82.9269 67.4568 82.4811 67.907C82.0354 68.3527 81.5674 68.7806 81.0816 69.1818C80.5913 69.5874 80.0876 69.9618 79.5617 70.3139C79.0357 70.666 78.4964 70.9958 77.9393 71.2945C77.3866 71.5931 76.8161 71.865 76.2322 72.1057C75.6483 72.3508 75.0555 72.5648 74.4537 72.7475C73.852 72.9302 73.2369 73.0863 72.6218 73.2111C72.0023 73.3314 71.3783 73.425 70.7498 73.4874C70.1258 73.5498 69.4929 73.581 68.8644 73.581C68.2315 73.581 67.603 73.5498 66.9746 73.4874C66.3506 73.425 65.7266 73.3314 65.107 73.2111C64.4875 73.0863 63.8768 72.9302 63.2751 72.7475C62.6689 72.5648 62.0761 72.3508 61.4967 72.1057C60.9128 71.865 60.3423 71.5931 59.7851 71.2945C59.2324 70.9958 58.6887 70.666 58.1672 70.3139C57.6412 69.9618 57.1376 69.5874 56.6473 69.1818C56.1614 68.7806 55.6934 68.3527 55.2477 67.907C54.802 67.4568 54.3786 66.9888 53.9774 66.4985C53.5807 66.0038 53.2019 65.4957 52.8542 64.9697C52.5021 64.4393 52.1812 63.8955 51.8825 63.3384C51.5839 62.7768 51.3165 62.2063 51.0758 61.6179C50.8351 61.034 50.6212 60.4368 50.4384 59.8261C50.2557 59.2199 50.0997 58.6049 49.9793 57.9853C49.8545 57.3613 49.7609 56.7328 49.703 56.1044C49.6406 55.4715 49.6094 54.8385 49.6094 54.2012V49.3606H54.4231V54.2012C54.4231 55.155 54.5167 56.0999 54.6995 57.0359C54.8867 57.9719 55.1586 58.8812 55.5241 59.7637C55.8851 60.6462 56.3308 61.4842 56.8568 62.2731C57.3827 63.0665 57.9844 63.8019 58.653 64.475C59.326 65.1525 60.0526 65.7542 60.8415 66.2846C61.6304 66.815 62.4639 67.2607 63.3375 67.6262C64.2156 67.9917 65.1159 68.268 66.0475 68.4508C66.979 68.638 67.915 68.7316 68.8644 68.7316C69.8138 68.7316 70.7498 68.638 71.6814 68.4508C72.6085 68.268 73.5133 67.9917 74.3913 67.6262C75.2649 67.2607 76.0984 66.815 76.8874 66.2846C77.6718 65.7542 78.4028 65.1525 79.0758 64.475C79.7444 63.8019 80.3417 63.0665 80.8721 62.2731C81.398 61.4842 81.8438 60.6462 82.2048 59.7637C82.5658 58.8812 82.8422 57.9719 83.0294 57.0359C83.2121 56.0999 83.3057 55.155 83.3057 54.2012V49.3606H88.1195ZM71.2713 80.8462V76.0013H66.4575V80.8462H56.83V85.6912H80.9033V80.8462H71.2713Z" fill="white"/>
</g>
<defs>
<filter id="filter0_d_5053_803" x="-0.000779152" y="0.000392914" width="137.025" height="137.025" filterUnits="userSpaceOnUse" color-interpolation-filters="sRGB">
<feFlood flood-opacity="0" result="BackgroundImageFix"/>
<feColorMatrix in="SourceAlpha" type="matrix" values="0 0 0 0 0 0 0 0 0 0 0 0 0 0 0 0 0 0 127 0" result="hardAlpha"/>
<feOffset dy="11.55"/>
<feGaussianBlur stdDeviation="7.35"/>
<feComposite in2="hardAlpha" operator="out"/>
<feColorMatrix type="matrix" values="0 0 0 0 1 0 0 0 0 1 0 0 0 0 1 0 0 0 0.3 0"/>
<feBlend mode="normal" in2="BackgroundImageFix" result="effect1_dropShadow_5053_803"/>
<feBlend mode="normal" in="SourceGraphic" in2="effect1_dropShadow_5053_803" result="shape"/>
</filter>
</defs>
</svg>
