<svg width="105" height="105" viewBox="0 0 105 105" fill="none" xmlns="http://www.w3.org/2000/svg">
<path d="M72.0684 41.8271V58.0914H54.2418V23.4085H35.0832V41.8271H53.0084V45.5931H31.3008V19.6426H58.0077V54.3254H68.3024V45.5931H59.2411V41.8271H72.0684Z" fill="black"/>
<path d="M72.0648 42.2031H68.2988V58.1056H72.0648V42.2031Z" fill="url(#paint0_linear_5331_1030)"/>
<path d="M35.0667 19.6426H31.3008V42.2218H35.0667V19.6426Z" fill="url(#paint1_linear_5331_1030)"/>
<path d="M72.0846 54.3223H56.1328V58.0882H72.0846V54.3223Z" fill="url(#paint2_linear_5331_1030)"/>
<path d="M53.0084 41.8262H31.3008V45.5921H53.0084V41.8262Z" fill="url(#paint3_linear_5331_1030)"/>
<path d="M57.9913 19.6426H31.3008V23.425H57.9913V19.6426Z" fill="url(#paint4_linear_5331_1030)"/>
<path d="M72.0839 41.8262H59.2402V45.5921H72.0839V41.8262Z" fill="url(#paint5_linear_5331_1030)"/>
<path d="M58.0101 19.6426H54.2441V58.1078H58.0101V19.6426Z" fill="url(#paint6_linear_5331_1030)"/>
<path d="M7 84.7942V71.8784H8.80483V73.4153H8.95992C9.07273 73.2179 9.22783 72.9923 9.42523 72.7385C9.62263 72.4847 9.90464 72.2591 10.2571 72.0617C10.6096 71.8643 11.0891 71.7656 11.6813 71.7656C12.4286 71.7656 13.1054 71.963 13.6976 72.3437C14.2898 72.7244 14.7551 73.2743 15.0935 74.0076C15.4319 74.7267 15.6011 75.6009 15.6011 76.6302C15.6011 77.6595 15.4319 78.5055 15.0935 79.2387C14.7551 79.9719 14.2898 80.5218 13.6976 80.9166C13.1054 81.3114 12.4286 81.4947 11.6672 81.4947C11.1032 81.4947 10.6378 81.396 10.2712 81.1986C9.90464 81.0012 9.62263 80.7756 9.42523 80.5218C9.21373 80.268 9.05863 80.0283 8.94583 79.8309H8.84713V84.8224H7V84.7942ZM11.2583 79.8873C11.7941 79.8873 12.2453 79.7463 12.6119 79.4502C12.9785 79.1541 13.2464 78.7593 13.4297 78.2658C13.613 77.7723 13.6976 77.2083 13.6976 76.5879C13.6976 75.9675 13.613 75.4176 13.4297 74.9241C13.2464 74.4306 12.9785 74.0499 12.6119 73.7537C12.2453 73.4717 11.7941 73.3307 11.2583 73.3307C10.7224 73.3307 10.2853 73.4717 9.91874 73.7396C9.55213 74.0076 9.28423 74.3883 9.10093 74.8818C8.91763 75.3612 8.81892 75.9393 8.81892 76.5879C8.81892 77.2365 8.91763 77.8146 9.10093 78.3081C9.28423 78.8016 9.56623 79.1964 9.93284 79.4784C10.2994 79.7604 10.7365 79.9014 11.2583 79.9014V79.8873Z" fill="white"/>
<path d="M20.4503 81.48C19.8581 81.48 19.3223 81.3672 18.8288 81.1416C18.3494 80.916 17.9687 80.5917 17.6867 80.1687C17.4047 79.7457 17.2637 79.2239 17.2637 78.6035C17.2637 78.0677 17.3624 77.6306 17.5739 77.2922C17.7854 76.9538 18.0533 76.6718 18.4058 76.4744C18.7583 76.277 19.139 76.1219 19.5761 76.0232C19.9991 75.9245 20.4362 75.8399 20.8874 75.7976C21.4373 75.7271 21.8885 75.6707 22.241 75.6284C22.5935 75.5861 22.8473 75.5156 23.0165 75.4169C23.1857 75.3182 23.2703 75.1631 23.2703 74.9375V74.8811C23.2703 74.5286 23.1998 74.2325 23.0729 73.9928C22.9319 73.7531 22.7345 73.5698 22.4666 73.4288C22.1987 73.3019 21.8744 73.2314 21.4655 73.2314C21.0566 73.2314 20.7041 73.2878 20.408 73.4147C20.1119 73.5416 19.8722 73.6967 19.6889 73.8941C19.5056 74.0915 19.3646 74.2889 19.28 74.5145L17.5457 74.0633C17.7572 73.4993 18.0674 73.0481 18.4622 72.7097C18.857 72.3713 19.3223 72.1175 19.8299 71.9624C20.3516 71.8073 20.8733 71.7227 21.4232 71.7227C21.8039 71.7227 22.2128 71.765 22.6358 71.8637C23.0588 71.9624 23.4677 72.1175 23.8344 72.3572C24.2151 72.5969 24.5112 72.9212 24.7509 73.3442C24.9906 73.7672 25.1034 74.3312 25.1034 75.008V81.2544H23.3126V79.9713H23.2139C23.087 80.211 22.9037 80.4507 22.664 80.6763C22.4243 80.9019 22.1141 81.0993 21.7475 81.2403C21.3809 81.3954 20.9438 81.4659 20.4362 81.4659L20.4503 81.48ZM20.8592 79.9995C21.3668 79.9995 21.7898 79.9008 22.1564 79.7034C22.523 79.506 22.7909 79.2521 22.9742 78.9278C23.1575 78.6035 23.2562 78.251 23.2562 77.8985V76.7C23.2562 76.7 23.0588 76.8269 22.8755 76.8833C22.6922 76.9397 22.4666 76.982 22.2269 77.0243C21.9872 77.0666 21.7475 77.0948 21.5219 77.123C21.2963 77.1512 21.113 77.1794 20.972 77.1935C20.6195 77.2358 20.3093 77.3204 20.0132 77.4191C19.7171 77.5319 19.4915 77.6729 19.3223 77.8703C19.1531 78.0677 19.0685 78.3215 19.0685 78.6599C19.0685 78.956 19.139 79.2098 19.2941 79.4073C19.4492 79.6047 19.6607 79.7598 19.9145 79.8585C20.1824 79.9572 20.4785 80.0136 20.831 80.0136L20.8592 79.9995Z" fill="white"/>
<path d="M28.5312 70.4247C28.2069 70.4247 27.939 70.3119 27.7134 70.1004C27.4878 69.8889 27.375 69.621 27.375 69.3249C27.375 69.0287 27.4878 68.7608 27.7134 68.5352C27.939 68.3237 28.2069 68.2109 28.5312 68.2109C28.8555 68.2109 29.1234 68.3237 29.349 68.5352C29.5746 68.7467 29.6874 69.0146 29.6874 69.3249C29.6874 69.6351 29.5746 69.8889 29.349 70.1004C29.1234 70.3119 28.8414 70.4247 28.5312 70.4247ZM27.6006 81.2677V71.8629H29.4477V81.2677H27.6006Z" fill="white"/>
<path d="M35.3144 81.4663C34.6376 81.4663 34.0313 81.3676 33.4955 81.1702C32.9597 80.9728 32.5367 80.6908 32.1983 80.296C31.8599 79.9153 31.6343 79.4359 31.5215 78.886L33.2699 78.5194C33.3968 79.0129 33.6365 79.3654 33.989 79.6051C34.3415 79.8448 34.7927 79.9576 35.3285 79.9576C35.9207 79.9576 36.4001 79.8307 36.7527 79.5769C37.1052 79.3231 37.2885 79.027 37.2885 78.6745C37.2885 78.3784 37.1757 78.1246 36.9642 77.9272C36.7527 77.7298 36.4142 77.5888 35.963 77.4901L34.3838 77.1235C33.5096 76.926 32.861 76.6158 32.438 76.1787C32.015 75.7416 31.8035 75.1917 31.8035 74.5149C31.8035 73.9509 31.9586 73.4574 32.2688 73.0485C32.579 72.6255 33.0161 72.3012 33.5519 72.0615C34.1018 71.8359 34.7222 71.709 35.4413 71.709C36.1604 71.709 36.6963 71.8077 37.1757 72.0051C37.6551 72.2025 38.0499 72.4704 38.346 72.8229C38.6421 73.1754 38.8677 73.5843 38.9946 74.0496L37.3308 74.4162C37.218 74.0919 37.0065 73.7958 36.7103 73.542C36.4142 73.2882 35.9912 73.1613 35.4413 73.1613C34.9337 73.1613 34.5107 73.2741 34.1582 73.4997C33.8198 73.7253 33.6506 74.0214 33.6506 74.3739C33.6506 74.6841 33.7634 74.9379 33.989 75.1353C34.2146 75.3327 34.5812 75.4878 35.1029 75.6006L36.6116 75.939C37.4859 76.1364 38.1204 76.4466 38.5434 76.8696C38.9664 77.2927 39.1779 77.8285 39.1779 78.4912C39.1779 79.0693 39.0087 79.5628 38.6844 80.014C38.3601 80.4511 37.9089 80.8036 37.3167 81.0433C36.7385 81.2971 36.0617 81.424 35.3003 81.424L35.3144 81.4663Z" fill="white"/>
<path d="M43.8585 81.48C43.2663 81.48 42.7305 81.3672 42.237 81.1416C41.7576 80.916 41.3769 80.5917 41.0949 80.1687C40.8129 79.7457 40.6719 79.2239 40.6719 78.6035C40.6719 78.0677 40.7706 77.6306 40.9821 77.2922C41.1936 76.9538 41.4615 76.6718 41.814 76.4744C42.1665 76.277 42.5613 76.1219 42.9843 76.0232C43.4073 75.9245 43.8444 75.8399 44.2956 75.7976C44.8455 75.7271 45.2967 75.6707 45.6492 75.6284C46.0017 75.5861 46.2555 75.5156 46.4247 75.4169C46.594 75.3182 46.6786 75.1631 46.6786 74.9375V74.8811C46.6786 74.5286 46.6081 74.2325 46.4812 73.9928C46.3542 73.7531 46.1427 73.5698 45.8748 73.4288C45.6069 73.3019 45.2826 73.2314 44.8737 73.2314C44.4648 73.2314 44.1123 73.2878 43.8162 73.4147C43.5201 73.5416 43.2804 73.6967 43.0971 73.8941C42.9138 74.0915 42.7728 74.2889 42.6882 74.5145L40.9539 74.0633C41.1654 73.4993 41.4756 73.0481 41.8704 72.7097C42.2652 72.3713 42.7305 72.1175 43.2381 71.9624C43.7598 71.8073 44.2815 71.7227 44.8314 71.7227C45.2121 71.7227 45.621 71.765 46.044 71.8637C46.467 71.9483 46.876 72.1175 47.2426 72.3572C47.6233 72.5969 47.9194 72.9212 48.1591 73.3442C48.3988 73.7672 48.5116 74.3312 48.5116 75.008V81.2544H46.7209V79.9713H46.6222C46.4952 80.211 46.3119 80.4507 46.0722 80.6763C45.8325 80.9019 45.5223 81.0993 45.1557 81.2403C44.7891 81.3954 44.352 81.4659 43.8444 81.4659L43.8585 81.48ZM44.2674 79.9995C44.775 79.9995 45.198 79.9008 45.5646 79.7034C45.9171 79.506 46.1991 79.2521 46.3825 78.9278C46.5799 78.6035 46.6644 78.251 46.6644 77.8985V76.7C46.6644 76.7 46.4671 76.8269 46.2837 76.8833C46.1004 76.9397 45.8748 76.982 45.6351 77.0243C45.3954 77.0666 45.1557 77.0948 44.9301 77.123C44.7045 77.1512 44.5212 77.1794 44.3802 77.1935C44.0277 77.2358 43.7175 77.3204 43.4214 77.4191C43.1253 77.5319 42.8997 77.6729 42.7305 77.8703C42.5613 78.0677 42.4767 78.3215 42.4767 78.6599C42.4767 78.956 42.5472 79.2098 42.7023 79.4073C42.8574 79.6047 43.0689 79.7598 43.3227 79.8585C43.5906 79.9572 43.8867 80.0136 44.2392 80.0136L44.2674 79.9995Z" fill="white"/>
<path d="M54.375 81.4663C53.6982 81.4663 53.0919 81.3676 52.5561 81.1702C52.0203 80.9728 51.5972 80.6908 51.2588 80.296C50.9204 79.9153 50.6948 79.4359 50.582 78.886L52.3164 78.5194C52.4433 79.0129 52.683 79.3654 53.0355 79.6051C53.388 79.8448 53.8392 79.9576 54.375 79.9576C54.9672 79.9576 55.4466 79.8307 55.7991 79.5769C56.1516 79.3231 56.3349 79.027 56.3349 78.6745C56.3349 78.3784 56.2221 78.1246 56.0106 77.9272C55.7991 77.7298 55.4607 77.5888 55.0095 77.4901L53.4303 77.1235C52.5561 76.926 51.9074 76.6158 51.4844 76.1787C51.0614 75.7416 50.8499 75.1917 50.8499 74.5149C50.8499 73.9509 51.005 73.4574 51.3152 73.0485C51.6254 72.6396 52.0625 72.3012 52.5984 72.0615C53.1483 71.8359 53.7687 71.709 54.4878 71.709C55.2069 71.709 55.7427 71.8077 56.2221 72.0051C56.7015 72.2025 57.0963 72.4704 57.3924 72.8229C57.6885 73.1754 57.9141 73.5843 58.041 74.0496L56.3772 74.4162C56.2644 74.0919 56.0529 73.7958 55.7568 73.542C55.4607 73.2882 55.0377 73.1613 54.4878 73.1613C53.9802 73.1613 53.5572 73.2741 53.2047 73.4997C52.8663 73.7253 52.6971 74.0214 52.6971 74.3739C52.6971 74.6841 52.8099 74.9379 53.0355 75.1353C53.2611 75.3327 53.6277 75.4878 54.1494 75.6006L55.6581 75.939C56.5323 76.1364 57.1668 76.4466 57.5898 76.8696C58.0128 77.2927 58.2243 77.8285 58.2243 78.4912C58.2243 79.0693 58.0551 79.5628 57.7308 80.014C57.4065 80.4511 56.9553 80.8036 56.3631 81.0433C55.785 81.2971 55.1082 81.424 54.3468 81.424L54.375 81.4663Z" fill="white"/>
<path d="M64.3035 71.8645V73.3733H59.1992V71.8645H64.3035ZM60.581 69.6367H62.4282V78.7454C62.4282 79.1261 62.5128 79.394 62.6679 79.5773C62.823 79.7606 63.0909 79.8452 63.4575 79.8452C63.5562 79.8452 63.6831 79.8452 63.8382 79.817C63.9933 79.7888 64.1343 79.7747 64.2471 79.7465L64.5714 81.2271C64.374 81.2976 64.1625 81.3399 63.9369 81.3681C63.7113 81.3963 63.4857 81.4104 63.2742 81.4104C62.4282 81.4104 61.7655 81.1848 61.286 80.7477C60.8207 80.3106 60.581 79.6901 60.581 78.8864V69.6367Z" fill="white"/>
<path d="M66.1484 81.2685V71.8637H67.9392V73.3724H68.0379C68.2071 72.8507 68.5173 72.4559 68.9403 72.1598C69.3774 71.8637 69.8568 71.7227 70.4067 71.7227C70.5195 71.7227 70.6605 71.7227 70.8156 71.7227C70.9707 71.7227 71.0976 71.7509 71.1963 71.765V73.5275C71.1963 73.5275 70.9989 73.4852 70.8156 73.457C70.6182 73.4288 70.4349 73.4288 70.2375 73.4288C69.8145 73.4288 69.4338 73.5134 69.0813 73.6967C68.7429 73.88 68.475 74.1197 68.2776 74.444C68.0802 74.7542 67.9956 75.1208 67.9956 75.5438V81.2544H66.1484V81.2685Z" fill="white"/>
<path d="M76.5409 81.467C75.6103 81.467 74.8207 81.2696 74.1439 80.8748C73.4671 80.48 72.9595 79.916 72.5929 79.1968C72.2263 78.4777 72.043 77.6176 72.043 76.6447C72.043 75.6718 72.2263 74.8258 72.5788 74.0926C72.9313 73.3594 73.4389 72.7813 74.0875 72.3724C74.7361 71.9635 75.4975 71.752 76.3717 71.752C76.9075 71.752 77.4292 71.8366 77.9227 72.0199C78.4162 72.2032 78.8674 72.4711 79.2764 72.8518C79.6712 73.2325 79.9955 73.7119 80.2211 74.3182C80.4608 74.9104 80.5736 75.6436 80.5736 76.4896V77.1523H73.0723V75.7705H79.6148L78.7547 76.2217C78.7547 75.6436 78.67 75.136 78.4867 74.6989C78.3034 74.2618 78.0355 73.9093 77.6971 73.6696C77.3446 73.4158 76.9075 73.303 76.3858 73.303C75.8641 73.303 75.4129 73.4299 75.0463 73.6837C74.6797 73.9375 74.3977 74.2618 74.2003 74.6848C74.0029 75.0937 73.9042 75.5449 73.9042 76.0384V76.9831C73.9042 77.6317 74.017 78.1675 74.2426 78.6187C74.4682 79.0699 74.7784 79.3942 75.1732 79.634C75.568 79.8737 76.0333 79.9724 76.555 79.9724C76.9075 79.9724 77.2177 79.9301 77.4997 79.8314C77.7817 79.7327 78.0214 79.5917 78.2329 79.3801C78.4303 79.1827 78.5855 78.9289 78.6983 78.6469L80.4467 79.0558C80.2916 79.5352 80.0378 79.9583 79.6853 80.339C79.3328 80.7056 78.8816 81.0017 78.3599 81.1991C77.824 81.3965 77.2318 81.5093 76.555 81.5093L76.5409 81.467Z" fill="white"/>
<path d="M86.6503 81.467C85.7197 81.467 84.9301 81.2696 84.2533 80.8748C83.5765 80.48 83.0689 79.916 82.7022 79.1968C82.3356 78.4777 82.1523 77.6176 82.1523 76.6447C82.1523 75.6718 82.3357 74.8258 82.6882 74.0926C83.0407 73.3594 83.5483 72.7813 84.1969 72.3724C84.8455 71.9635 85.6069 71.752 86.4811 71.752C87.0169 71.752 87.5386 71.8366 88.0321 72.0199C88.5256 72.2032 88.9768 72.4711 89.3857 72.8518C89.7805 73.2325 90.1048 73.7119 90.3304 74.3182C90.5702 74.9104 90.683 75.6436 90.683 76.4896V77.1523H83.1817V75.7705H89.7241L88.864 76.2217C88.864 75.6436 88.7794 75.136 88.5961 74.6989C88.4128 74.2618 88.1449 73.9093 87.8065 73.6696C87.454 73.4158 87.0169 73.303 86.4952 73.303C85.9735 73.303 85.5223 73.4299 85.1557 73.6837C84.7891 73.9375 84.5071 74.2618 84.3097 74.6848C84.1123 75.0937 84.0136 75.5449 84.0136 76.0384V76.9831C84.0136 77.6317 84.1264 78.1675 84.352 78.6187C84.5776 79.0699 84.8878 79.3942 85.2826 79.634C85.6774 79.8737 86.1427 79.9724 86.6644 79.9724C87.0169 79.9724 87.3271 79.9301 87.6091 79.8314C87.8911 79.7327 88.1308 79.5917 88.3423 79.3801C88.5397 79.1827 88.6948 78.9289 88.8076 78.6469L90.556 79.0558C90.4009 79.5352 90.1471 79.9583 89.7946 80.339C89.4421 80.7056 88.9909 81.0017 88.4692 81.1991C87.9334 81.3965 87.3412 81.5093 86.6644 81.5093L86.6503 81.467Z" fill="white"/>
<path d="M96.7468 71.8645V73.3733H91.6426V71.8645H96.7468ZM93.0103 69.6367H94.8574V78.7454C94.8574 79.1261 94.942 79.394 95.0971 79.5773C95.2522 79.7606 95.5201 79.8452 95.8867 79.8452C95.9854 79.8452 96.1123 79.8452 96.2674 79.817C96.4225 79.7888 96.5635 79.7747 96.6763 79.7465L97.0006 81.2271C96.8032 81.2976 96.5917 81.3399 96.3661 81.3681C96.1405 81.3963 95.9149 81.4104 95.7034 81.4104C94.8574 81.4104 94.1947 81.1848 93.7153 80.7477C93.25 80.3106 93.0103 79.6901 93.0103 78.8864V69.6367Z" fill="white"/>
<path d="M44.1249 85.625V90.0666H43.6736V86.5133L41.9252 89.5025H41.6996L39.9512 86.5274V90.0666H39.5V85.625H39.8948L41.8265 88.9244L43.7301 85.625H44.1108H44.1249Z" fill="white"/>
<path d="M45.168 87.8537C45.168 86.5565 46.155 85.5977 47.5086 85.5977C48.8622 85.5977 49.8351 86.5565 49.8351 87.8537C49.8351 89.1509 48.834 90.1097 47.5086 90.1097C46.1832 90.1097 45.168 89.1509 45.168 87.8537ZM49.3698 87.8537C49.3698 86.7962 48.5802 86.0066 47.5086 86.0066C46.437 86.0066 45.6333 86.7821 45.6333 87.8537C45.6333 88.9253 46.437 89.6867 47.5086 89.6867C48.5802 89.6867 49.3698 88.9112 49.3698 87.8537Z" fill="white"/>
<path d="M54.6009 85.625V90.0666H54.2202L51.3579 86.4569V90.0666H50.8926V85.625H51.2874L54.1497 89.2346V85.625H54.615H54.6009Z" fill="white"/>
<path d="M58.9588 89.4584V89.8673H55.8145V85.4258H58.8601V85.8347H56.2798V87.4139H58.5781V87.8087H56.2798V89.4584H58.9447H58.9588Z" fill="white"/>
<path d="M61.7361 88.5296V90.0666H61.2708V88.5296L59.4941 85.625H60.0017L61.5246 88.1207L63.0474 85.625H63.5127L61.7361 88.5296Z" fill="white"/>
<path d="M72.1815 85.625V90.0666H71.7303V86.5133L69.9819 89.5025H69.7563L68.0078 86.5274V90.0666H67.5566V85.625H67.9514L69.8832 88.9244L71.7867 85.625H72.1674H72.1815Z" fill="white"/>
<path d="M76.3977 88.8821H73.916L73.3802 90.0666H72.8867L74.9171 85.625H75.3825L77.4129 90.0666H76.9194L76.3836 88.8821H76.3977ZM76.2285 88.5014L75.1568 86.1185L74.0852 88.5014H76.2144H76.2285Z" fill="white"/>
<path d="M78.7975 86.0339H77.2324V85.625H80.828V86.0339H79.2629V90.0666H78.7975V86.0339Z" fill="white"/>
<path d="M82.5065 86.0339H80.9414V85.625H84.537V86.0339H82.9718V90.0666H82.5065V86.0339Z" fill="white"/>
<path d="M88.4275 89.6577V90.0666H85.2832V85.625H88.3288V86.0339H85.7485V87.6131H88.0468V88.0079H85.7485V89.6577H88.4134H88.4275Z" fill="white"/>
<path d="M92.5589 90.0666L91.5437 88.6424C91.4309 88.6424 91.3181 88.6565 91.1912 88.6565H89.9927V90.0666H89.5273V85.625H91.1912C92.3192 85.625 93.0101 86.2031 93.0101 87.1478C93.0101 87.8528 92.6435 88.3322 91.9949 88.5437L93.0806 90.0666H92.573H92.5589ZM92.5307 87.1478C92.5307 86.4428 92.0654 86.0339 91.1771 86.0339H89.9927V88.2617H91.1771C92.0654 88.2617 92.5307 87.8528 92.5307 87.1478Z" fill="white"/>
<path d="M93.6719 89.532L93.8552 89.1654C94.1795 89.4756 94.7435 89.7012 95.3216 89.7012C96.1535 89.7012 96.5201 89.3487 96.5201 88.9116C96.5201 87.699 93.7847 88.4463 93.7847 86.7966C93.7847 86.148 94.2923 85.584 95.4203 85.584C95.9279 85.584 96.4355 85.725 96.8021 85.9788L96.647 86.3595C96.2663 86.1057 95.8292 85.9929 95.4344 85.9929C94.6166 85.9929 94.2641 86.3595 94.2641 86.7966C94.2641 88.0092 96.9995 87.276 96.9995 88.8975C96.9995 89.5461 96.4778 90.1101 95.3498 90.1101C94.6871 90.1101 94.0244 89.8704 93.7001 89.532H93.6719Z" fill="white"/>
<defs>
<linearGradient id="paint0_linear_5331_1030" x1="68.2988" y1="50.1461" x2="72.0648" y2="50.1461" gradientUnits="userSpaceOnUse">
<stop stop-color="white"/>
<stop offset="1" stop-color="#E6E6E6"/>
</linearGradient>
<linearGradient id="paint1_linear_5331_1030" x1="31.3008" y1="30.924" x2="35.0832" y2="30.924" gradientUnits="userSpaceOnUse">
<stop stop-color="white"/>
<stop offset="1" stop-color="#E6E6E6"/>
</linearGradient>
<linearGradient id="paint2_linear_5331_1030" x1="56.1328" y1="56.2135" x2="25.4955" y2="56.2135" gradientUnits="userSpaceOnUse">
<stop stop-color="white"/>
<stop offset="1" stop-color="#E6E6E6"/>
</linearGradient>
<linearGradient id="paint3_linear_5331_1030" x1="31.3008" y1="43.7174" x2="53.0084" y2="43.7174" gradientUnits="userSpaceOnUse">
<stop stop-color="white"/>
<stop offset="1" stop-color="#E6E6E6"/>
</linearGradient>
<linearGradient id="paint4_linear_5331_1030" x1="31.3008" y1="21.5338" x2="58.0077" y2="21.5338" gradientUnits="userSpaceOnUse">
<stop stop-color="white"/>
<stop offset="1" stop-color="#E6E6E6"/>
</linearGradient>
<linearGradient id="paint5_linear_5331_1030" x1="59.2402" y1="43.7174" x2="25.4947" y2="43.7174" gradientUnits="userSpaceOnUse">
<stop stop-color="white"/>
<stop offset="1" stop-color="#E6E6E6"/>
</linearGradient>
<linearGradient id="paint6_linear_5331_1030" x1="54.2441" y1="38.867" x2="58.0101" y2="38.867" gradientUnits="userSpaceOnUse">
<stop stop-color="white"/>
<stop offset="1" stop-color="#E6E6E6"/>
</linearGradient>
</defs>
</svg>
