<svg width="138" height="138" viewBox="0 0 138 138" fill="none" xmlns="http://www.w3.org/2000/svg">
<g filter="url(#filter0_d_5053_811)">
<rect x="20.6055" y="4.85547" width="106.312" height="106.312" rx="21.6562" stroke="white" stroke-width="1.3125" shape-rendering="crispEdges"/>
<path d="M74.2582 30.4515C73.3753 30.4471 72.4966 30.4906 71.6137 30.5733C70.7351 30.6559 69.8652 30.782 68.9996 30.9517C68.1297 31.1169 67.2772 31.3301 66.429 31.5824C65.5852 31.8346 64.7544 32.1304 63.9367 32.4653C63.119 32.8002 62.3187 33.1743 61.5401 33.5875C60.7615 34.0007 60.0004 34.4487 59.2653 34.9358C58.5302 35.423 57.8212 35.9493 57.134 36.506C56.4511 37.0628 55.7943 37.65 55.168 38.2719C54.5417 38.8939 53.9458 39.5464 53.3847 40.2249C52.8236 40.9078 52.2929 41.6124 51.8014 42.3431C51.3099 43.0782 50.8532 43.8307 50.4313 44.6092C50.0138 45.3834 49.6354 46.1794 49.2918 46.9971C48.9525 47.8105 48.6524 48.6369 48.3914 49.4807C48.1304 50.3245 47.9129 51.1814 47.739 52.0469C47.565 52.9125 47.4301 53.7824 47.3388 54.661C47.2518 55.5396 47.204 56.4182 47.1996 57.3012C47.1996 59.7456 47.5258 62.1466 48.187 64.4997C48.8437 66.8571 49.8094 69.0754 51.0838 71.1632L46.1992 85.5689L61.1791 80.8061C61.6923 81.0888 62.2099 81.3498 62.7406 81.5977C63.2669 81.8457 63.8019 82.0718 64.3456 82.285C64.8849 82.4981 65.4373 82.6938 65.9897 82.8678C66.5464 83.0461 67.1075 83.2027 67.673 83.3463C68.2384 83.4854 68.8082 83.6072 69.378 83.7116C69.9521 83.816 70.5306 83.903 71.1091 83.9682C71.6876 84.0335 72.2661 84.0813 72.849 84.1118C73.4318 84.1422 74.0146 84.1509 74.5975 84.1422C75.1803 84.1379 75.7588 84.1074 76.3416 84.0639C76.9201 84.0161 77.4986 83.9552 78.0771 83.8682C78.6556 83.7856 79.2254 83.6855 79.7995 83.5637C80.3693 83.4463 80.9348 83.3071 81.4959 83.1505C82.057 82.9939 82.6094 82.82 83.1618 82.6286C83.7098 82.4372 84.2535 82.2241 84.7928 81.9979C85.3278 81.7717 85.8541 81.5282 86.3761 81.2672C86.898 81.0019 87.4069 80.7235 87.9115 80.4321C88.416 80.1363 88.9075 79.8275 89.3903 79.5013C89.8731 79.175 90.3429 78.8314 90.8039 78.4748C91.265 78.1181 91.713 77.7484 92.1523 77.3613C92.5872 76.9785 93.0135 76.5784 93.4224 76.1652C93.8356 75.752 94.2314 75.3257 94.6141 74.8864C94.9969 74.4471 95.3666 73.9991 95.7233 73.538C96.0756 73.0726 96.4149 72.6029 96.7411 72.1157C97.0629 71.6329 97.3718 71.1371 97.6632 70.6325C97.9546 70.128 98.233 69.6191 98.4896 69.0972C98.7506 68.5752 98.9941 68.0446 99.216 67.5052C99.4421 66.9702 99.6509 66.4265 99.838 65.8741C100.029 65.3218 100.203 64.765 100.356 64.2039C100.508 63.6428 100.647 63.0774 100.764 62.5076C100.882 61.9335 100.978 61.3593 101.06 60.7852C101.138 60.2067 101.199 59.6282 101.243 59.0454C101.286 58.4669 101.312 57.884 101.317 57.3012C101.312 56.4182 101.269 55.5396 101.178 54.661C101.086 53.7824 100.956 52.9082 100.777 52.0469C100.603 51.1814 100.386 50.3245 100.125 49.4807C99.8684 48.6369 99.5683 47.8105 99.2247 46.9928C98.8854 46.1794 98.5026 45.3834 98.0851 44.6092C97.6675 43.8307 97.2108 43.0782 96.715 42.3431C96.2235 41.6124 95.6972 40.9078 95.1317 40.2249C94.5706 39.5464 93.9748 38.8939 93.3484 38.2719C92.7221 37.65 92.0653 37.0628 91.3824 36.506C90.6952 35.9449 89.9862 35.423 89.2511 34.9358C88.5161 34.4487 87.7549 34.0007 86.9763 33.5875C86.1977 33.1743 85.3974 32.8002 84.5797 32.4653C83.7663 32.1304 82.9312 31.8346 82.0874 31.5824C81.2392 31.3301 80.3867 31.1169 79.5168 30.9517C78.6513 30.782 77.7814 30.6559 76.9027 30.5733C76.0198 30.4906 75.1412 30.4471 74.2582 30.4515ZM87.7114 67.4965C87.0764 69.0754 84.1969 70.5151 82.9269 70.5804C81.6568 70.6499 81.622 71.5633 74.7062 68.5622C67.7861 65.5566 63.6235 58.245 63.2973 57.7753C62.9668 57.3012 60.618 53.9564 60.7441 50.5812C60.7659 49.5025 61.0095 48.4716 61.4662 47.493C61.9272 46.51 62.5666 45.6662 63.38 44.9572C63.8976 44.4352 64.5196 44.1743 65.2546 44.1699C65.7983 44.1612 66.1506 44.1525 66.5551 44.1699C66.9597 44.183 67.5599 44.0829 68.0862 45.4748C68.6081 46.871 69.8608 50.2941 70.0217 50.642C70.2436 51.0422 70.2479 51.4424 70.0348 51.8425C69.8434 52.2514 69.5998 52.6254 69.2997 52.9604C68.9387 53.3475 68.5429 53.8303 68.221 54.126C67.86 54.4522 67.4859 54.8089 67.8644 55.5092C68.843 57.3229 70.0609 58.9497 71.5267 60.3981C73.123 61.9161 74.9324 63.1165 76.9506 64.0038C77.6291 64.3736 78.0336 64.3301 78.4555 63.8908C78.8774 63.4471 80.2562 61.9509 80.7434 61.2854C81.2305 60.6199 81.6873 60.746 82.3092 60.9983C82.9356 61.2506 86.2673 63.0382 86.9459 63.4036C87.6244 63.769 88.0768 63.9603 88.2377 64.2561C88.3899 65.387 88.2159 66.47 87.7114 67.4965Z" fill="white"/>
</g>
<defs>
<filter id="filter0_d_5053_811" x="-0.000779152" y="-0.000779152" width="137.025" height="137.025" filterUnits="userSpaceOnUse" color-interpolation-filters="sRGB">
<feFlood flood-opacity="0" result="BackgroundImageFix"/>
<feColorMatrix in="SourceAlpha" type="matrix" values="0 0 0 0 0 0 0 0 0 0 0 0 0 0 0 0 0 0 127 0" result="hardAlpha"/>
<feOffset dx="-5.25" dy="10.5"/>
<feGaussianBlur stdDeviation="7.35"/>
<feComposite in2="hardAlpha" operator="out"/>
<feColorMatrix type="matrix" values="0 0 0 0 1 0 0 0 0 1 0 0 0 0 1 0 0 0 0.3 0"/>
<feBlend mode="normal" in2="BackgroundImageFix" result="effect1_dropShadow_5053_811"/>
<feBlend mode="normal" in="SourceGraphic" in2="effect1_dropShadow_5053_811" result="shape"/>
</filter>
</defs>
</svg>
