<svg width="105" height="105" viewBox="0 0 105 105" fill="none" xmlns="http://www.w3.org/2000/svg">
<g clip-path="url(#clip0_5331_916)">
<g filter="url(#filter0_d_5331_916)">
<rect x="6.5" y="6.49805" width="92" height="92" rx="13" stroke="white" stroke-width="2" shape-rendering="crispEdges"/>
<path d="M52.9256 28.8753C52.1687 28.8715 51.4156 28.9088 50.6588 28.9796C49.9057 29.0505 49.1601 29.1586 48.4182 29.304C47.6725 29.4457 46.9418 29.6283 46.2148 29.8446C45.4915 30.0608 44.7795 30.3143 44.0786 30.6014C43.3777 30.8885 42.6917 31.2091 42.0243 31.5633C41.357 31.9174 40.7046 32.3015 40.0745 32.719C39.4444 33.1366 38.8367 33.5877 38.2477 34.0649C37.6623 34.5421 37.0994 35.0454 36.5625 35.5785C36.0257 36.1117 35.5149 36.6709 35.034 37.2525C34.553 37.8378 34.0982 38.4418 33.6769 39.0681C33.2556 39.6982 32.8642 40.3431 32.5025 41.0105C32.1446 41.6741 31.8203 42.3564 31.5257 43.0573C31.2349 43.7544 30.9777 44.4628 30.754 45.186C30.5303 45.9093 30.3439 46.6438 30.1948 47.3857C30.0457 48.1276 29.9301 48.8732 29.8518 49.6263C29.7772 50.3794 29.7362 51.1325 29.7325 51.8893C29.7325 53.9845 30.0121 56.0425 30.5788 58.0594C31.1417 60.0801 31.9694 61.9815 33.0618 63.771L28.875 76.1187L41.7149 72.0364C42.1548 72.2787 42.5985 72.5024 43.0533 72.7149C43.5044 72.9274 43.963 73.1213 44.429 73.304C44.8913 73.4867 45.3648 73.6544 45.8383 73.8035C46.3155 73.9564 46.7964 74.0906 47.2811 74.2136C47.7657 74.333 48.2541 74.4373 48.7425 74.5268C49.2347 74.6163 49.7305 74.6909 50.2264 74.7468C50.7222 74.8027 51.2181 74.8437 51.7176 74.8698C52.2172 74.8959 52.7168 74.9034 53.2164 74.8959C53.7159 74.8922 54.2118 74.8661 54.7114 74.8288C55.2072 74.7878 55.7031 74.7356 56.1989 74.661C56.6948 74.5902 57.1832 74.5044 57.6753 74.4001C58.1637 74.2994 58.6483 74.1801 59.1293 74.0459C59.6102 73.9117 60.0837 73.7625 60.5572 73.5985C61.0269 73.4345 61.4929 73.2518 61.9552 73.0579C62.4138 72.864 62.8649 72.6553 63.3123 72.4316C63.7597 72.2042 64.1959 71.9656 64.6284 71.7158C65.0608 71.4623 65.4821 71.1976 65.8959 70.9179C66.3098 70.6383 66.7124 70.3438 67.1076 70.0381C67.5028 69.7324 67.8868 69.4155 68.2633 69.0837C68.6362 68.7556 69.0015 68.4126 69.352 68.0584C69.7062 67.7042 70.0454 67.3389 70.3735 66.9623C70.7016 66.5858 71.0185 66.2018 71.3242 65.8066C71.6262 65.4077 71.917 65.005 72.1966 64.5875C72.4725 64.1737 72.7372 63.7486 72.987 63.3162C73.2367 62.8837 73.4754 62.4475 73.6953 62.0001C73.919 61.5528 74.1278 61.0979 74.3179 60.6356C74.5118 60.1771 74.6907 59.711 74.8511 59.2376C75.0151 58.7641 75.1642 58.2869 75.2947 57.8059C75.4252 57.325 75.5445 56.8403 75.6452 56.3519C75.7458 55.8598 75.8278 55.3677 75.8987 54.8756C75.9658 54.3797 76.018 53.8839 76.0553 53.3843C76.0925 52.8885 76.1149 52.3889 76.1186 51.8893C76.1149 51.1325 76.0776 50.3794 75.9993 49.6263C75.921 48.8732 75.8092 48.1238 75.6563 47.3857C75.5072 46.6438 75.3208 45.9093 75.0971 45.186C74.8772 44.4628 74.6199 43.7544 74.3254 43.0535C74.0346 42.3564 73.7065 41.6741 73.3486 41.0105C72.9907 40.3431 72.5992 39.6982 72.1742 39.0681C71.7529 38.4418 71.3018 37.8378 70.8172 37.2525C70.3362 36.6709 69.8255 36.1117 69.2886 35.5785C68.7517 35.0454 68.1888 34.5421 67.6035 34.0649C67.0144 33.5839 66.4067 33.1366 65.7766 32.719C65.1466 32.3015 64.4941 31.9174 63.8268 31.5633C63.1594 31.2091 62.4735 30.8885 61.7726 30.6014C61.0754 30.3143 60.3596 30.0608 59.6363 29.8446C58.9093 29.6283 58.1786 29.4457 57.4329 29.304C56.691 29.1586 55.9454 29.0505 55.1923 28.9796C54.4355 28.9088 53.6824 28.8715 52.9256 28.8753ZM64.4569 60.6282C63.9125 61.9815 61.4445 63.2155 60.3558 63.2714C59.2672 63.3311 59.2374 64.114 53.3096 61.5416C47.378 58.9654 43.8101 52.6983 43.5305 52.2957C43.2472 51.8893 41.234 49.0223 41.3421 46.1293C41.3607 45.2047 41.5695 44.3211 41.961 43.4823C42.3561 42.6397 42.9042 41.9164 43.6014 41.3087C44.045 40.8614 44.5781 40.6377 45.2082 40.6339C45.6742 40.6265 45.9762 40.619 46.3229 40.6339C46.6697 40.6451 47.1841 40.5594 47.6353 41.7524C48.0826 42.9491 49.1564 45.8832 49.2943 46.1815C49.4844 46.5245 49.4882 46.8674 49.3055 47.2104C49.1414 47.5609 48.9327 47.8815 48.6754 48.1686C48.366 48.5004 48.0267 48.9142 47.7508 49.1677C47.4414 49.4474 47.1208 49.7531 47.4451 50.3533C48.284 51.9079 49.3279 53.3023 50.5843 54.5438C51.9525 55.8449 53.5034 56.8739 55.2333 57.6344C55.8149 57.9513 56.1616 57.914 56.5233 57.5375C56.8849 57.1572 58.0667 55.8747 58.4843 55.3043C58.9019 54.7339 59.2933 54.842 59.8264 55.0583C60.3633 55.2745 63.2191 56.8068 63.8007 57.1199C64.3823 57.4331 64.77 57.5972 64.908 57.8507C65.0385 58.82 64.8893 59.7483 64.4569 60.6282Z" fill="white"/>
</g>
</g>
<defs>
<filter id="filter0_d_5331_916" x="-11.6" y="1.89805" width="119.2" height="119.2" filterUnits="userSpaceOnUse" color-interpolation-filters="sRGB">
<feFlood flood-opacity="0" result="BackgroundImageFix"/>
<feColorMatrix in="SourceAlpha" type="matrix" values="0 0 0 0 0 0 0 0 0 0 0 0 0 0 0 0 0 0 127 0" result="hardAlpha"/>
<feOffset dx="-4.5" dy="9"/>
<feGaussianBlur stdDeviation="6.3"/>
<feComposite in2="hardAlpha" operator="out"/>
<feColorMatrix type="matrix" values="0 0 0 0 1 0 0 0 0 1 0 0 0 0 1 0 0 0 0.3 0"/>
<feBlend mode="normal" in2="BackgroundImageFix" result="effect1_dropShadow_5331_916"/>
<feBlend mode="normal" in="SourceGraphic" in2="effect1_dropShadow_5331_916" result="shape"/>
</filter>
<clipPath id="clip0_5331_916">
<rect width="105" height="105" fill="white"/>
</clipPath>
</defs>
</svg>
